<svg width="47" height="47" viewBox="0 0 47 47" fill="none" xmlns="http://www.w3.org/2000/svg">
<rect x="0.5" y="0.5" width="46" height="46" rx="11.5" stroke="#D1D2E7"/>
<path d="M31.6231 19.8828C31.5212 19.5194 31.3227 19.1905 31.0487 18.9309C30.7669 18.6633 30.4216 18.4719 30.0453 18.3747C28.637 18.0037 22.9948 18.0037 22.9948 18.0037C20.6426 17.977 18.291 18.0946 15.9532 18.356C15.5769 18.4603 15.2322 18.656 14.9498 18.9256C14.6724 19.1925 14.4714 19.5215 14.3664 19.8821C14.1142 21.24 13.9917 22.6189 14.0005 24C13.9915 25.3799 14.1137 26.7583 14.3664 28.1179C14.4691 28.477 14.6694 28.8045 14.9476 29.0691C15.2258 29.3337 15.5723 29.5248 15.9532 29.626C17.3803 29.9963 22.9948 29.9963 22.9948 29.9963C25.3499 30.0231 27.7045 29.9054 30.0453 29.644C30.4216 29.5468 30.7669 29.3554 31.0487 29.0878C31.3226 28.8283 31.5209 28.4993 31.6223 28.1359C31.8811 26.7785 32.007 25.3991 31.998 24.0172C32.0175 22.6295 31.8918 21.2436 31.6231 19.8821V19.8828ZM21.201 26.5664V21.4343L25.8954 24.0007L21.201 26.5664Z" fill="#595A7E"/>
</svg>
