<svg width="179" height="182" viewBox="0 0 179 182" fill="none" xmlns="http://www.w3.org/2000/svg">
<path d="M55 91C45.4894 87.0883 40.7709 83.8654 36 72" stroke="white" stroke-width="1.5" stroke-linecap="round" stroke-linejoin="round"/>
<path d="M11.2465 68.5791C10.3475 68.9158 9.44579 69.0229 8.54135 68.9004C7.6369 68.7779 6.82243 68.4166 6.09793 67.8166C5.36923 67.2054 4.81125 66.3829 4.424 65.349C4.0157 64.259 3.87919 63.1248 4.01446 61.9465C4.15676 60.7527 4.52092 59.7065 5.10693 58.8078C5.69997 57.8937 6.42351 57.2767 7.27757 56.9568C7.63717 56.8221 8.0122 56.7457 8.40265 56.7276C8.80435 56.7053 9.17723 56.7258 9.52131 56.7891C9.60565 56.6038 9.74895 56.4732 9.95123 56.3974C10.176 56.3132 10.3909 56.3225 10.5959 56.4251C10.7967 56.5164 10.9371 56.6689 11.0171 56.8824L11.4211 57.9612C11.5053 58.1859 11.4947 58.4142 11.3893 58.6459C11.2951 58.8734 11.13 59.0313 10.894 59.1197C10.6693 59.2039 10.453 59.208 10.2451 59.1321C10.0485 59.052 9.91658 58.922 9.84923 58.7422L9.80503 58.6242C9.22508 58.3417 8.54741 58.3456 7.77202 58.6361C7.21014 58.8465 6.74579 59.2832 6.37897 59.9459C6.00794 60.5975 5.79277 61.3572 5.73346 62.2252C5.68538 63.0889 5.81077 63.9198 6.10963 64.7176C6.37481 65.4256 6.75241 65.9889 7.24242 66.4076C7.72822 66.8151 8.26535 67.0688 8.85379 67.1688C9.44927 67.2533 10.0448 67.184 10.6404 66.9609C11.7304 66.5526 12.4547 65.7495 12.8133 64.5516C12.8682 64.3901 12.9377 64.2679 13.022 64.1851C13.1021 64.091 13.2096 64.0187 13.3445 63.9682C13.5804 63.8798 13.8066 63.8848 14.0228 63.9832C14.2461 64.0662 14.4062 64.2369 14.503 64.4953C14.5745 64.6864 14.5871 64.8739 14.5407 65.0579C14.3241 65.8822 13.927 66.6012 13.3496 67.2147C12.7791 67.8128 12.0781 68.2676 11.2465 68.5791Z" fill="white"/>
<path d="M17.8578 66.0835C17.6484 66.1747 17.4279 66.1676 17.1962 66.0622C16.9645 65.9567 16.8087 65.7973 16.7287 65.5838L13.0477 55.7565C12.9635 55.5318 12.9706 55.3113 13.069 55.095C13.1745 54.8633 13.3452 54.7033 13.5812 54.6149C13.8059 54.5307 14.0285 54.5434 14.249 54.6531C14.4765 54.7473 14.6323 54.9067 14.7165 55.1315L18.0629 64.0653L22.5341 62.0445C22.7659 61.9449 22.9899 61.9443 23.2062 62.0427C23.4182 62.1298 23.5705 62.297 23.6632 62.5442C23.7389 62.7465 23.7318 62.967 23.6418 63.2057C23.5589 63.429 23.4184 63.5842 23.2203 63.6712L17.8578 66.0835Z" fill="white"/>
<path d="M25.7604 63.0273C25.5244 63.1157 25.2926 63.1128 25.0651 63.0186C24.8447 62.909 24.6902 62.7362 24.6019 62.5002C24.5135 62.2642 24.5185 62.0381 24.6169 61.8218C24.7223 61.5901 24.893 61.43 25.129 61.3417L26.3089 60.8997L23.3414 52.9772L22.1614 53.4192C21.9254 53.5076 21.6916 53.4991 21.4599 53.3936C21.2394 53.284 21.085 53.1112 20.9966 52.8752C20.9082 52.6392 20.9132 52.4131 21.0116 52.1969C21.1212 51.9764 21.2941 51.822 21.53 51.7336L25.5587 50.2245C25.7947 50.1361 26.0208 50.1411 26.2371 50.2395C26.4533 50.3379 26.6056 50.5051 26.694 50.7411C26.7824 50.9771 26.7795 51.2088 26.6854 51.4363C26.5912 51.6638 26.4261 51.8218 26.1901 51.9102L25.027 52.3458L27.9945 60.2683L29.1576 59.8326C29.4049 59.74 29.6331 59.7506 29.8423 59.8645C30.0586 59.9629 30.2109 60.1301 30.2993 60.3661C30.3877 60.6021 30.3848 60.8338 30.2906 61.0613C30.1922 61.2775 30.025 61.4299 29.789 61.5183L25.7604 63.0273Z" fill="white"/>
<path d="M36.4157 59.1514C35.5167 59.4881 34.615 59.5952 33.7106 59.4727C32.8061 59.3502 31.9916 58.9889 31.2671 58.3889C30.5384 57.7777 29.9805 56.9552 29.5932 55.9213C29.1849 54.8313 29.0484 53.6971 29.1837 52.5188C29.326 51.325 29.6901 50.2788 30.2761 49.3801C30.8692 48.466 31.5927 47.849 32.4468 47.5291C32.8064 47.3944 33.1814 47.318 33.5719 47.2999C33.9736 47.2776 34.3464 47.2981 34.6905 47.3614C34.7749 47.1761 34.9182 47.0455 35.1204 46.9697C35.3452 46.8856 35.5601 46.8948 35.7651 46.9974C35.9659 47.0887 36.1063 47.2412 36.1863 47.4547L36.5904 48.5335C36.6745 48.7582 36.6639 48.9865 36.5585 49.2182C36.4643 49.4457 36.2992 49.6036 36.0632 49.692C35.8385 49.7762 35.6222 49.7803 35.4144 49.7044C35.2178 49.6243 35.0858 49.4943 35.0184 49.3145L34.9742 49.1965C34.3943 48.914 33.7166 48.9179 32.9412 49.2084C32.3794 49.4189 31.915 49.8555 31.5482 50.5183C31.1772 51.1698 30.962 51.9296 30.9027 52.7975C30.8546 53.6613 30.98 54.4921 31.2788 55.2899C31.544 55.9979 31.9216 56.5612 32.4116 56.98C32.8974 57.3874 33.4346 57.6412 34.023 57.7411C34.6185 57.8256 35.214 57.7563 35.8096 57.5332C36.8996 57.1249 37.624 56.3218 37.9826 55.1239C38.0374 54.9624 38.107 54.8402 38.1913 54.7574C38.2713 54.6633 38.3788 54.591 38.5137 54.5405C38.7497 54.4521 38.9758 54.4571 39.192 54.5555C39.4153 54.6385 39.5754 54.8092 39.6722 55.0677C39.7437 55.2587 39.7563 55.4462 39.7099 55.6302C39.4933 56.4545 39.0962 57.1735 38.5188 57.787C37.9483 58.3851 37.2473 58.8399 36.4157 59.1514Z" fill="white"/>
<path d="M49.3101 54.3407C49.1191 54.4123 48.9295 54.4192 48.7413 54.3616L42.3565 52.3515L43.5499 55.5373C43.6298 55.7508 43.6171 55.9734 43.5117 56.2051C43.4175 56.4326 43.258 56.5885 43.0333 56.6727C42.8085 56.7568 42.5824 56.7518 42.3549 56.6577C42.1344 56.548 41.9821 56.3808 41.8979 56.1561L38.2169 46.3289C38.1285 46.0929 38.1335 45.8667 38.2319 45.6505C38.3416 45.43 38.5088 45.2777 38.7335 45.1935C38.9583 45.1093 39.1788 45.1164 39.395 45.2148C39.6225 45.309 39.7805 45.4741 39.8688 45.7101L41.1064 49.0139L44.2307 43.3459C44.3375 43.1521 44.492 43.0173 44.6943 42.9415C44.9078 42.8616 45.1269 42.882 45.3516 43.0029C45.5833 43.1083 45.7391 43.2678 45.8191 43.4813C45.9117 43.7285 45.8941 43.9722 45.7662 44.2123L42.3109 50.4849L49.2602 52.668C49.5369 52.7566 49.7257 52.9357 49.8267 53.2054C49.9151 53.4414 49.9045 53.6696 49.7949 53.8901C49.6965 54.1063 49.5349 54.2566 49.3101 54.3407Z" fill="white"/>
<path d="M51.6561 50.2136C51.4313 50.2978 51.2052 50.2928 50.9777 50.1986C50.7573 50.089 50.6049 49.9218 50.5207 49.697L47.9447 42.8197C47.8605 42.5949 47.8655 42.3688 47.9597 42.1413C48.0651 41.9096 48.2302 41.7517 48.4549 41.6675C48.6909 41.5791 48.9192 41.5897 49.1396 41.6993C49.3601 41.809 49.5124 41.9761 49.5966 42.2009L52.1727 49.0783C52.2569 49.303 52.2518 49.5291 52.1577 49.7566C52.0593 49.9729 51.8921 50.1252 51.6561 50.2136ZM52.582 53.096C52.3235 53.1928 52.0763 53.1829 51.8404 53.0662C51.6157 52.9453 51.4529 52.75 51.3519 52.4803C51.2466 52.1994 51.2531 51.9087 51.3712 51.6082C51.4892 51.3076 51.6775 51.109 51.936 51.0122C52.1944 50.9154 52.4381 50.933 52.667 51.0651C52.9029 51.1818 53.0693 51.3693 53.1661 51.6278C53.2797 51.9312 53.2754 52.2276 53.1531 52.5168C53.0308 52.8061 52.8404 52.9992 52.582 53.096Z" fill="white"/>
</svg>
