<svg width="44" height="44" viewBox="0 0 44 44" fill="none" xmlns="http://www.w3.org/2000/svg">
<g clip-path="url(#clip0_686_6025)">
<path d="M43.0833 11.9295C42.8342 11.0407 42.3489 10.2361 41.679 9.60114C40.9902 8.94665 40.146 8.47848 39.226 8.24081C35.783 7.33331 21.989 7.33331 21.989 7.33331C16.2384 7.26788 10.4893 7.55565 4.774 8.19498C3.85402 8.4502 3.01137 8.92884 2.321 9.58831C1.64267 10.241 1.15134 11.0458 0.894669 11.9276C0.278106 15.2492 -0.0214623 18.6218 2.35217e-06 22C-0.0219976 25.3751 0.276836 28.7466 0.894669 32.0723C1.14584 32.9505 1.63534 33.7516 2.3155 34.3988C2.99567 35.046 3.84267 35.5135 4.774 35.761C8.26284 36.6666 21.989 36.6666 21.989 36.6666C27.7469 36.7322 33.5034 36.4444 39.226 35.805C40.146 35.5673 40.9902 35.0991 41.679 34.4446C42.3487 33.8098 42.8334 33.0051 43.0815 32.1163C43.7142 28.7961 44.0218 25.4221 44 22.0421C44.0476 18.6479 43.7404 15.258 43.0833 11.9276V11.9295ZM17.6037 28.2773V15.7245L29.0803 22.0018L17.6037 28.2773Z" fill="#FF1600"/>
</g>
<defs>
<clipPath id="clip0_686_6025">
<rect width="44" height="44" fill="white"/>
</clipPath>
</defs>
</svg>
