<svg width="122" height="174" viewBox="0 0 122 174" fill="none" xmlns="http://www.w3.org/2000/svg">
<g filter="url(#filter0_d_6934_2882)">
<path d="M86.7006 113.44C85.4859 113.44 84.3351 113.625 83.2057 113.912L67.2014 84.0931L94.5855 78.9795L67.1162 73.8659L77.0682 55.9374C78.1977 56.2044 79.3484 56.4097 80.5631 56.4097C88.4481 56.4097 94.8625 50.2488 94.8625 42.6297C94.8625 35.0106 88.4694 28.8496 80.5631 28.8496C72.6782 28.8496 66.2637 35.0106 66.2637 42.6297C66.2637 46.9424 68.3735 50.7622 71.5914 53.2882L61.0213 72.6337L44.2712 41.4386C47.5104 38.9126 49.5988 35.1133 49.5988 30.7801C49.5988 23.1815 43.2056 17 35.2994 17C27.4145 17 21 23.161 21 30.7801C21 38.3786 27.3932 44.5601 35.2994 44.5601C36.5141 44.5601 37.6649 44.3753 38.7943 44.0878L54.7986 73.9069L27.4145 79.0205L54.7347 84.1136L44.9318 102.083C43.8023 101.816 42.6516 101.611 41.4369 101.611C33.5519 101.611 27.1374 107.772 27.1374 115.391C27.1374 122.989 33.5306 129.171 41.4369 129.171C49.3218 129.171 55.7363 123.01 55.7363 115.391C55.7363 111.078 53.6265 107.258 50.4086 104.732L60.9148 85.2842L77.7288 116.561C74.4896 119.087 72.4012 122.887 72.4012 127.22C72.4012 134.818 78.7944 141 86.7006 141C94.5855 141 101 134.839 101 127.22C100.979 119.621 94.5855 113.44 86.7006 113.44Z" fill="white"/>
<path d="M101.495 127.59C101.292 135.33 94.7159 141.5 86.7002 141.5C78.5351 141.5 71.9014 135.111 71.9014 127.22C71.9014 122.868 73.9301 119.041 77.0908 116.432L60.9131 86.3369L51.0449 104.604C54.1859 107.214 56.2363 111.058 56.2363 115.391C56.2363 123.304 49.5795 129.671 41.4365 129.671C33.2714 129.671 26.6377 123.282 26.6377 115.391C26.6378 107.478 33.2938 101.111 41.4365 101.11C42.5697 101.11 43.6421 101.282 44.6738 101.511L53.9648 84.4785L27.3232 79.5117L27.3223 78.5293L54.0342 73.54L38.5361 44.6641C37.497 44.9059 36.4275 45.0605 35.2998 45.0605C27.1346 45.0605 20.5001 38.6717 20.5 30.7803C20.5 22.8673 27.1568 16.5 35.2998 16.5C43.4649 16.5002 50.0986 22.8889 50.0986 30.7803C50.0986 35.1324 48.0684 38.9581 44.9072 41.5674L61.0244 71.584L70.9521 53.4141C67.8127 50.8046 65.7637 46.9616 65.7637 42.6299C65.7637 34.7169 72.4205 28.3496 80.5635 28.3496C88.7281 28.3498 95.3623 34.7175 95.3623 42.6299C95.3622 50.5427 88.7062 56.91 80.5635 56.9102C79.4288 56.9102 78.3553 56.7375 77.3223 56.5078L67.8906 73.501L94.6768 78.4883L94.6777 79.4707L67.9648 84.459L83.4629 113.335C84.5022 113.093 85.5722 112.939 86.7002 112.939C94.845 112.939 101.478 119.329 101.5 127.219V127.22L101.495 127.59Z" stroke="#B9BBDA"/>
</g>
<defs>
<filter id="filter0_d_6934_2882" x="0" y="8" width="122" height="166" filterUnits="userSpaceOnUse" color-interpolation-filters="sRGB">
<feFlood flood-opacity="0" result="BackgroundImageFix"/>
<feColorMatrix in="SourceAlpha" type="matrix" values="0 0 0 0 0 0 0 0 0 0 0 0 0 0 0 0 0 0 127 0" result="hardAlpha"/>
<feOffset dy="12"/>
<feGaussianBlur stdDeviation="10"/>
<feComposite in2="hardAlpha" operator="out"/>
<feColorMatrix type="matrix" values="0 0 0 0 0.615313 0 0 0 0 0.697978 0 0 0 0 0.825 0 0 0 0.1 0"/>
<feBlend mode="normal" in2="BackgroundImageFix" result="effect1_dropShadow_6934_2882"/>
<feBlend mode="normal" in="SourceGraphic" in2="effect1_dropShadow_6934_2882" result="shape"/>
</filter>
</defs>
</svg>
