<svg width="280" height="281" viewBox="0 0 280 281" fill="none" xmlns="http://www.w3.org/2000/svg">
<rect width="280" height="280.862" rx="20" fill="#ECD3E5"/>
<path d="M95.7792 209.631C95.7792 209.631 94.31 249.769 93.2911 253.736C92.2723 257.703 40 279.916 40 279.916H239.646C239.646 279.916 182.842 259.852 181.314 255.258C179.786 250.665 179.748 212.375 179.748 212.375L95.7792 209.631Z" fill="url(#paint0_linear_6934_3952)"/>
<path d="M93.4895 252.568C93.4895 252.568 89.323 252.085 88.8672 252.568C88.4114 253.05 88.8672 256.32 88.8672 256.32L40 279.906H239.646L186.929 257.462C186.929 257.462 185.111 252.477 181.314 255.253L182.617 257.124C182.617 257.124 164.921 276.052 135.429 276.052C105.936 276.052 93.4895 252.568 93.4895 252.568Z" fill="url(#paint1_linear_6934_3952)"/>
<g style="mix-blend-mode:multiply" opacity="0.6">
<path d="M95.125 225.632C95.125 225.632 104.97 228.398 107.351 232.648C109.732 236.899 125.047 268.863 137.112 269.372C149.178 269.882 157.012 252.884 163.13 248.96C169.249 245.036 180.349 244.763 180.349 244.763L179.764 212.391L95.7792 209.62L95.125 225.632Z" fill="#D177B8"/>
</g>
<path style="mix-blend-mode:multiply" opacity="0.6" d="M152.878 231.635L149.768 263.492C149.768 263.492 157.275 255.092 161.093 248.971C164.911 242.849 172.08 218.883 172.08 218.883L152.878 231.635Z" fill="url(#paint2_linear_6934_3952)"/>
<path style="mix-blend-mode:multiply" opacity="0.6" d="M186.945 257.472C186.945 257.472 174.118 269.035 160.916 274.475C160.916 274.475 187.127 266.14 194.463 260.672L186.945 257.472Z" fill="url(#paint3_linear_6934_3952)"/>
<path style="mix-blend-mode:multiply" opacity="0.6" d="M88.8673 256.341C95.7039 262.971 103.067 269.036 110.885 274.476C110.885 274.476 94.2886 270.042 80.073 260.587L88.8673 256.341Z" fill="url(#paint4_linear_6934_3952)"/>
<g style="mix-blend-mode:multiply" opacity="0.6">
<path d="M101.185 262.259C101.185 262.259 114.564 274.476 137.761 274.476C160.959 274.476 174.971 263.492 174.971 263.492C174.971 263.492 159.018 276.062 135.488 276.062C111.958 276.062 101.185 262.259 101.185 262.259Z" fill="#D177B8"/>
</g>
<path d="M194.908 144.861C194.908 144.861 203.262 132.136 208.93 132.168C212.378 132.168 220.701 139.42 220.61 146.335C220.481 155.582 212.287 166.088 210.249 171.481C208.212 176.873 202.919 183.901 199.428 184.576C195.937 185.252 191.336 178.61 191.336 178.61C191.336 178.61 193.02 153.245 194.908 144.861Z" fill="url(#paint5_linear_6934_3952)"/>
<path style="mix-blend-mode:multiply" opacity="0.6" d="M195.524 158.396C195.524 158.396 209.241 141.463 214.228 141.463C219.215 141.463 219.221 151.112 217.204 156.59C215.81 160.401 213.092 165.896 213.092 165.896C213.092 165.896 215.236 159.999 215.505 155.571C215.901 148.769 214.389 143.827 212.673 143.843C209.515 143.843 207.027 148.174 206.63 149.707C206.233 151.24 209.129 157.951 208.362 162.626C207.595 167.3 204.791 169.09 203.858 168.554C202.924 168.018 204.367 162.776 203.514 160.905C202.662 159.034 200.2 156.317 198.753 156.912C197.305 157.507 195.524 158.396 195.524 158.396Z" fill="url(#paint6_linear_6934_3952)"/>
<path style="mix-blend-mode:multiply" opacity="0.6" d="M195.524 158.396C195.524 158.396 198.903 156.375 199.932 157.024C200.962 157.673 203.573 160.015 203.686 161.489C203.799 162.963 202.86 167.171 203.686 167.895C204.512 168.618 207.499 163.896 207.633 159.709C207.767 155.523 205.418 150.699 205.418 150.13C205.418 149.562 205.954 146.882 205.954 146.882C205.954 146.882 197.991 154.424 195.524 158.396Z" fill="url(#paint7_linear_6934_3952)"/>
<path d="M83.1561 144.861C83.1561 144.861 74.8069 132.136 69.1228 132.168C65.6748 132.168 57.3525 139.42 57.4436 146.335C57.5723 155.582 65.7606 166.088 67.8037 171.481C69.8467 176.873 75.134 183.901 78.6464 184.576C82.1587 185.252 86.7382 178.61 86.7382 178.61C86.7382 178.61 85.049 153.245 83.1561 144.861Z" fill="url(#paint8_linear_6934_3952)"/>
<path style="mix-blend-mode:multiply" opacity="0.6" d="M82.5288 158.396C82.5288 158.396 68.8119 141.463 63.8195 141.463C58.8271 141.463 58.8325 151.112 60.8434 156.59C62.2376 160.401 64.9617 165.896 64.9617 165.896C64.9617 165.896 62.8167 159.999 62.5486 155.571C62.1518 148.769 63.664 143.827 65.3799 143.843C68.5384 143.843 71.0265 148.174 71.418 149.707C71.8094 151.24 68.9245 157.951 69.6913 162.626C70.4581 167.3 73.2626 169.085 74.1957 168.576C75.1287 168.067 73.6594 162.797 74.5389 160.926C75.4183 159.056 77.8528 156.338 79.3006 156.933C80.7485 157.528 82.5288 158.396 82.5288 158.396Z" fill="url(#paint9_linear_6934_3952)"/>
<path style="mix-blend-mode:multiply" opacity="0.6" d="M82.5288 158.396C82.5288 158.396 79.1451 156.375 78.1156 157.024C77.086 157.673 74.4799 160.015 74.3619 161.489C74.2439 162.963 75.1931 167.171 74.3619 167.895C73.5307 168.618 70.5546 163.896 70.4206 159.709C70.2865 155.523 72.6299 150.699 72.6299 150.13C72.6299 149.562 72.0936 146.882 72.0936 146.882C72.0936 146.882 80.0782 154.424 82.5288 158.396Z" fill="url(#paint10_linear_6934_3952)"/>
<path d="M83.3708 179.57C82.2983 171.712 82.1321 165.343 81.2259 158.38C81.0275 156.853 80.8987 155.319 80.8505 153.781C80.7314 150.244 80.8802 146.703 81.2956 143.189C83.5531 118.145 79.7244 100.011 83.4673 92.8013C86.422 84.8733 103.437 65.4633 138.946 64.075C138.946 64.075 181.582 64.075 196.323 93.3159C199.68 100.124 196.243 122.685 197.83 139.19C198.302 144.095 199.342 149.568 198.608 154.44C197.294 163.097 197.133 172.751 196.012 181.076C194.624 191.422 192.623 198.878 190.999 202.754C190.077 204.727 188.84 206.538 187.336 208.114C182.703 213.33 175.335 218.835 170.343 223.949C168.581 225.751 166.679 227.411 164.653 228.912H164.627C161.972 230.921 159.093 232.614 156.047 233.956C151.29 235.913 138.957 235.913 138.957 235.913C138.957 235.913 126.624 235.913 121.867 233.956C116.512 231.549 111.662 228.148 107.576 223.932C101.678 217.859 94.0365 211.271 89.9236 205.262C89.9129 205.332 86.111 201.172 83.3708 179.57Z" fill="url(#paint11_linear_6934_3952)"/>
<path style="mix-blend-mode:multiply" opacity="0.6" d="M192.05 165.585C191.739 171.052 191.717 173.85 190.618 179.457C186.526 200.443 184.001 202.791 174.97 214.949C172.402 219.617 160.953 230.821 160.17 231.539C162.02 230.161 167.763 225.943 169.651 224.002C176.408 217.034 187.947 209.985 190.757 203.29C192.366 199.414 194.682 190.269 196.146 179.999C197.685 166.764 198.291 158.82 198.828 151.171C199.015 148.651 198.543 145.698 198.243 143.189C195.98 129.139 199.637 98.8908 196.291 93.3375C195.412 90.9735 190.827 83.93 185.4 79.6738C186.8 82.949 185.427 99.1856 185.132 103.833C184.837 108.481 189.004 118.306 189.004 118.306L157.167 117.561C153.612 121.191 151.341 125.884 150.7 130.924C150.025 136.778 151.328 143.543 151.328 143.543C151.328 143.543 156.878 157.051 178.676 153.004C181.12 152.515 183.658 152.872 185.872 154.017C188.832 155.609 191.964 158.857 192.05 165.585Z" fill="url(#paint12_linear_6934_3952)"/>
<path style="mix-blend-mode:multiply" opacity="0.6" d="M87.3925 164.148C87.6906 169.727 88.3696 175.279 89.4248 180.765C93.5217 201.751 95.5755 202.904 104.606 215.072C107.174 219.741 118.623 230.944 119.406 231.662C117.556 230.284 111.807 226.066 109.925 224.125C103.169 217.157 91.6288 210.108 88.8189 203.413C87.2102 199.537 84.8936 190.392 83.4565 180.122C81.9122 166.887 81.3116 158.943 80.7485 151.294C80.5609 148.774 81.0381 145.821 81.3384 143.312C83.596 129.263 79.9442 99.0139 83.2903 93.4605C84.1697 91.0966 88.7545 84.053 94.1812 79.7969C92.7817 83.0721 94.1544 99.3087 94.4494 103.956C94.7443 108.604 90.4276 118.36 90.4276 118.36L122.414 117.706C125.952 121.329 128.212 126.008 128.849 131.031C129.53 136.885 128.227 143.65 128.227 143.65C128.227 143.65 122.822 157.405 100.343 152.87C98.3013 152.439 96.1822 152.56 94.2027 153.218C91.055 154.306 87.4837 157.094 87.3925 164.148Z" fill="url(#paint13_linear_6934_3952)"/>
<g style="mix-blend-mode:multiply" opacity="0.6">
<path d="M187.32 208.167C182.687 213.383 175.319 218.888 170.327 224.002C168.565 225.805 166.662 227.465 164.637 228.966H164.61C161.956 230.974 159.077 232.667 156.031 234.01C151.274 235.966 138.941 235.966 138.941 235.966C138.941 235.966 126.607 235.966 121.851 234.01C116.496 231.603 111.646 228.201 107.56 223.986C101.662 217.913 93.5324 210.585 89.4194 204.592C93.3085 208.873 97.4847 212.885 101.919 216.599C108.992 222.469 120.907 234.498 138.919 234.498C156.932 234.498 170.021 221.038 172.82 218.995C175.619 216.953 186.95 208.457 187.32 208.167Z" fill="#D177B8"/>
</g>
<path d="M179.051 115.99C180.442 116.147 181.818 116.418 183.164 116.8C183.164 116.8 182.848 116.559 182.864 116.376C182.864 116.376 183.524 116.285 185.427 117.641C185.937 118.006 186.537 118.472 187.24 119.078L187.947 119.7C188.828 120.472 189.605 121.355 190.259 122.326C191.808 124.69 191.497 125.854 191.497 125.854C190.762 125.747 190.052 125.51 189.401 125.151C184.023 122.497 177.945 121.608 172.032 122.611C167.453 123.377 161.919 124.589 157.913 124.653C157.184 124.671 156.455 124.64 155.73 124.562C155.73 124.562 151.478 124.165 149.912 118.451C149.671 117.379 150.154 117.116 150.154 117.116L151.087 117.347C151.087 117.347 151.623 120.07 153.553 120.08C153.553 120.08 152.572 118.253 152.652 116.864C156.503 116.269 160.385 115.897 164.278 115.749C169.2 115.39 174.144 115.471 179.051 115.99Z" fill="url(#paint14_linear_6934_3952)"/>
<g style="mix-blend-mode:multiply" opacity="0.6">
<path d="M173.587 115.556C161.597 118.847 155.355 124.449 155.355 124.449C160.567 125.521 171.383 122.079 177.421 122.203C182.338 122.349 187.159 123.596 191.529 125.853C191.529 125.853 190.457 123.521 189.052 122.733C184.982 121.399 179.571 120.198 178.054 119.699C176.37 119.163 182.816 118.697 186.805 118.627C186.202 118.113 185.566 117.639 184.902 117.207L182.724 117.357C176.359 117.775 167.109 120.632 166.83 120.729C170.177 118.701 173.736 117.045 177.443 115.792L173.587 115.556Z" fill="#AB8BC6"/>
</g>
<path d="M99.2164 116.022C97.8261 116.182 96.4507 116.453 95.1035 116.832C95.1035 116.832 95.4199 116.596 95.4092 116.408C95.4092 116.408 94.7442 116.323 92.8406 117.673C92.3312 118.038 91.7306 118.51 91.0281 119.115C90.8029 119.303 90.5669 119.512 90.3203 119.737C89.4403 120.506 88.6651 121.388 88.0145 122.358C86.4647 124.722 86.7758 125.891 86.7758 125.891C87.5096 125.785 88.2182 125.547 88.8671 125.189C94.2434 122.531 100.323 121.642 106.236 122.648C110.815 123.414 116.349 124.626 120.355 124.685C121.084 124.708 121.813 124.678 122.537 124.594C122.537 124.594 126.79 124.202 128.355 118.488C128.597 117.416 128.114 117.153 128.114 117.153L127.181 117.379C127.181 117.379 126.645 120.107 124.714 120.118C124.714 120.118 125.696 118.285 125.615 116.902C121.765 116.306 117.883 115.932 113.99 115.781C109.068 115.422 104.124 115.503 99.2164 116.022Z" fill="url(#paint15_linear_6934_3952)"/>
<g style="mix-blend-mode:multiply" opacity="0.6">
<path d="M104.691 115.567C116.682 118.864 122.923 124.46 122.923 124.46C117.717 125.532 106.895 122.09 100.863 122.219C95.9458 122.364 91.1243 123.612 86.7544 125.87C86.7544 125.87 87.8269 123.538 89.2264 122.75C93.2965 121.415 98.7071 120.214 100.225 119.71C101.908 119.174 95.4629 118.713 91.4733 118.638C92.0753 118.123 92.7112 117.648 93.3769 117.218L95.5594 117.368C101.919 117.781 111.169 120.643 111.448 120.74C108.089 118.707 104.516 117.051 100.793 115.803L104.691 115.567Z" fill="#AB8BC6"/>
</g>
<path d="M156.728 173.143C156.09 175.04 149.339 174.343 147.451 175.18C145.542 175.839 142.625 178.787 139.477 178.787C136.158 178.787 133.729 176.289 131.836 175.453C129.943 174.617 122.87 175.04 122.232 173.143C120.918 169.246 122.452 166.405 124.286 164.566C125.066 163.791 125.937 163.115 126.881 162.551C127.719 162.034 128.488 161.415 129.171 160.707C131.245 158.632 133.811 157.118 136.63 156.306C138.49 155.754 140.47 155.754 142.33 156.306C145.148 157.117 147.712 158.632 149.784 160.707C150.467 161.416 151.238 162.036 152.079 162.551C153.062 163.145 153.963 163.866 154.76 164.695C156.567 166.523 158.015 169.326 156.728 173.143Z" fill="url(#paint16_linear_6934_3952)"/>
<g style="mix-blend-mode:multiply" opacity="0.6">
<path d="M156.728 173.143C156.09 175.04 149.145 174.419 147.258 175.255C145.37 176.091 142.298 178.787 139.477 178.787C136.26 178.787 133.729 176.289 131.836 175.453C129.943 174.617 122.87 175.04 122.232 173.143C120.918 169.246 122.452 166.405 124.286 164.566C121.122 170.575 123.213 172.371 124.286 172.441C125.358 172.51 128.892 171.331 131.836 171.905C134.78 172.478 135.922 173.218 139.343 173.218C142.764 173.218 143.89 172.457 146.85 171.905C149.81 171.352 153.285 172.526 154.401 172.441C155.516 172.355 158.342 170.254 154.401 164.561L154.808 164.679C156.567 166.523 158.015 169.326 156.728 173.143Z" fill="#D077B7"/>
</g>
<path style="mix-blend-mode:multiply" opacity="0.5" d="M152.867 174.558C148.507 171.99 147.306 175.233 147.306 175.233L152.867 174.558Z" fill="url(#paint17_linear_6934_3952)"/>
<path style="mix-blend-mode:multiply" opacity="0.5" d="M125.653 174.585C130.012 172.012 131.192 175.255 131.192 175.255L125.653 174.585Z" fill="url(#paint18_linear_6934_3952)"/>
<path style="mix-blend-mode:multiply" opacity="0.6" d="M126.35 162.867C128.495 162.969 127.659 167.327 127.659 167.327C127.659 167.327 129.353 163.923 128.13 161.639L126.35 162.867Z" fill="url(#paint19_linear_6934_3952)"/>
<path style="mix-blend-mode:multiply" opacity="0.6" d="M152.465 162.867C150.32 162.969 151.156 167.327 151.156 167.327C151.156 167.327 149.462 163.923 150.684 161.639L152.465 162.867Z" fill="url(#paint20_linear_6934_3952)"/>
<path opacity="0.7" d="M143.236 167.327C142.983 167.687 142.848 168.117 142.848 168.557C142.848 168.997 142.983 169.427 143.236 169.787C143.424 170.205 145.681 170.205 145.869 169.787C146.057 169.369 146.057 167.364 145.869 167.327C145.681 167.289 143.563 166.812 143.236 167.327Z" fill="#FFCDBD"/>
<g style="mix-blend-mode:multiply" opacity="0.6">
<path d="M122.039 173.641C122.039 173.641 121.996 172.719 123.781 172.489C125.567 172.258 128.431 171.25 132.082 171.953C135.579 172.794 136.56 173.078 139.445 173.234C143.762 173.068 146.979 171.342 149.58 171.711C152.368 172.06 153.677 172.483 154.792 172.483C155.907 172.483 156.545 173.019 156.642 173.727C156.738 174.435 148.926 183.376 139.429 183.376C129.932 183.376 122.039 173.641 122.039 173.641Z" fill="#D177B8"/>
</g>
<path d="M125.814 139.878C125.889 142.161 116.875 145.324 108.655 146.128C100.761 146.905 95.935 144.204 95.6187 139.738C95.3023 135.273 100.397 131.58 109.084 131.124C118.591 130.62 127.632 137.391 125.814 139.878Z" fill="url(#paint21_linear_6934_3952)"/>
<path d="M125.497 137.666C125.497 137.666 127.052 139.971 124.425 141.628C124.425 141.628 127.02 141.059 127.042 139.971C127.063 138.883 125.497 137.666 125.497 137.666Z" fill="#C66D82"/>
<path d="M111.957 145.182C116.367 145.182 119.942 141.462 119.942 136.873C119.942 132.285 116.367 128.565 111.957 128.565C107.548 128.565 103.973 132.285 103.973 136.873C103.973 141.462 107.548 145.182 111.957 145.182Z" fill="url(#paint22_linear_6934_3952)"/>
<path d="M111.957 144.702C116.109 144.702 119.475 141.198 119.475 136.876C119.475 132.554 116.109 129.05 111.957 129.05C107.805 129.05 104.439 132.554 104.439 136.876C104.439 141.198 107.805 144.702 111.957 144.702Z" fill="url(#paint23_linear_6934_3952)"/>
<path style="mix-blend-mode:multiply" d="M107.196 137.844C107.301 138.486 107.533 139.101 107.878 139.653C108.224 140.204 108.676 140.681 109.209 141.055C109.741 141.43 110.343 141.694 110.979 141.833C111.615 141.972 112.272 141.983 112.912 141.864C114.207 141.575 115.337 140.79 116.06 139.678C116.782 138.565 117.04 137.214 116.778 135.914C116.673 135.272 116.441 134.658 116.095 134.107C115.749 133.556 115.297 133.079 114.764 132.705C114.232 132.33 113.631 132.066 112.995 131.927C112.359 131.787 111.702 131.776 111.062 131.894C109.769 132.186 108.641 132.971 107.918 134.083C107.196 135.194 106.937 136.544 107.196 137.844Z" fill="url(#paint24_linear_6934_3952)"/>
<path d="M122.601 142.621C122.601 142.621 116.167 146.421 106.439 146.416C98.444 146.416 96.4116 142.31 96.4116 142.31C96.4116 142.31 105.79 146.577 122.601 142.621Z" fill="#A86D7E"/>
<path d="M124.634 136.087C124.634 136.087 122.307 125.452 108.3 127.918C98.1438 129.703 95.8862 136.875 95.8862 136.875C95.8862 136.875 112.295 128.148 122.564 134.95C122.886 134.977 125.39 137.668 124.634 136.087Z" fill="#CE8D8D"/>
<path d="M124.446 136.551C124.446 136.551 119.39 132.386 109.469 134.134C99.5488 135.881 94.6047 140.218 94.6047 140.218C94.6047 140.218 94.9908 137.64 95.3018 137.109C95.6129 136.578 115.657 126.195 124.446 136.551Z" fill="#270039"/>
<path d="M124.403 135.325C124.403 135.325 117.738 125.858 107.667 127.986C107.667 127.986 120.162 124.186 124.403 135.325Z" fill="#A86D7E"/>
<g style="mix-blend-mode:multiply" opacity="0.6">
<path d="M108.204 132.614C120.215 131.124 124.446 136.554 124.446 136.554C124.446 136.554 117.357 131.73 96.0256 141.566C96.0256 141.566 95.2642 140.06 95.9506 137.696C95.9666 137.696 102.584 133.311 108.204 132.614Z" fill="#B42F97"/>
</g>
<path d="M107.764 138.583C108.3 138.047 109.132 137.828 109.282 138.047C109.432 138.267 108.831 138.985 108.429 139.119C108.027 139.253 107.464 138.873 107.764 138.583Z" fill="white"/>
<path d="M106.38 139.074C107.002 139.074 104.879 140.467 103.029 141.046C101.372 141.582 100.321 141.379 100.396 141.186C100.471 140.993 103.919 139.127 106.38 139.074Z" fill="white"/>
<path d="M127.573 140.106C127.573 140.106 119.674 151.261 106.123 148.897C106.123 148.897 123.031 153.186 127.573 140.106Z" fill="url(#paint25_linear_6934_3952)"/>
<path d="M154.218 139.878C154.138 142.161 163.157 145.324 171.378 146.128C179.309 146.905 184.097 144.204 184.43 139.738C184.762 135.273 179.652 131.58 170.965 131.124C161.441 130.62 152.401 137.391 154.218 139.878Z" fill="url(#paint26_linear_6934_3952)"/>
<path d="M154.535 137.666C154.535 137.666 152.98 139.971 155.607 141.628C155.607 141.628 153.012 141.059 152.99 139.971C152.969 138.883 154.535 137.666 154.535 137.666Z" fill="#C66D82"/>
<path d="M168.069 145.182C172.479 145.182 176.054 141.462 176.054 136.873C176.054 132.285 172.479 128.565 168.069 128.565C163.659 128.565 160.084 132.285 160.084 136.873C160.084 141.462 163.659 145.182 168.069 145.182Z" fill="url(#paint27_linear_6934_3952)"/>
<path d="M168.069 144.702C172.221 144.702 175.587 141.198 175.587 136.876C175.587 132.554 172.221 129.05 168.069 129.05C163.917 129.05 160.551 132.554 160.551 136.876C160.551 141.198 163.917 144.702 168.069 144.702Z" fill="url(#paint28_linear_6934_3952)"/>
<path style="mix-blend-mode:multiply" d="M172.857 137.844C172.753 138.486 172.522 139.102 172.176 139.654C171.831 140.205 171.379 140.683 170.846 141.057C170.314 141.432 169.711 141.696 169.075 141.835C168.439 141.973 167.781 141.983 167.141 141.864C165.847 141.574 164.719 140.788 163.997 139.676C163.275 138.564 163.018 137.214 163.28 135.914C163.386 135.272 163.618 134.658 163.964 134.107C164.31 133.556 164.762 133.079 165.294 132.705C165.827 132.33 166.428 132.066 167.064 131.927C167.699 131.787 168.357 131.776 168.997 131.894C170.29 132.184 171.419 132.97 172.141 134.082C172.862 135.194 173.12 136.544 172.857 137.844Z" fill="url(#paint29_linear_6934_3952)"/>
<path d="M157.43 142.621C157.43 142.621 163.865 146.421 173.587 146.416C181.588 146.416 183.62 142.31 183.62 142.31C183.62 142.31 174.225 146.577 157.43 142.621Z" fill="#A86D7E"/>
<path d="M155.398 136.087C155.398 136.087 157.72 125.452 171.732 127.918C181.888 129.703 184.146 136.875 184.146 136.875C184.146 136.875 167.732 128.148 157.468 134.95C157.146 134.977 154.642 137.668 155.398 136.087Z" fill="#CE8D8D"/>
<path d="M155.585 136.551C155.585 136.551 160.642 132.386 170.562 134.134C180.483 135.881 185.421 140.218 185.421 140.218C185.421 140.218 185.041 137.64 184.73 137.109C184.419 136.578 164.369 126.195 155.585 136.551Z" fill="#270039"/>
<path d="M155.624 135.325C155.624 135.325 162.289 125.858 172.365 127.986C172.365 127.986 159.865 124.186 155.624 135.325Z" fill="#A86D7E"/>
<g style="mix-blend-mode:multiply" opacity="0.6">
<path d="M171.828 132.614C159.816 131.124 155.585 136.554 155.585 136.554C155.585 136.554 162.674 131.73 184.006 141.566C184.006 141.566 184.767 140.06 184.081 137.696C184.065 137.696 177.442 133.311 171.828 132.614Z" fill="#B42F97"/>
</g>
<path d="M172.268 138.583C171.731 138.047 170.9 137.828 170.75 138.047C170.6 138.267 171.201 138.985 171.603 139.119C172.005 139.253 172.563 138.873 172.268 138.583Z" fill="white"/>
<path d="M173.652 139.074C173.03 139.074 175.148 140.467 177.003 141.046C178.66 141.582 179.711 141.379 179.636 141.186C179.561 140.993 176.113 139.127 173.652 139.074Z" fill="white"/>
<path d="M152.465 140.106C152.465 140.106 160.369 151.261 173.914 148.897C173.914 148.897 157.001 153.186 152.465 140.106Z" fill="url(#paint30_linear_6934_3952)"/>
<path d="M160.524 187.23C160.524 187.23 162.97 189.176 164.047 190.698C164.047 190.698 164.407 187.991 163.329 186.619C162.251 185.246 160.524 187.23 160.524 187.23Z" fill="#683E4D"/>
<path d="M118.387 187.23C118.387 187.23 115.942 189.176 114.864 190.698C114.864 190.698 114.505 187.991 115.582 186.619C116.66 185.246 118.387 187.23 118.387 187.23Z" fill="#683E4D"/>
<path style="mix-blend-mode:multiply" opacity="0.6" d="M170.235 180.744C163.071 169.583 156.197 166.41 156.197 166.41L156.776 167.659L170.235 180.744Z" fill="url(#paint31_linear_6934_3952)"/>
<path style="mix-blend-mode:multiply" opacity="0.6" d="M108.086 180.347C115.674 169.465 122.65 166.78 122.65 166.78L121.803 168.088L108.086 180.347Z" fill="url(#paint32_linear_6934_3952)"/>
<path d="M116.596 188.415C116.596 188.415 128.12 191.025 139.574 191.025C147.15 190.92 154.696 190.045 162.096 188.415C162.096 188.415 149.301 205.906 138.56 205.906C127.819 205.906 116.596 188.415 116.596 188.415Z" fill="#543843"/>
<path d="M139.37 189.17C136.388 189.17 116.617 188.415 116.617 188.415C122.21 191.7 131.911 193.636 139.37 193.636C146.829 193.636 156.529 191.7 162.117 188.415C162.096 188.415 142.33 189.17 139.37 189.17Z" fill="#BE6462"/>
<path d="M122.65 191.009C122.65 191.009 122.811 192.033 122.939 192.89C122.939 192.89 129.535 197.827 139.767 197.827C147.633 197.827 155.773 193.003 155.773 193.003L156.127 191.02C156.127 191.02 139.788 196.482 122.65 191.009Z" fill="#FFDFED"/>
<g style="mix-blend-mode:multiply" opacity="0.6">
<path d="M121.797 199.366C121.797 199.366 127.036 211.116 140.239 211.116C150.963 211.116 157.216 199.366 157.216 199.366C157.216 199.366 141.279 205.696 121.797 199.366Z" fill="#D077B7"/>
</g>
<path d="M116.596 188.415C116.596 188.415 126.313 200.593 139.348 200.593C152.384 200.593 162.096 188.415 162.096 188.415C162.096 188.415 160.524 206.608 139.574 206.608C118.623 206.608 116.596 188.415 116.596 188.415Z" fill="#D87C7A"/>
<g style="mix-blend-mode:soft-light">
<path d="M143.944 202.324L144.614 205.691C146.508 205.488 148.358 204.985 150.094 204.201C153.446 202.55 155.065 201.236 156.615 199.376L155.232 198.176C155.232 198.176 151.301 202.008 143.944 202.324Z" fill="#F2BBAA"/>
</g>
<path d="M137.815 180.165C135.305 179.039 129.707 176.263 128.978 176.263C127.09 176.263 111.85 177.999 107.689 182.331C105.292 185.113 105.517 194.418 105.517 194.418C105.517 194.418 93.822 188.892 89.4302 184.185C83.5316 177.512 82.0838 162.074 81.8907 156.74C81.6977 152.007 82.0891 144.256 82.5503 138.397C82.4645 136.145 82.0891 131.964 82.0891 131.964C82.0891 131.964 77.8261 153.208 80.6896 174.44C81.4135 179.8 85.3709 198.91 87.489 205.386C90.6475 215.034 92.2723 218.846 94.621 222.416C97.1306 226.232 99.5704 228.36 103.898 232.364C107.13 235.258 110.771 237.66 114.703 239.494C121.097 242.536 127.987 244.401 135.042 244.999C137.568 245.224 138.984 245.267 139.37 245.278H139.482C139.869 245.278 141.284 245.224 143.81 244.999C150.866 244.401 157.756 242.536 164.149 239.494C168.085 237.655 171.728 235.245 174.96 232.343C179.293 228.339 181.732 226.211 184.242 222.394C186.591 218.824 188.21 215.018 191.369 205.364C193.514 198.889 197.879 178.97 198.608 173.588C201.466 152.355 197.895 139.962 197.895 139.962C197.895 139.962 198.463 154.612 198.077 158.391C197.621 162.856 196.146 179.993 190.709 184.625C186.237 189.256 173.335 194.413 173.335 194.413C173.335 194.413 173.566 185.107 171.19 182.325C168.954 178.782 151.789 176.257 149.902 176.257C149.178 176.257 143.601 179.088 141.07 180.16C140.564 180.409 140.007 180.54 139.443 180.541C138.879 180.541 138.322 180.413 137.815 180.165ZM140.786 185.568C141.499 186.008 142.796 187.712 145.537 188.125C148.368 188.125 148.572 186.592 151.355 187.203C157.72 188.184 156.535 187.696 160.841 186.764C161.261 186.675 161.696 186.681 162.114 186.779C162.532 186.878 162.923 187.067 163.26 187.333C163.596 187.6 163.87 187.937 164.062 188.321C164.254 188.706 164.359 189.127 164.369 189.556C164.509 195.217 164.235 197.211 163.055 202.448C160.632 210.564 157.548 216.792 150.856 217.125C150.249 217.143 149.656 216.945 149.183 216.566C148.709 216.187 148.386 215.651 148.271 215.056C147.88 212.772 148.593 212.488 150.459 210.848C151.709 209.776 151.414 206.608 149.703 206.629C146.454 206.667 144.775 208.055 139.45 207.926H139.402C134.083 208.055 133.965 207.096 130.742 206.608C129.047 206.35 127.835 208.956 129.047 210.317C130.876 212.381 131.391 214.139 129.557 216.176C129.239 216.538 128.811 216.786 128.339 216.884C120.966 218.368 117.92 211.437 115.341 202.829C114.161 197.586 114.001 195.485 114.145 189.824C114.187 189.365 114.322 188.918 114.542 188.513C114.762 188.107 115.062 187.75 115.424 187.464C115.786 187.177 116.203 186.968 116.649 186.847C117.094 186.727 117.56 186.698 118.017 186.764C122.307 187.696 121.197 188.232 127.562 187.257C131.133 186.41 130.522 188.661 134.12 188.034C136.222 187.67 137.273 186.115 137.911 185.568C138.33 185.266 138.832 185.104 139.348 185.104C139.864 185.104 140.367 185.266 140.786 185.568Z" fill="url(#paint33_linear_6934_3952)"/>
<path style="mix-blend-mode:multiply" opacity="0.6" d="M191.991 196.428C190.253 205.825 181.732 219.478 181.732 219.478C180.124 221.113 175.512 226.446 171.008 229.271C169.961 229.901 168.855 230.425 167.705 230.837C168.867 229.013 169.842 227.077 170.616 225.058C175.442 211.561 172.498 198.047 172.193 199.784C171.887 201.521 172.622 207.556 169.614 215.356C169.329 216.106 169.002 216.889 168.648 217.693C166.6 222.373 164.707 226.843 160.916 230.268C158.396 232.547 156.626 233.737 153.232 234.637C150.813 235.275 148.942 229.775 147.306 227.256C144.486 222.968 135.917 223.209 132.57 227.074C130.388 229.598 128.479 235.114 125.455 234.937C124.779 234.891 124.113 234.753 123.476 234.525C121.1 233.71 120.232 233.302 118.891 231.785C117.899 230.665 116.918 229.979 116.28 228.623C111.807 222.641 108.29 205.895 108.29 205.895C108.29 205.895 108.327 211.861 109.11 215.211C109.893 218.561 111.437 224.152 111.437 224.152C112.639 228.274 114.011 229.641 114.119 229.882C113.271 229.421 112.665 229.282 111.437 228.65C103.603 224.672 98.3425 218.969 94.1062 211.271C93.542 210.279 93.0475 209.249 92.6262 208.189C90.9799 203.718 86.8724 192.108 85.8696 187.048C85.1731 183.827 83.9016 180.758 82.116 177.989L83.3011 185.305C83.3011 185.305 86.5721 202.512 87.5159 205.359C88.4596 208.205 92.1329 219.923 96.042 224.356C98.5555 227.353 101.318 230.133 104.3 232.664C104.3 232.664 110.885 239.311 124.393 243.064C124.393 243.064 142.158 248.547 158.766 241.761C166.3 239.617 174.418 232.916 174.418 232.916L180.038 227.556C180.038 227.556 184.864 221.413 187.089 217.125C189.315 212.836 192.13 202.689 192.13 202.689L194.398 190.698L194.817 182.743C194.817 182.743 193.723 187.031 191.991 196.428Z" fill="url(#paint34_linear_6934_3952)"/>
<path opacity="0.38" d="M105.587 220.083C100.924 216.754 97.7623 211.721 96.7874 206.077C96.7874 206.077 99.1843 212.509 105.587 220.083Z" fill="#3A2A1B"/>
<path opacity="0.38" d="M99.0877 200.438C98.1493 207.706 104.707 217.253 104.707 217.253L99.0877 200.438Z" fill="#3A2A1B"/>
<path opacity="0.38" d="M185.256 205.932L175.501 219.585C175.501 219.585 181.003 216.203 185.256 205.932Z" fill="#3A2A1B"/>
<path opacity="0.38" d="M175.448 217.178C183.593 205.669 180.96 196.777 180.96 196.777L175.448 217.178Z" fill="#3A2A1B"/>
<path d="M201.948 91.9007C201.251 87.2113 199.608 82.7124 197.119 78.6766C194.63 74.6408 191.348 71.1522 187.47 68.4222C180.499 63.5442 173.212 61.4054 170.171 60.3816C168.605 57.2618 167.704 55.4608 164.675 52.877C161.446 50.109 157.664 48.0621 153.58 46.8734C140.683 43.089 129.38 45.7209 120.087 48.7603C116.007 50.1421 112.067 51.9083 108.322 54.0349L107.941 54.1046C99.8974 55.7556 91.9343 61.384 91.9343 61.384L92.626 61.116C88.5667 63.2385 84.9559 66.1253 81.9925 69.6175C84.991 67.6605 88.1976 66.0425 91.5535 64.7932C89.4183 66.3878 87.3739 68.1005 85.4297 69.9231C76.984 77.6742 74.941 89.3009 75.2413 92.5814C75.5415 95.862 77.4827 137.641 77.4827 137.641L81.6493 146.255C81.5779 141.936 82.0663 137.626 83.1025 133.433C84.8506 125.977 86.8883 116.735 86.8883 113.155C86.8883 109.574 86.5987 98.971 87.1832 94.7953C87.7677 90.6195 89.2209 82.5736 98.2458 76.9077C107.271 71.2417 117.18 70.3466 121.256 70.9416C125.331 71.5366 126.645 73.3591 131.219 74.8386C139.611 77.5563 159.35 80.2901 168.943 73.0857C184.376 76.9184 190.553 84.9965 193.074 96.1354C194.237 105.677 198.307 143.21 198.307 143.21L202.554 135.706L203.536 124.272C203.536 124.272 204.442 108.287 201.948 91.9007Z" fill="url(#paint35_linear_6934_3952)"/>
<g style="mix-blend-mode:soft-light" opacity="0.5">
<path d="M139.734 51.3762C143.299 52.5859 146.982 53.4124 150.722 53.842C154.523 54.2197 158.353 53.4939 161.752 51.7514L164.058 53.6812C164.471 53.649 166.503 58.1142 165.892 61.2661C164.604 59.7018 162.806 58.6409 160.814 58.2697C157.511 57.68 149.735 60.7783 149.735 60.7783C149.735 60.7783 146.03 53.783 139.734 51.3762Z" fill="#FFD7D7"/>
</g>
<g style="mix-blend-mode:multiply" opacity="0.6">
<path d="M161.184 59.4167C161.184 59.4167 160.567 53.3863 154.245 49.6715C143.788 43.5339 128.581 46.2409 128.581 46.2409C128.581 46.2409 143.515 42.8692 153.575 48.385C162.015 53.0379 161.184 59.4167 161.184 59.4167Z" fill="#AB8BC6"/>
</g>
<g style="mix-blend-mode:multiply" opacity="0.6">
<path d="M91.9344 64.627C91.5836 64.7189 91.2516 64.8713 90.9531 65.0772C91.282 64.9236 91.6091 64.7735 91.9344 64.627Z" fill="#AB8BC6"/>
</g>
<g style="mix-blend-mode:multiply" opacity="0.6">
<path d="M185.148 81.0996L185.073 81.0298C185.095 81.0563 185.12 81.0798 185.148 81.0996Z" fill="#AB8BC6"/>
</g>
<g style="mix-blend-mode:multiply" opacity="0.6">
<path d="M176.086 71.9064C174.402 71.097 173.882 70.0946 173.753 69.3495C173.5 67.6745 173.033 66.0388 172.364 64.4823C170.139 60.2476 168.128 54.3244 161.398 50.3202C162.932 51.6013 168.836 57.3208 168.933 65.7956C168.964 67.105 168.553 68.3869 167.767 69.435C166.981 70.4831 165.866 71.2365 164.6 71.5741C164.303 71.6764 163.982 71.6894 163.677 71.6116C162.718 71.2096 164.294 59.9099 150.877 51.6763C153.864 54.0724 162.181 63.9731 159.366 70.7915C157.79 71.9098 155.887 72.4753 153.955 72.3996C153.955 72.3996 149.328 58.4626 141.359 52.7109C133.53 47.0557 118.918 51.1778 118.441 51.3493L116.805 52.3303C117.808 51.9926 130.613 47.6936 137.22 52.9307C147.794 60.8694 147.177 73.1393 147.177 73.1393C146.867 73.2837 146.532 73.3674 146.191 73.3859C144.212 61.1642 131.466 51.8371 114.869 52.9307C106.397 53.5773 98.2772 56.596 91.4411 61.6413C96.1224 58.1088 102.52 55.8842 109.11 55.0373C117.69 53.9331 126.613 55.1499 132.522 58.8271C141.204 64.225 141.987 71.2203 142.003 73.4341C139.97 73.3162 137.177 73.0214 133.353 72.4103C129.412 71.8743 126.382 68.8993 126.382 68.8993C126.382 68.8993 111.55 55.9861 91.9505 64.6485C94.8837 63.764 102.407 63.7747 108.451 64.9272C108.451 64.9272 88.3256 72.5229 87.9609 90.6571C91.0604 79.545 95.6184 79.0411 100.439 75.1816C108.638 71.2685 116.033 69.9231 122.21 70.9952C130.023 73.9327 134.715 76.704 143.66 77.1918C159.414 78.6659 165.442 75.5193 168.906 72.9624L173.791 74.3776C173.791 74.3776 180.762 76.8594 185.079 81.0566C184.355 80.2633 179.85 73.7075 176.086 71.9064Z" fill="#AB8BC6"/>
</g>
<path style="mix-blend-mode:soft-light" opacity="0.5" d="M203.643 115.556C203.992 123.002 202.705 130.914 202.512 135.69C200.597 139.635 197.975 140.514 197.975 140.514C197.975 140.514 196.903 130.865 195.551 118.376C194.865 112.185 194.168 105.983 193.508 100.183C193.956 100.245 194.398 100.347 194.827 100.488C197.639 101.364 199.995 103.305 201.391 105.897C203.632 109.997 203.606 112.919 203.606 112.919C202.396 110.635 200.701 108.642 198.64 107.081C199.245 109.274 200.184 111.36 201.423 113.267C202.061 114.27 202.807 115.176 203.643 115.556Z" fill="url(#paint36_linear_6934_3952)"/>
<g style="mix-blend-mode:soft-light" opacity="0.5">
<path d="M189.191 86.2292C191.128 88.2837 193.367 90.0316 195.83 91.4127C199.514 93.3586 201.814 91.4127 201.814 91.4127C202.405 94.16 202.718 96.9597 202.747 99.7696C202.747 99.7696 200.136 94.8541 197.819 94.0447C195.503 93.2353 192.677 94.6826 192.677 94.6826C192.677 94.6826 190.709 88.0357 189.191 86.2292Z" fill="#D1AAAA"/>
</g>
<path style="mix-blend-mode:soft-light" opacity="0.5" d="M76.5498 116.489C76.6356 123.752 77.4882 131.846 77.6813 136.622C79.5956 140.568 81.3384 140.975 81.3384 140.975C81.3384 140.975 85.092 126.834 86.8616 114.243C87.06 109.043 86.631 105.618 86.8616 99.5286C86.8616 99.5286 84.041 102.541 83.3064 103.018C80.8129 104.626 81.2526 104.594 79.3329 106.717C76.2012 110.185 76.5873 113.83 76.5873 113.83C77.795 111.543 79.4879 109.547 81.5475 107.982C80.949 110.178 80.0138 112.268 78.7752 114.179C78.1317 115.202 77.3863 116.108 76.5498 116.489Z" fill="url(#paint37_linear_6934_3952)"/>
<g style="mix-blend-mode:soft-light" opacity="0.5">
<path d="M88.6098 86.0044C87.1608 88.1664 85.2108 89.9465 82.9257 91.1932C79.2417 93.1337 75.2092 92.0938 75.2092 92.0938C75.4797 94.5702 75.6211 97.059 75.6329 99.5501C75.6329 99.5501 78.6197 94.6293 80.9309 93.8038C83.242 92.9783 86.4219 94.5542 86.4219 94.5542C86.4219 94.5542 87.2048 88.5452 88.6098 86.0044Z" fill="#D1AAAA"/>
</g>
<g style="mix-blend-mode:soft-light" opacity="0.5">
<path d="M120.602 63.5819C123.254 64.1931 125.752 65.3465 127.937 66.9696L134.635 62.3222C134.635 62.3222 131.021 58.4091 125.857 58.1196L120.602 63.5819Z" fill="#FFD7D7"/>
</g>
<g style="mix-blend-mode:soft-light" opacity="0.5">
<path d="M132.479 55.3001C132.479 55.3001 136.051 57.0208 137.74 58.8272L140.539 58.0339C140.539 58.0339 138.823 54.6408 136.276 53.9654C135.583 53.7599 134.843 53.7784 134.161 54.018C133.48 54.2577 132.891 54.7064 132.479 55.3001Z" fill="#FFD7D7"/>
</g>
<defs>
<linearGradient id="paint0_linear_6934_3952" x1="139.831" y1="279.916" x2="139.831" y2="184.995" gradientUnits="userSpaceOnUse">
<stop stop-color="#D5929D"/>
<stop offset="0.02" stop-color="#D6949E"/>
<stop offset="0.33" stop-color="#E5B8AA"/>
<stop offset="0.5" stop-color="#EBC6AE"/>
<stop offset="0.71" stop-color="#DAA191"/>
<stop offset="0.89" stop-color="#CE877D"/>
<stop offset="1" stop-color="#CA7D75"/>
</linearGradient>
<linearGradient id="paint1_linear_6934_3952" x1="139.831" y1="279.916" x2="139.831" y2="252.353" gradientUnits="userSpaceOnUse">
<stop offset="0.01" stop-color="#F484A6"/>
<stop offset="1" stop-color="#F2839E"/>
</linearGradient>
<linearGradient id="paint2_linear_6934_3952" x1="160.916" y1="263.492" x2="160.916" y2="218.883" gradientUnits="userSpaceOnUse">
<stop stop-color="#FFEADB"/>
<stop offset="0.99" stop-color="#D177F4"/>
</linearGradient>
<linearGradient id="paint3_linear_6934_3952" x1="177.689" y1="274.475" x2="177.689" y2="257.472" gradientUnits="userSpaceOnUse">
<stop stop-color="#FFEADB"/>
<stop offset="0.99" stop-color="#D177F4"/>
</linearGradient>
<linearGradient id="paint4_linear_6934_3952" x1="95.4791" y1="274.476" x2="95.4791" y2="256.341" gradientUnits="userSpaceOnUse">
<stop stop-color="#FFEADB"/>
<stop offset="0.99" stop-color="#D177F4"/>
</linearGradient>
<linearGradient id="paint5_linear_6934_3952" x1="212.63" y1="136.649" x2="191.51" y2="184.673" gradientUnits="userSpaceOnUse">
<stop stop-color="#EBBFAD"/>
<stop offset="0.78" stop-color="#E5BAA9"/>
</linearGradient>
<linearGradient id="paint6_linear_6934_3952" x1="206.994" y1="168.662" x2="206.994" y2="141.463" gradientUnits="userSpaceOnUse">
<stop stop-color="#FFEADB"/>
<stop offset="0.99" stop-color="#C96386"/>
</linearGradient>
<linearGradient id="paint7_linear_6934_3952" x1="201.579" y1="167.97" x2="201.579" y2="146.882" gradientUnits="userSpaceOnUse">
<stop stop-color="#FFEADB"/>
<stop offset="0.99" stop-color="#D177F4"/>
</linearGradient>
<linearGradient id="paint8_linear_6934_3952" x1="62.2805" y1="131.878" x2="85.5233" y2="178.912" gradientUnits="userSpaceOnUse">
<stop offset="0.15" stop-color="#EBBFAD"/>
<stop offset="1" stop-color="#E5BAA9"/>
</linearGradient>
<linearGradient id="paint9_linear_6934_3952" x1="71.0748" y1="168.662" x2="71.0748" y2="141.463" gradientUnits="userSpaceOnUse">
<stop stop-color="#FFEADB"/>
<stop offset="0.99" stop-color="#C96386"/>
</linearGradient>
<linearGradient id="paint10_linear_6934_3952" x1="76.4908" y1="167.97" x2="76.4908" y2="146.882" gradientUnits="userSpaceOnUse">
<stop stop-color="#FFEADB"/>
<stop offset="0.99" stop-color="#D177F4"/>
</linearGradient>
<linearGradient id="paint11_linear_6934_3952" x1="139.831" y1="235.983" x2="139.831" y2="64.0964" gradientUnits="userSpaceOnUse">
<stop offset="0.01" stop-color="#D58F9D"/>
<stop offset="0.2" stop-color="#E2ABA6"/>
<stop offset="0.33" stop-color="#EBBFAD"/>
<stop offset="0.77" stop-color="#E5BAA9"/>
<stop offset="1" stop-color="#DFABAE"/>
</linearGradient>
<linearGradient id="paint12_linear_6934_3952" x1="174.708" y1="231.539" x2="174.708" y2="79.6738" gradientUnits="userSpaceOnUse">
<stop stop-color="#D5FFE0"/>
<stop offset="0.23" stop-color="#EAF4DD"/>
<stop offset="0.43" stop-color="#FFEADB"/>
<stop offset="0.53" stop-color="#F2D9D8"/>
<stop offset="0.69" stop-color="#E2C3D3"/>
<stop offset="0.85" stop-color="#D8B6D1"/>
<stop offset="1" stop-color="#D5B2D0"/>
</linearGradient>
<linearGradient id="paint13_linear_6934_3952" x1="104.863" y1="231.63" x2="104.863" y2="79.7647" gradientUnits="userSpaceOnUse">
<stop stop-color="#D5FFE0"/>
<stop offset="0.23" stop-color="#EAF4DD"/>
<stop offset="0.43" stop-color="#FFEADB"/>
<stop offset="0.53" stop-color="#F2D9D8"/>
<stop offset="0.69" stop-color="#E2C3D3"/>
<stop offset="0.85" stop-color="#D8B6D1"/>
<stop offset="1" stop-color="#D5B2D0"/>
</linearGradient>
<linearGradient id="paint14_linear_6934_3952" x1="185.647" y1="120.297" x2="157.793" y2="92.9675" gradientUnits="userSpaceOnUse">
<stop stop-color="#4F3739"/>
<stop offset="0.25" stop-color="#533E3F"/>
<stop offset="0.61" stop-color="#5E504F"/>
<stop offset="0.73" stop-color="#635855"/>
</linearGradient>
<linearGradient id="paint15_linear_6934_3952" x1="97.2772" y1="132.038" x2="125.014" y2="104.659" gradientUnits="userSpaceOnUse">
<stop stop-color="#4F3739"/>
<stop offset="0.25" stop-color="#533E3F"/>
<stop offset="0.61" stop-color="#5E504F"/>
<stop offset="0.73" stop-color="#635855"/>
</linearGradient>
<linearGradient id="paint16_linear_6934_3952" x1="139.477" y1="188.677" x2="139.477" y2="152.071" gradientUnits="userSpaceOnUse">
<stop stop-color="#DB9F91"/>
<stop offset="1" stop-color="#F9A6A7"/>
</linearGradient>
<linearGradient id="paint17_linear_6934_3952" x1="147.306" y1="174.402" x2="152.867" y2="174.402" gradientUnits="userSpaceOnUse">
<stop offset="0.02" stop-color="#7C51B3"/>
<stop offset="0.99" stop-color="#BD89C4"/>
</linearGradient>
<linearGradient id="paint18_linear_6934_3952" x1="131.192" y1="174.424" x2="125.653" y2="174.424" gradientUnits="userSpaceOnUse">
<stop offset="0.02" stop-color="#7C51B3"/>
<stop offset="0.99" stop-color="#BD89C4"/>
</linearGradient>
<linearGradient id="paint19_linear_6934_3952" x1="131.31" y1="163.001" x2="126.581" y2="165.055" gradientUnits="userSpaceOnUse">
<stop stop-color="#FFEADB"/>
<stop offset="0.29" stop-color="#FEE7DC"/>
<stop offset="0.47" stop-color="#FBDFDD"/>
<stop offset="0.61" stop-color="#F5D1E0"/>
<stop offset="0.74" stop-color="#EDBCE5"/>
<stop offset="0.85" stop-color="#E2A2EB"/>
<stop offset="0.96" stop-color="#D682F2"/>
<stop offset="0.99" stop-color="#D177F4"/>
</linearGradient>
<linearGradient id="paint20_linear_6934_3952" x1="150.245" y1="164.486" x2="152.465" y2="164.486" gradientUnits="userSpaceOnUse">
<stop stop-color="#FFEADB"/>
<stop offset="0.99" stop-color="#D177F4"/>
</linearGradient>
<linearGradient id="paint21_linear_6934_3952" x1="112.865" y1="145.419" x2="109.985" y2="130.562" gradientUnits="userSpaceOnUse">
<stop stop-color="#EEE2FF"/>
<stop offset="1" stop-color="#BDC9FB"/>
</linearGradient>
<linearGradient id="paint22_linear_6934_3952" x1="114.359" y1="144.744" x2="111.207" y2="128.479" gradientUnits="userSpaceOnUse">
<stop stop-color="#4D0E2E"/>
<stop offset="1" stop-color="#36063B"/>
</linearGradient>
<linearGradient id="paint23_linear_6934_3952" x1="114.267" y1="144.274" x2="111.298" y2="128.955" gradientUnits="userSpaceOnUse">
<stop stop-color="#4D0E2E"/>
<stop offset="1" stop-color="#36063B"/>
</linearGradient>
<linearGradient id="paint24_linear_6934_3952" x1="113.751" y1="141.582" x2="111.825" y2="131.642" gradientUnits="userSpaceOnUse">
<stop stop-color="#A79ABD"/>
<stop offset="0.99" stop-color="#724A60"/>
</linearGradient>
<linearGradient id="paint25_linear_6934_3952" x1="127.4" y1="145.068" x2="105.638" y2="145.812" gradientUnits="userSpaceOnUse">
<stop stop-color="#DFA597" stop-opacity="0.6"/>
<stop offset="1" stop-color="#C66D82"/>
</linearGradient>
<linearGradient id="paint26_linear_6934_3952" x1="167.99" y1="145.698" x2="170.868" y2="130.82" gradientUnits="userSpaceOnUse">
<stop stop-color="#EEE2FF"/>
<stop offset="1" stop-color="#BDC9FB"/>
</linearGradient>
<linearGradient id="paint27_linear_6934_3952" x1="166.486" y1="145.028" x2="169.637" y2="128.734" gradientUnits="userSpaceOnUse">
<stop stop-color="#4D0E2E"/>
<stop offset="1" stop-color="#36063B"/>
</linearGradient>
<linearGradient id="paint28_linear_6934_3952" x1="166.577" y1="144.557" x2="169.546" y2="129.21" gradientUnits="userSpaceOnUse">
<stop stop-color="#4D0E2E"/>
<stop offset="1" stop-color="#36063B"/>
</linearGradient>
<linearGradient id="paint29_linear_6934_3952" x1="167.099" y1="141.86" x2="169.025" y2="131.902" gradientUnits="userSpaceOnUse">
<stop stop-color="#A79ABD"/>
<stop offset="0.99" stop-color="#724A60"/>
</linearGradient>
<linearGradient id="paint30_linear_6934_3952" x1="152.507" y1="145.113" x2="174.269" y2="145.857" gradientUnits="userSpaceOnUse">
<stop stop-color="#DFA597" stop-opacity="0.6"/>
<stop offset="1" stop-color="#C66D82"/>
</linearGradient>
<linearGradient id="paint31_linear_6934_3952" x1="163.219" y1="183.123" x2="156.96" y2="165.945" gradientUnits="userSpaceOnUse">
<stop stop-color="#FFEADB"/>
<stop offset="0.99" stop-color="#D177F4"/>
</linearGradient>
<linearGradient id="paint32_linear_6934_3952" x1="111.767" y1="183.101" x2="118.645" y2="166.3" gradientUnits="userSpaceOnUse">
<stop stop-color="#FFEADB"/>
<stop offset="0.99" stop-color="#D177F4"/>
</linearGradient>
<linearGradient id="paint33_linear_6934_3952" x1="139.702" y1="141.726" x2="139.702" y2="268.815" gradientUnits="userSpaceOnUse">
<stop stop-color="#4E3043"/>
<stop offset="0.06" stop-color="#A0748B"/>
<stop offset="0.19" stop-color="#8D6972"/>
<stop offset="0.3" stop-color="#5B4446"/>
<stop offset="0.39" stop-color="#614746"/>
<stop offset="0.93" stop-color="#2E211B"/>
</linearGradient>
<linearGradient id="paint34_linear_6934_3952" x1="138.367" y1="183.66" x2="136.636" y2="251.898" gradientUnits="userSpaceOnUse">
<stop stop-color="#FFEADB"/>
<stop offset="0.17" stop-color="#EDDDD3"/>
<stop offset="0.42" stop-color="#D8CECA"/>
<stop offset="0.67" stop-color="#CBC5C4"/>
<stop offset="0.91" stop-color="#C7C2C2"/>
</linearGradient>
<linearGradient id="paint35_linear_6934_3952" x1="138.866" y1="155.03" x2="140.334" y2="29.8542" gradientUnits="userSpaceOnUse">
<stop stop-color="#9B807C"/>
<stop offset="0.41" stop-color="#5A4A4B"/>
<stop offset="0.92" stop-color="#402C31"/>
</linearGradient>
<linearGradient id="paint36_linear_6934_3952" x1="197.037" y1="133.304" x2="199.437" y2="98.435" gradientUnits="userSpaceOnUse">
<stop stop-color="#FFD9BB"/>
<stop offset="0.02" stop-color="#FDD7BA"/>
<stop offset="0.39" stop-color="#E5BEB1"/>
<stop offset="0.73" stop-color="#D6AFAC"/>
<stop offset="1" stop-color="#D1AAAA"/>
</linearGradient>
<linearGradient id="paint37_linear_6934_3952" x1="83.3332" y1="133.53" x2="80.8683" y2="97.7488" gradientUnits="userSpaceOnUse">
<stop stop-color="#FFD9BB"/>
<stop offset="0.02" stop-color="#FDD7BA"/>
<stop offset="0.39" stop-color="#E5BEB1"/>
<stop offset="0.73" stop-color="#D6AFAC"/>
<stop offset="1" stop-color="#D1AAAA"/>
</linearGradient>
</defs>
</svg>
