<svg width="280" height="280" viewBox="0 0 280 280" fill="none" xmlns="http://www.w3.org/2000/svg">
<g clip-path="url(#clip0_6934_4040)">
<rect width="280" height="280" rx="20" fill="#B9C6EF"/>
<g clip-path="url(#clip1_6934_4040)">
<path d="M164.479 71.2883H180.368L197.546 105.644C186.813 101.284 203.126 119.023 192.393 114.663L164.479 71.2883Z" fill="#4C4040"/>
<path d="M112.086 79.0183H96.1964L79.0185 113.374C89.7519 109.014 73.4384 126.753 84.1718 122.393L112.086 79.0183Z" fill="#614B49"/>
<path d="M85.2721 147.191C85.2721 147.191 78.3329 135.808 70.2474 136.355C64.7661 136.723 60.8819 140.426 60.971 147.136C61.0934 156.11 69.0231 166.305 70.9875 171.542C72.9518 176.779 78.0769 183.589 81.4825 184.247C84.8881 184.906 89.3121 178.458 89.3121 178.458C89.3121 178.458 87.0973 155.329 85.2721 147.191Z" fill="url(#paint0_linear_6934_4040)"/>
<path style="mix-blend-mode:multiply" opacity="0.6" d="M85.2721 158.843C85.2721 158.843 71.9947 142.406 67.1756 142.406C62.3566 142.406 62.351 151.754 64.2987 157.091C65.6453 160.783 68.2774 166.121 68.2774 166.121C68.2774 166.121 66.1907 160.387 65.9458 156.082C65.5563 149.484 67.0198 144.687 68.6892 144.698C71.7387 144.698 74.1482 148.904 74.5322 150.393C74.9162 151.882 72.1171 158.391 72.8628 162.931C73.6084 167.471 76.3185 169.2 77.2255 168.703C78.1326 168.207 76.7302 163.093 77.5538 161.28C78.3774 159.467 80.7647 156.818 82.1614 157.404C83.5582 157.989 85.2721 158.843 85.2721 158.843Z" fill="url(#paint1_linear_6934_4040)"/>
<path style="mix-blend-mode:multiply" opacity="0.6" d="M85.2719 158.843C85.2719 158.843 81.9999 156.879 81.0038 157.504C80.0077 158.129 77.4813 160.41 77.3756 161.843C77.2699 163.277 78.1769 167.354 77.3756 168.062C76.5743 168.77 73.6862 164.158 73.5582 160.114C73.4302 156.071 75.7006 151.369 75.7006 150.822C75.7006 150.276 75.172 147.666 75.172 147.666C75.172 147.666 82.8847 154.983 85.2719 158.843Z" fill="url(#paint2_linear_6934_4040)"/>
<path d="M97.826 210.266C97.826 210.266 96.368 250.746 95.3831 254.595C94.3981 258.443 43.8037 280 43.8037 280H237.055C237.055 280 182.076 260.535 180.596 256.078C179.115 251.622 179.054 213.289 179.054 213.289L97.826 210.266Z" fill="url(#paint3_linear_6934_4040)"/>
<path d="M95.5556 253.463C95.5556 253.463 91.5212 252.994 91.1038 253.463C90.6865 253.931 91.1038 257.127 91.1038 257.127L43.8037 279.994H237.055L186.027 258.243C186.027 258.243 184.268 253.402 180.596 256.095L181.853 257.914C181.853 257.914 164.736 276.28 136.223 276.28C107.709 276.28 95.5556 253.463 95.5556 253.463Z" fill="url(#paint4_linear_6934_4040)"/>
<g style="mix-blend-mode:multiply" opacity="0.6">
<path d="M97.1582 227.679C97.1582 227.679 106.685 230.361 108.989 234.489C111.293 238.616 126.106 269.626 137.797 270.128C149.489 270.63 157.057 254.127 162.978 250.334C168.899 246.541 179.644 246.257 179.644 246.257L179.026 212.296L97.8371 210.969L97.1582 227.679Z" fill="#D177B8"/>
</g>
<path style="mix-blend-mode:multiply" opacity="0.6" d="M153.056 233.15L150.045 264.065C150.045 264.065 157.28 255.917 161.002 249.977C164.725 244.037 171.62 220.751 171.62 220.751L153.056 233.15Z" fill="url(#paint5_linear_6934_4040)"/>
<path style="mix-blend-mode:multiply" opacity="0.6" d="M186.027 258.226C186.027 258.226 173.612 269.442 160.835 274.724C160.835 274.724 186.205 266.637 193.305 261.338L186.027 258.226Z" fill="url(#paint6_linear_6934_4040)"/>
<path style="mix-blend-mode:multiply" opacity="0.6" d="M91.1039 257.127C97.7214 263.561 104.849 269.446 112.417 274.724C112.417 274.724 96.3514 270.424 82.5898 261.243L91.1039 257.127Z" fill="url(#paint7_linear_6934_4040)"/>
<g style="mix-blend-mode:multiply" opacity="0.6">
<path d="M103.023 262.866C103.023 262.866 115.967 274.724 138.398 274.724C160.83 274.724 174.419 264.065 174.419 264.065C174.419 264.065 158.993 276.263 136.206 276.263C113.418 276.263 103.023 262.866 103.023 262.866Z" fill="#D177B8"/>
</g>
<path d="M194.697 147.191C194.697 147.191 201.636 135.808 209.721 136.355C215.197 136.723 219.092 140.437 218.975 147.13C218.853 156.104 210.923 166.299 208.959 171.537C206.995 176.774 201.864 183.584 198.464 184.242C195.064 184.9 190.634 178.453 190.634 178.453C190.634 178.453 192.866 155.329 194.697 147.191Z" fill="url(#paint8_linear_6934_4040)"/>
<path style="mix-blend-mode:multiply" opacity="0.6" d="M194.697 158.843C194.697 158.843 207.963 142.406 212.804 142.406C217.645 142.406 217.629 151.754 215.681 157.091C214.334 160.783 211.702 166.121 211.702 166.121C211.702 166.121 213.789 160.387 214.034 156.082C214.418 149.484 212.96 144.687 211.291 144.698C208.235 144.698 205.832 148.904 205.448 150.393C205.064 151.882 207.863 158.391 207.117 162.931C206.371 167.471 203.661 169.2 202.754 168.703C201.847 168.207 203.249 163.093 202.426 161.28C201.602 159.467 199.215 156.818 197.818 157.404C196.422 157.989 194.697 158.843 194.697 158.843Z" fill="url(#paint9_linear_6934_4040)"/>
<path style="mix-blend-mode:multiply" opacity="0.6" d="M194.697 158.843C194.697 158.843 197.969 156.879 198.965 157.504C199.961 158.129 202.487 160.41 202.593 161.843C202.699 163.277 201.792 167.354 202.593 168.062C203.394 168.77 206.282 164.158 206.41 160.114C206.538 156.071 204.268 151.369 204.268 150.822C204.268 150.276 204.796 147.666 204.796 147.666C204.796 147.666 197.084 154.983 194.697 158.843Z" fill="url(#paint10_linear_6934_4040)"/>
<path d="M196.332 147.25C200.845 162.404 197.056 168.36 195.776 178.344C194.496 188.327 191.931 196.247 190.362 200.006C189.468 201.928 188.271 203.693 186.817 205.232C182.332 210.291 175.203 215.612 170.373 220.598C168.666 222.347 166.824 223.959 164.864 225.417H164.836C162.27 227.365 159.485 229.007 156.539 230.308C151.937 232.204 140.001 232.204 140.001 232.204C140.001 232.204 128.065 232.204 123.457 230.308C118.274 227.973 113.582 224.672 109.629 220.581C103.919 214.686 96.0229 208.266 92.0441 202.432C91.4543 201.579 90.3747 198.5 90.0186 197.669C88.6051 194.323 87.0971 187.775 85.7226 179.091C85.3943 177.022 85.0048 174.958 84.5818 172.906C81.8996 159.894 83.5412 154.969 85.6558 145.604C86.1678 132.509 86.3681 136.764 85.3331 129.642C85.8895 92.3313 98.4397 77.5154 115.521 69.5706C123.463 67.1763 131.669 62.9926 139.962 63.0202C153.206 63.0202 170.491 74.2945 170.491 74.2945C170.491 74.2945 188.098 85.4601 192.822 103.926C196.428 123.007 193.522 137.707 196.332 147.25Z" fill="url(#paint11_linear_6934_4040)"/>
<path style="mix-blend-mode:multiply" opacity="0.6" d="M188.915 193.422C186.689 201.788 181.375 212.006 177.585 216.881C174.419 220.947 165.782 230.043 165.031 230.741C166.976 229.285 168.802 227.675 170.49 225.927C176.111 219.089 188.52 208.587 188.943 205.932C190.929 202.229 194.313 192.898 195.62 182.558C196.867 172.485 199.85 169.021 196.11 153.84C191.781 141.129 202.181 122.383 195.142 99.6108C193.767 93.9107 186.795 81.9138 181.72 78.2048C191.736 92.6112 187.106 104.865 186.823 109.377C186.82 109.423 186.82 109.47 186.823 109.516C186.522 116.019 179.744 121.095 173.245 121.028L165.17 121.641L153.985 127.609C153.985 127.609 149.917 135.936 150.407 145.072C150.702 150.649 152.6 154.225 160.891 157.643C165.154 159.4 175.843 156.645 181.481 156.099C183.629 155.852 185.796 156.372 187.602 157.565C188.804 158.397 189.799 159.495 190.51 160.775C191.22 162.055 191.626 163.482 191.697 164.944C192.015 169.997 191.363 184.248 188.915 193.422Z" fill="url(#paint12_linear_6934_4040)"/>
<path style="mix-blend-mode:multiply" opacity="0.6" d="M91.193 193.539C93.4189 201.905 98.7332 212.123 102.528 216.992C105.695 221.058 114.331 230.16 115.082 230.858C113.137 229.402 111.312 227.792 109.623 226.044C104.003 219.206 91.8162 208.671 91.1651 206.049C89.1785 202.346 86.424 192.418 85.044 182.552C83.7084 172.769 80.5922 169.01 84.315 153.828C86.9436 127.648 78.8926 114.688 86.9304 97.0283C87.8875 94.7973 94.3203 80.7702 99.4065 77.0613C89.39 91.4677 92.9681 104.982 93.2519 109.494C93.2519 109.538 93.2519 109.583 93.2519 109.628C93.5524 116.136 100.33 121.212 106.824 121.139L113.602 121.072L126.112 127.765C129.192 132.132 130.687 137.425 130.346 142.763C130.051 148.34 126.963 154.671 118.427 157.409C111.615 159.595 104.253 156.801 98.6386 156.255C96.4896 156.008 94.3228 156.528 92.5174 157.721C91.3147 158.553 90.3196 159.651 89.6093 160.931C88.899 162.211 88.4926 163.638 88.4217 165.1C88.099 170.109 88.7501 184.381 91.193 193.539Z" fill="url(#paint13_linear_6934_4040)"/>
<g style="mix-blend-mode:multiply" opacity="0.6">
<path d="M186.756 205.776C181.352 210.673 175.136 217.522 170.306 222.508C168.601 224.259 166.759 225.871 164.797 227.327C162.23 229.274 159.446 230.916 156.5 232.219C151.893 234.115 139.956 234.115 139.956 234.115C139.956 234.115 128.02 234.115 123.418 232.219C118.234 229.883 113.54 226.582 109.584 222.492C103.88 216.596 95.344 209.251 91.3652 203.417C95.3773 207.954 99.7005 212.205 104.303 216.139C111.148 221.834 122.505 232.687 139.956 232.687C157.407 232.687 170.484 219.714 173.206 217.729C175.927 215.743 186.399 206.055 186.756 205.776Z" fill="#D177B8"/>
</g>
<path d="M152.611 179.033C149.383 179.59 148.832 178.202 146.067 178.202C143.301 178.202 142.377 180.048 139.945 180.048C137.514 180.048 136.579 178.202 133.824 178.202C131.07 178.202 130.485 179.585 127.28 179.033C124.381 178.531 123.045 172.217 124.348 168.257C124.35 168.248 124.35 168.238 124.348 168.229C124.492 167.808 124.678 167.403 124.904 167.019C127.024 163.321 135.688 159.445 139.973 159.445C144.258 159.445 152.872 163.304 155.009 167.019C155.35 167.64 155.602 168.307 155.755 168.999C156.679 172.959 155.332 178.564 152.611 179.033Z" fill="url(#paint14_linear_6934_4040)"/>
<g style="mix-blend-mode:multiply" opacity="0.6">
<path d="M152.611 179.033C149.383 179.59 148.832 178.202 146.067 178.202C143.301 178.202 142.377 180.048 139.945 180.048C137.514 180.048 136.579 178.202 133.824 178.202C131.07 178.202 130.485 179.585 127.28 179.033C124.381 178.531 123.045 172.217 124.348 168.257C124.247 168.631 123.429 172.256 125.149 175.14C125.456 175.642 125.931 176.019 126.489 176.205C127.047 176.391 127.652 176.373 128.198 176.155C130.736 175.167 135.989 173.5 141.687 173.996C145.016 174.238 148.3 174.907 151.459 175.987C152.07 176.211 152.744 176.19 153.34 175.928C153.936 175.666 154.409 175.184 154.659 174.582C155.39 172.813 155.768 170.919 155.771 169.004C156.679 172.959 155.332 178.564 152.611 179.033Z" fill="#D077B7"/>
</g>
<path d="M151.498 179.155C153.078 178.983 148.804 174.348 144.848 178.313C144.848 178.313 150.301 179.289 151.498 179.155Z" fill="url(#paint15_linear_6934_4040)"/>
<path d="M128.304 179.139C126.724 178.955 131.025 174.348 134.982 178.341C134.959 178.363 129.5 179.278 128.304 179.139Z" fill="url(#paint16_linear_6934_4040)"/>
<path style="mix-blend-mode:multiply" opacity="0.6" d="M125.444 166.238C127.631 165.123 129.445 167.872 130.613 168.871C131.782 169.869 129.428 165.491 126.779 164.593L125.444 166.238Z" fill="url(#paint17_linear_6934_4040)"/>
<path style="mix-blend-mode:multiply" opacity="0.6" d="M154.308 166.216C152.126 165.044 150.307 167.889 149.138 168.943C147.97 169.997 150.385 165.446 153.034 164.515L154.308 166.216Z" fill="url(#paint18_linear_6934_4040)"/>
<path opacity="0.7" d="M143.023 169.746C142.789 170.248 142.321 171.916 143.64 172.1C144.165 172.146 144.692 172.063 145.177 171.858C145.662 171.653 146.09 171.332 146.423 170.923C146.519 170.549 146.464 170.152 146.269 169.818C146.074 169.485 145.755 169.242 145.382 169.144C144.403 168.96 143.412 168.882 143.023 169.746Z" fill="#FFCDBD"/>
<g style="mix-blend-mode:multiply" opacity="0.6">
<path d="M119.139 193.74C119.139 193.74 127.887 208.275 139.773 208.275C150.524 208.275 159.65 194.036 159.65 194.036C159.65 194.036 151.242 202.039 143.323 202.798C135.405 203.556 119.139 193.74 119.139 193.74Z" fill="#D177B8"/>
</g>
<path d="M115.127 188.007C115.127 188.007 123.602 201.504 129.5 203.35C135.399 205.196 146.25 204.214 149.706 203.35C153.824 202.329 164.208 188.743 164.208 188.743C164.208 188.743 152.26 199 139.372 199C126.484 199 115.127 188.007 115.127 188.007Z" fill="#E28684"/>
<path d="M115.127 188.007C115.127 188.007 122.233 191.041 138.398 191.041C154.564 191.041 165.142 188.007 165.142 188.007C165.142 188.007 152.872 199 138.582 199.479C126.79 199.278 115.127 188.007 115.127 188.007Z" fill="#C4654C"/>
<path d="M119.718 190.706C119.718 190.706 128.849 198.67 138.582 198.977C150.641 199.356 160.173 190.299 160.173 190.299C160.173 190.299 147.563 193.171 138.281 193.171C128.999 193.171 119.718 190.706 119.718 190.706Z" fill="white"/>
<path d="M155.905 191.169L155.655 193.835L161.397 189.814L155.905 191.169Z" fill="#4E1B3D"/>
<path d="M123.646 191.587L124.147 194.036L118.026 189.97L123.646 191.587Z" fill="#4E1B3D"/>
<g style="mix-blend-mode:soft-light">
<path d="M144.047 200.545L145.516 203.936C145.516 203.936 148.643 203.752 150.524 203.015C152.405 202.279 156.89 197.561 158.387 195.503L156.79 195.062C152.913 197.656 148.594 199.515 144.047 200.545Z" fill="#FFCCB8"/>
</g>
<g style="mix-blend-mode:multiply" opacity="0.6">
<path d="M123.73 192.006C128.59 193.207 133.576 193.821 138.582 193.835C146.757 193.835 155.872 191.515 155.872 191.515L155.905 191.169C155.905 191.169 146.028 193.171 138.281 193.171C133.362 193.144 128.458 192.613 123.646 191.587L123.73 192.006Z" fill="#D177B8"/>
</g>
<path style="mix-blend-mode:multiply" opacity="0.6" d="M170 187.025C161.731 173.148 155.744 168.832 155.744 168.832V169.947L170 187.025Z" fill="url(#paint19_linear_6934_4040)"/>
<path style="mix-blend-mode:multiply" opacity="0.6" d="M109.968 186.45C118.232 172.58 124.225 168.257 124.225 168.257V169.373L109.968 186.45Z" fill="url(#paint20_linear_6934_4040)"/>
<path d="M128.209 57.9867C134.513 55.3771 141.415 54.572 148.148 55.6609C159.578 57.4289 171.892 65.4492 171.892 65.4492L138.148 79.0859L118.299 64.1943L128.209 57.9867Z" fill="#3A2A1B"/>
<path d="M140.474 50.6748C140.474 50.6748 136.106 51.5672 121.765 57.5517C116.145 59.8886 113.146 60.6806 104.487 66.3138L95.6779 72.2927C90.9145 75.2376 83.7472 84.2506 81.1318 89.2145C78.9059 93.47 76.8859 99.6219 76.6243 101.596C75.8898 107.174 76.9026 112.801 77.4646 118.373C78.4329 127.938 78.7501 137.922 78.9114 139.985C78.9114 140.208 85.6837 148.351 85.6837 148.351C85.6837 148.351 85.578 136.639 85.578 122.863C85.7338 120.007 85.7282 114.419 85.539 110.085C86.5407 102.913 86.702 97.5025 89.5456 92.7952C98.6551 77.6749 116.624 72.3931 116.624 72.3931C116.624 72.3931 115.455 86.9891 142.928 84.5518C157.107 83.2969 154.647 76.5762 158.303 72.6776C162.366 68.3384 173.751 74.4735 178.03 78.0876C186.984 85.6338 189.805 94.5409 191.269 97.9264C192.938 101.752 193.383 104.664 193.845 108.267C194.329 111.215 194.499 114.206 194.352 117.191C194.279 120.604 193.333 127.788 193.239 130.359C192.766 136.708 193.42 143.09 195.17 149.21L200.434 140.365L202.448 117.609C203.277 112.383 202.938 105.796 202.938 105.796C202.086 96.7049 197.267 86.9612 191.252 79.4262C189.198 76.8846 186.922 74.531 184.452 72.3931C177.095 66.1911 172.243 64.1944 172.243 64.1944C169.021 62.5212 167.824 62.1029 161.008 58.9014C161.008 58.9014 154.386 54.4061 140.474 50.6748Z" fill="url(#paint21_linear_6934_4040)"/>
<g style="mix-blend-mode:soft-light" opacity="0.5">
<path d="M202.003 121.97C201.363 128.808 200.951 135.54 200.428 140.376C198.202 144.28 195.164 149.222 195.164 149.222C195.164 149.222 191.391 137.453 193.673 125.568C193.94 119.7 194.741 111.742 193.639 106.845C193.639 106.845 194.68 106.727 197.974 109.265C203.606 115.021 202.131 120.61 202.131 120.61C202.131 120.61 200.172 116.293 197.023 113.666C197.484 115.93 198.289 118.11 199.41 120.13C199.989 121.217 201.185 121.53 202.003 121.97Z" fill="#FFD9BB"/>
</g>
<g style="mix-blend-mode:soft-light" opacity="0.5">
<path d="M77.7931 121.887C78.4331 128.725 78.6557 134.91 78.9061 139.985C81.0173 142.89 83.2778 145.682 85.6783 148.352C85.6783 148.352 85.9621 140.599 85.5336 125.668C85.6116 118.596 85.3333 111.998 85.9844 106.856C85.9844 106.856 84.9438 106.739 81.6495 109.276C76.4409 115.306 77.654 120.398 77.654 120.398C77.654 120.398 79.4625 116.309 82.601 113.705C82.1402 115.969 81.335 118.15 80.2138 120.169C79.6406 121.218 78.6111 121.474 77.7931 121.887Z" fill="#FFD9BB"/>
</g>
<path opacity="0.49" d="M98.8945 70.3238L106.885 65.003C121.56 63.5138 119.334 66.8547 119.334 66.8547C119.334 66.8547 116.796 70.3294 116.863 72.4599C112.211 73.8877 112.873 73.9714 109.885 75.1482C109.885 75.1482 91.1317 83.1183 87.3421 98.6402C86.4073 103.504 86.4796 103.554 85.5559 110.068C85.7284 114.402 85.6338 117.508 85.5892 123.181C86.4077 130.689 86.7541 148.208 85.9231 148.385C85.9231 148.385 79.162 140.214 79.1509 140.019C78.8615 136.778 78.7613 123.465 76.6913 109.377L76.7302 105.311C76.5188 103.269 77.142 100.291 77.5148 98.9469C79.1843 93.3249 83.9755 80.2013 98.8945 70.3238Z" fill="url(#paint22_linear_6934_4040)"/>
<path opacity="0.49" d="M160.423 61.6064C160.423 61.6064 153.161 57.4791 147.307 55.198L168.064 67.6579L160.423 61.6064Z" fill="#3A2A1B"/>
<g style="mix-blend-mode:soft-light" opacity="0.5">
<path d="M186.845 86.5652C186.845 86.5652 190.339 90.9155 193.94 93.1409C197.54 95.3663 198.603 93.8548 198.603 93.8548C198.603 93.8548 200.829 98.5175 200.373 102.087C200.373 102.087 198.063 96.9224 195.776 95.924C193.489 94.9257 192.348 95.924 192.348 95.924C192.348 95.924 188.086 88.4113 186.845 86.5652Z" fill="#FFD9BB"/>
</g>
<g style="mix-blend-mode:soft-light" opacity="0.5">
<path d="M91.1037 89.5771C88.9029 91.4363 86.5728 93.1362 84.1311 94.6637C80.336 97.0006 79.2175 95.4222 79.2175 95.4222C79.2175 95.4222 76.8858 100.325 77.3422 104.078C77.3422 104.078 79.7795 98.6404 82.189 97.5918C84.5985 96.5433 86.6408 98.7854 86.6408 98.7854C86.6408 98.7854 87.7037 93.1355 91.1037 89.5771Z" fill="#FFD9BB"/>
</g>
<path opacity="0.49" d="M139.723 82.5495C139.723 82.5495 136.868 70.9095 139.962 65.7449C143.056 60.5802 149.311 65.2429 149.311 65.2429L150.079 65.7504C150.079 65.7504 143.084 59.1636 136.974 63.2964C130.864 67.4292 136.974 81.7408 136.974 81.7408L139.723 82.5495Z" fill="#3A2A1B"/>
<g style="mix-blend-mode:soft-light" opacity="0.5">
<path d="M135.733 63.8486C135.733 63.8486 133.985 66.7656 133.362 67.7026C132.739 68.6396 129.339 69.9336 128.91 69.3256L128.493 68.7065C127.527 70.476 127.103 72.4917 127.274 74.5014C127.274 74.5014 128.321 71.4562 130.129 71.2554C131.443 71.1372 132.766 71.1372 134.08 71.2554C134.08 71.2554 132.895 69.4037 135.733 63.8486Z" fill="#FFD9BB"/>
</g>
<path d="M128.577 129.957C129.2 127.849 129.962 125.44 129.89 122.115L128.694 121.97C128.51 121.946 128.324 121.96 128.147 122.012C127.969 122.063 127.804 122.151 127.662 122.269C127.52 122.388 127.404 122.534 127.321 122.7C127.238 122.865 127.19 123.046 127.18 123.231C127.119 124.871 126.724 126.761 124.993 129.461C125.682 127.412 126.058 125.27 126.106 123.108C126.1 122.688 125.942 122.284 125.661 121.971C125.381 121.659 124.997 121.458 124.581 121.407C105.539 117.297 101.41 118.524 100.43 118.819C99.4243 119.248 98.4868 119.823 97.648 120.526L97.954 118.942C94.453 121.845 92.1057 125.909 91.3376 130.398C91.3207 130.498 91.3298 130.601 91.3639 130.697C91.398 130.793 91.456 130.879 91.5325 130.946C91.6089 131.013 91.7011 131.059 91.8004 131.08C91.8998 131.102 92.0029 131.097 92.0999 131.067C93.8974 130.554 97.9986 129.45 100.714 129.232C105.823 128.819 117.57 130.113 125.572 131.742C126.205 131.877 126.865 131.769 127.422 131.438C127.979 131.107 128.391 130.579 128.577 129.957Z" fill="url(#paint23_linear_6934_4040)"/>
<g style="mix-blend-mode:multiply" opacity="0.6">
<path d="M123.212 131.279C123.212 131.279 124.208 124.586 121.815 121.24C122.054 123.426 122.08 125.63 121.893 127.821C121.893 127.821 116.562 120.213 110.931 118.97L124.642 121.429C124.867 121.463 125.082 121.54 125.277 121.658C125.471 121.776 125.64 121.931 125.773 122.115C125.907 122.299 126.003 122.507 126.055 122.729C126.107 122.95 126.115 123.179 126.078 123.404C126.008 125.463 125.649 127.502 125.01 129.461C125.01 129.461 127.185 126.393 127.158 123.264C127.172 123.075 127.225 122.89 127.313 122.721C127.401 122.553 127.522 122.404 127.67 122.285C127.817 122.165 127.988 122.077 128.17 122.026C128.353 121.975 128.544 121.961 128.732 121.987L129.89 122.138C129.89 122.138 130.135 125.088 128.627 129.84C128.468 130.506 128.053 131.082 127.472 131.442C126.892 131.803 126.193 131.918 125.527 131.764L123.212 131.279Z" fill="#D177B8"/>
</g>
<path d="M152.277 129.952C151.659 127.838 150.891 125.434 150.969 122.11L152.16 121.965C152.343 121.942 152.529 121.956 152.707 122.008C152.884 122.06 153.049 122.147 153.192 122.265C153.334 122.384 153.451 122.53 153.535 122.695C153.619 122.86 153.668 123.04 153.679 123.225C153.74 124.865 154.135 126.756 155.866 129.455C155.177 127.406 154.801 125.264 154.753 123.103C154.766 122.688 154.926 122.292 155.204 121.985C155.483 121.678 155.862 121.481 156.272 121.429C175.32 117.319 179.449 118.546 180.429 118.841C181.435 119.269 182.373 119.844 183.211 120.548L182.911 118.97C186.405 121.865 188.75 125.919 189.521 130.398C189.538 130.498 189.529 130.601 189.495 130.697C189.461 130.793 189.403 130.879 189.327 130.946C189.25 131.013 189.158 131.059 189.059 131.08C188.959 131.102 188.856 131.097 188.759 131.067C186.956 130.554 182.861 129.45 180.145 129.232C175.037 128.819 163.284 130.108 155.282 131.742C154.648 131.875 153.988 131.766 153.431 131.434C152.874 131.102 152.463 130.573 152.277 129.952Z" fill="url(#paint24_linear_6934_4040)"/>
<g style="mix-blend-mode:multiply" opacity="0.6">
<path d="M157.641 131.274C157.641 131.274 156.651 124.581 159.038 121.234C158.8 123.419 158.776 125.621 158.966 127.81C158.966 127.81 164.291 120.208 169.928 118.964L156.211 121.402C155.987 121.435 155.771 121.513 155.577 121.63C155.383 121.748 155.214 121.903 155.08 122.087C154.946 122.271 154.851 122.48 154.798 122.701C154.746 122.922 154.738 123.152 154.775 123.376C154.845 125.435 155.205 127.475 155.844 129.433C155.844 129.433 153.668 126.366 153.69 123.237C153.677 123.047 153.625 122.863 153.537 122.694C153.45 122.526 153.329 122.377 153.182 122.257C153.035 122.138 152.865 122.049 152.682 121.998C152.5 121.947 152.309 121.934 152.121 121.959L150.964 122.11C150.964 122.11 150.719 125.06 152.221 129.812C152.382 130.478 152.799 131.053 153.38 131.413C153.961 131.773 154.66 131.889 155.326 131.737L157.641 131.274Z" fill="#D177B8"/>
</g>
<path d="M125.165 144.732C125.232 146.963 116.863 149.065 109.584 148.764C102.556 148.469 98.5772 145.066 98.6607 140.465C98.7442 135.864 103.53 132.802 111.192 133.521C119.595 134.302 124.993 139.444 125.165 144.732Z" fill="url(#paint25_linear_6934_4040)"/>
<path d="M113.548 149.082C117.406 148.786 120.289 145.349 119.988 141.406C119.687 137.462 116.315 134.505 112.457 134.802C108.599 135.098 105.715 138.535 106.017 142.478C106.318 146.422 109.69 149.379 113.548 149.082Z" fill="url(#paint26_linear_6934_4040)"/>
<path d="M113.516 148.665C117.147 148.387 119.861 145.15 119.577 141.437C119.293 137.724 116.12 134.94 112.489 135.219C108.857 135.497 106.144 138.734 106.427 142.447C106.711 146.16 109.885 148.944 113.516 148.665Z" fill="url(#paint27_linear_6934_4040)"/>
<path style="mix-blend-mode:multiply" d="M114.238 146.138C116.601 145.948 118.361 143.837 118.168 141.422C117.975 139.007 115.903 137.203 113.54 137.392C111.176 137.582 109.417 139.693 109.61 142.108C109.802 144.523 111.874 146.327 114.238 146.138Z" fill="url(#paint28_linear_6934_4040)"/>
<g style="mix-blend-mode:multiply" opacity="0.6">
<path d="M124.264 141.201C124.264 141.201 109.757 138.764 98.8442 142.16V139.043C98.8442 139.043 99.3618 135.557 109.974 134.743C120.586 133.928 124.264 141.201 124.264 141.201Z" fill="#B42F97"/>
</g>
<path d="M124.208 141.101C124.208 141.101 122.856 137.649 117.475 134.893C115.41 133.858 113.158 133.252 110.854 133.11C108.549 132.968 106.24 133.294 104.064 134.068C98.3603 136.07 98.6775 139.98 98.6775 139.98C98.6775 139.98 114.125 131.809 124.208 141.101Z" fill="#AF6969"/>
<path d="M109.078 142.032C109.729 141.759 110.564 141.926 110.63 142.205C110.697 142.484 109.901 142.953 109.517 142.886C109.133 142.819 108.71 142.188 109.078 142.032Z" fill="white"/>
<path d="M107.664 141.865C108.221 142.149 105.845 142.562 103.981 142.255C102.311 141.982 101.432 141.285 101.566 141.14C101.699 140.995 105.433 140.727 107.664 141.865Z" fill="white"/>
<path d="M119.962 147.738C116.309 148.931 112.47 149.449 108.633 149.266C102.272 148.959 100.386 145.195 100.386 145.195C100.386 145.195 105.233 151.095 119.962 147.738Z" fill="#AF5F72"/>
<path d="M124.748 142.395C124.845 143.149 124.772 143.916 124.535 144.639C124.298 145.361 123.903 146.022 123.379 146.572C123.379 146.572 125.544 146.014 125.655 144.899C125.766 143.784 124.748 142.395 124.748 142.395Z" fill="#C4657C"/>
<path d="M124.492 144.96C121.375 149.048 116.903 151.882 111.883 152.953C111.883 152.953 121.994 152.005 125.583 145.145L124.492 144.96Z" fill="#C4657C"/>
<path d="M124.748 142.395C124.748 142.395 119.439 135.814 111.493 136.963C103.547 138.111 98.6941 141.742 98.6941 141.742L97.6758 140.627C97.6758 140.627 105.361 135.462 112.589 135.607C124.047 136.533 124.748 142.395 124.748 142.395Z" fill="#270039"/>
<path d="M155.254 144.854C155.182 147.085 163.551 149.188 170.835 148.887C177.858 148.591 181.837 145.189 181.753 140.593C181.67 135.998 176.884 132.924 169.221 133.644C160.819 134.43 155.421 139.573 155.254 144.854Z" fill="url(#paint29_linear_6934_4040)"/>
<path d="M174.388 142.595C174.689 138.651 171.806 135.214 167.948 134.918C164.09 134.622 160.718 137.579 160.417 141.522C160.115 145.466 162.998 148.903 166.856 149.199C170.714 149.495 174.086 146.539 174.388 142.595Z" fill="url(#paint30_linear_6934_4040)"/>
<path d="M173.977 142.563C174.261 138.85 171.547 135.614 167.916 135.335C164.285 135.057 161.111 137.841 160.827 141.554C160.543 145.267 163.257 148.503 166.888 148.782C170.519 149.061 173.693 146.277 173.977 142.563Z" fill="url(#paint31_linear_6934_4040)"/>
<path style="mix-blend-mode:multiply" d="M171.669 142.386C171.853 139.978 170.092 137.88 167.735 137.699C165.379 137.518 163.319 139.323 163.135 141.731C162.951 144.139 164.712 146.238 167.069 146.419C169.425 146.6 171.485 144.794 171.669 142.386Z" fill="url(#paint32_linear_6934_4040)"/>
<g style="mix-blend-mode:multiply" opacity="0.6">
<path d="M156.155 141.33C156.155 141.33 170.657 138.887 181.575 142.283L181.547 139.171C181.547 139.171 181.03 135.68 170.418 134.865C159.806 134.051 156.155 141.33 156.155 141.33Z" fill="#B42F97"/>
</g>
<path d="M156.211 141.229C156.211 141.229 157.563 137.771 162.944 135.016C165.009 133.981 167.262 133.374 169.566 133.234C171.871 133.093 174.18 133.42 176.355 134.196C182.065 136.198 181.742 140.103 181.742 140.103C181.742 140.103 166.289 131.932 156.211 141.229Z" fill="#AF6969"/>
<path d="M171.341 142.161C170.685 141.887 169.856 142.055 169.789 142.334C169.722 142.612 170.512 143.075 170.902 143.008C171.291 142.942 171.709 142.311 171.341 142.161Z" fill="white"/>
<path d="M172.749 141.988C172.193 142.278 174.574 142.69 176.439 142.384C178.108 142.11 178.982 141.413 178.848 141.268C178.715 141.123 174.981 140.85 172.749 141.988Z" fill="white"/>
<path d="M160.451 147.861C164.108 149.054 167.951 149.574 171.792 149.394C178.153 149.088 180.045 145.317 180.045 145.317C180.045 145.317 175.187 151.218 160.451 147.861Z" fill="#AF5F72"/>
<path d="M155.655 142.523C155.561 143.277 155.636 144.042 155.875 144.763C156.114 145.483 156.51 146.142 157.035 146.689C157.035 146.689 154.876 146.132 154.764 145.016C154.653 143.901 155.655 142.523 155.655 142.523Z" fill="#C4657C"/>
<path d="M155.916 145.089C159.032 149.175 163.502 152.009 168.52 153.081C168.52 153.081 158.415 152.133 154.825 145.273L155.916 145.089Z" fill="#C4657C"/>
<path d="M155.655 142.523C155.655 142.523 160.963 135.936 168.904 137.085C176.845 138.234 181.703 141.865 181.703 141.865L182.721 140.749C182.721 140.749 175.036 135.585 167.808 135.73C156.372 136.672 155.655 142.523 155.655 142.523Z" fill="#270039"/>
<g style="mix-blend-mode:soft-light" opacity="0.5">
<path d="M141.359 64.78C141.359 64.78 139.589 66.5034 139.4 72.4433C139.4 72.4433 139.856 70.9207 140.185 70.7701C140.513 70.6195 142.505 71.9749 145.877 73.3971C149.249 74.8193 153.039 74.6799 153.356 74.7357C154.28 74.903 153.913 76.1746 153.913 76.1746C153.913 76.1746 156.695 74.9699 154.942 68.885C154.942 68.885 154.942 69.61 153.985 69.7997C153.762 69.8443 147.235 69.1248 144.748 68.1767C141.865 67.0612 141.464 66.3919 141.297 65.9903C141.229 65.5873 141.25 65.1741 141.359 64.78Z" fill="#FFD9BB"/>
</g>
<path opacity="0.49" d="M140.368 52.03C140.368 52.03 134.937 58.2823 134.92 58.2934C130.407 63.7537 126.523 69.1135 127.096 74.1611C127.686 79.3592 133.696 80.7758 140.285 82.7168C147.981 81.2165 149.5 80.391 149.5 80.391C149.5 80.391 156.411 78.2047 155.938 72.1588C155.515 66.7097 147.335 54.3614 145.877 53.6028C147.396 54.3446 157.658 66.6985 157.368 71.8242C155.894 81.6515 150.502 82.8674 150.502 82.8674C141.965 86.0297 130.558 84.39 130.558 84.39C130.558 84.39 118.56 83.8936 116.674 73.5364C115.099 68.4387 130.14 54.2052 130.14 54.2052L132.967 53.43C127.197 56.6537 115.344 75.0367 120.575 78.874C125.805 82.7112 134.219 83.5478 134.219 83.5478C134.219 83.5478 126.212 78.4668 125.872 74.3563C125.527 70.3517 127.447 65.4325 128.443 63.9266L135.438 52.8611" fill="#3A2A1B"/>
<g style="mix-blend-mode:soft-light" opacity="0.5">
<path d="M126.546 68.0315C126.546 68.0315 125.01 70.2067 123.652 70.3907C122.709 70.4522 121.769 70.2412 120.942 69.7828L120.291 71.6345C120.291 71.6345 120.97 73.3523 122.11 72.75C122.11 72.75 124.526 71.2273 125.716 73.5141C125.608 71.6486 125.89 69.781 126.546 68.0315Z" fill="#FFD9BB"/>
</g>
<path d="M130.886 214.722C130.886 214.722 134.314 209.63 139.394 209.63C144.475 209.63 148.326 214.722 148.326 214.722L141.314 213.607C140.042 213.403 138.746 213.403 137.475 213.607L130.886 214.722Z" fill="url(#paint33_linear_6934_4040)"/>
<path d="M158.927 210.026C157.814 211.186 153.151 216.005 151.353 216.334C150.607 218.426 152.466 226.992 139.667 226.992C139.667 226.992 128.354 228.348 128.354 216.334C119.545 212.357 112.962 197.276 116.668 189.563L116.702 189.518C122.216 188.531 119.968 188.782 129.801 187.995C136.139 187.482 144.303 187.744 144.303 187.744C144.303 187.744 149.133 187.867 153.902 188.347C162.065 188.804 158.582 188.52 163.601 189.122C164.564 190.829 164.753 194.699 164.814 195.954C164.604 201.202 162.514 206.198 158.927 210.026ZM140.073 254.216C143.028 254.216 148.515 254.048 151.364 253.267C159.05 251.085 166.44 247.964 173.367 243.976C184.931 235.61 187.924 225.079 193.4 212.408C194.847 209.061 196.338 202.296 197.295 198.631C198.074 195.514 198.632 192.346 198.965 189.15C204.869 162.702 195.81 146.243 195.81 146.243C195.382 147.409 195.172 148.643 195.192 149.885C195.637 153.048 196.772 154.738 197.418 159.261C198.392 166.021 197.729 171.626 195.264 179.139C193.901 183.305 191.959 187.505 189.905 189.964C182.799 199.58 174.263 201.409 174.263 201.409C174.263 201.409 173.044 193.355 171.659 189.964C170.93 187.996 169.459 186.394 167.563 185.502C162.21 182.937 151.715 180.996 145.571 180.639C145.571 180.639 142.578 181.754 141.932 181.927C139.973 182.385 138.504 182.346 137.013 181.559C136.072 181.109 135.09 180.75 134.08 180.488C122.712 182.669 122.06 182.379 115.233 184.526C111.705 185.854 111.065 186.411 109.74 189.741C108.188 193.645 107.23 201.398 107.23 201.398C107.23 201.398 98.2435 200.522 89.9799 187.454C87.409 182.775 86.9248 181.615 85.8453 178.369C84.0312 172.909 83.5303 170.282 83.3968 164.955C83.3968 164.548 83.7307 159.478 83.8086 159.043C85.1942 151.363 84.8381 154.386 85.7228 150.069C86.0679 147.046 85.3945 141.53 85.3945 141.53C85.3945 141.53 73.7643 166.461 83.4079 203.534C84.9846 209.966 87.2729 216.201 90.2303 222.123C95.1383 232.073 101.07 240.122 108.355 244.399C114.494 247.887 120.967 250.749 127.675 252.944C131.755 253.783 135.909 254.209 140.073 254.216ZM108.432 239.084C113.719 242.185 118.66 245.593 127.753 247.629C131.898 248.469 136.117 248.884 140.346 248.867" fill="url(#paint34_linear_6934_4040)"/>
<path opacity="0.38" d="M128.387 216.334C128.276 221.404 130.502 227.182 139.645 227.037C149.89 227.037 150.836 221.794 151.381 216.362L150.947 216.485C143.566 218.589 135.74 218.536 128.387 216.334Z" fill="#3A2A1B"/>
<path opacity="0.38" d="M161.024 249.319C166.01 247.794 170.775 245.621 175.198 242.855L179.65 236.106C179.65 236.106 183.283 223.908 180.657 230.043C179.739 232.18 176.717 235.063 172.137 237.974C171.078 238.61 169.96 239.141 168.798 239.558C169.533 238.248 170.512 236.363 171.753 233.685C175.031 226.608 173.662 206.234 173.35 207.996C173.039 209.758 173.784 215.894 170.74 223.825C169.85 226.139 168.626 228.755 167.329 231.309C165.76 234.462 163.51 237.226 160.743 239.399C157.976 241.573 154.761 243.102 151.331 243.875H151.253C148.777 244.433 147.013 242.76 145.332 240.194C144.665 239.183 143.772 238.341 142.725 237.736C141.677 237.13 140.503 236.778 139.296 236.706C138.088 236.634 136.881 236.844 135.769 237.321C134.657 237.798 133.671 238.528 132.889 239.452C130.368 242.375 127.369 244.522 124.609 243.518H124.564C122.9 242.876 121.43 241.81 120.302 240.425C119.174 239.04 118.426 237.384 118.132 235.621C117.669 233.245 117.346 230.845 117.163 228.432C116.88 223.412 116.796 219.664 116.941 218.621C117.085 217.578 114.281 229.129 114.848 233.713C115.344 237.723 115.806 239.118 115.9 239.363C111.181 236.798 102.673 232.972 102.673 232.972L104.509 241.388L115.967 248.332L124.871 251.94L132.405 253.502L145.655 253.691L161.024 249.319Z" fill="#3A2A1B"/>
<path opacity="0.38" d="M84.1647 192.865C84.1647 192.865 83.4079 198.855 83.764 201.738C84.2605 207.095 85.8597 212.291 88.4606 216.998C91.4433 222.837 94.0253 227.483 96.0342 230.043C96.0342 230.043 95.8172 218.593 98.6385 212.396C101.46 206.2 103.346 205.057 103.346 205.057C103.346 205.057 93.8306 209.77 92.8289 218.911C86.5853 211.08 84.1647 192.865 84.1647 192.865Z" fill="#3A2A1B"/>
<path opacity="0.38" d="M195.208 191.415C195.208 191.415 196.032 197.717 195.704 200.751C195.281 206.35 193.741 211.806 191.174 216.797C188.258 222.932 185.748 227.829 183.74 230.523C183.74 230.523 183.834 218.47 180.957 211.95C178.08 205.431 176.166 204.215 176.166 204.215C176.166 204.215 185.704 209.179 186.817 218.799C192.988 210.562 195.208 191.415 195.208 191.415Z" fill="#3A2A1B"/>
<path opacity="0.38" d="M104.409 241.092C103.194 236.513 102.307 231.854 101.755 227.149C101.405 222.095 102.116 217.024 103.841 212.263C105.388 207.756 105.962 207.243 105.962 207.243C105.962 207.243 102.183 211.381 100.653 215.431C99.1837 219.335 97.6033 228.911 98.9388 233.869C100.156 236.683 102.032 239.161 104.409 241.092Z" fill="#3A2A1B"/>
<g style="mix-blend-mode:soft-light" opacity="0.5">
<path d="M169.856 198.609C170.585 201.046 170.816 203.605 170.535 206.133C170.254 208.661 169.466 211.106 168.22 213.322C168.22 213.322 170.151 207.527 169.856 198.609Z" fill="#FFD9BB"/>
</g>
<g style="mix-blend-mode:soft-light" opacity="0.5">
<path d="M163.323 215.882C168.164 211.42 168.887 201.063 168.887 201.063L163.323 215.882Z" fill="#FFD9BB"/>
</g>
<g style="mix-blend-mode:soft-light" opacity="0.5">
<path d="M105.572 213.635L113.173 198.381C113.173 198.381 108.215 202.647 105.572 213.635Z" fill="#FFD9BB"/>
</g>
<g style="mix-blend-mode:soft-light" opacity="0.5">
<path d="M177.218 215.732L177.952 227.612C177.952 227.612 179.466 223.306 177.218 215.732Z" fill="#FFD9BB"/>
</g>
<g style="mix-blend-mode:soft-light" opacity="0.5">
<path d="M113.619 200.784C107.292 213.612 111.332 222.146 111.332 222.146L113.619 200.784Z" fill="#FFD9BB"/>
</g>
</g>
<g clip-path="url(#clip2_6934_4040)">
<path d="M149.085 325.231L149.395 324.695C155.882 326.523 165.563 329.027 167.012 328.999C169.349 326.323 215.133 249.506 255.547 181.662C290.359 123.26 320.433 72.8041 321.7 71.3921C322.487 70.4628 323.488 69.7393 324.618 69.2843C325.748 68.8292 326.973 68.6562 328.187 68.7802L328.092 69.4023C326.983 69.3094 325.869 69.4796 324.841 69.8989C323.812 70.3183 322.898 70.9749 322.173 71.8152C320.937 73.1708 289.435 126.036 256.084 181.972C190.156 292.635 168.051 329.486 167.111 329.545C161.031 328.428 155.014 326.987 149.085 325.231Z" fill="#5A6175"/>
<path d="M132.633 408.339L130.653 407.196C129.903 406.762 129.355 406.05 129.13 405.215C128.905 404.379 129.021 403.49 129.453 402.741L324.082 72.1656C324.082 72.1656 326.707 68.0766 327.742 68.6363C328.777 69.196 326.317 73.4558 326.317 73.4558L136.933 407.097C136.511 407.813 135.831 408.34 135.032 408.571C134.232 408.802 133.374 408.719 132.633 408.339Z" fill="#687EBD"/>
<path d="M281.42 136.718C279.129 135.395 276.871 134.994 276.399 135.812C275.926 136.63 277.358 138.397 279.633 139.748C281.908 141.099 284.182 141.472 284.654 140.654C285.126 139.835 283.695 138.069 281.42 136.718ZM280.019 139.144C278.464 138.245 277.435 137.087 277.728 136.58C278.021 136.072 279.506 136.44 281.062 137.338C282.618 138.236 283.646 139.395 283.369 139.874C283.092 140.354 281.547 140.026 280.019 139.144Z" fill="#99A5C7"/>
<path d="M262.76 168.711C260.469 167.389 258.227 166.96 257.739 167.806C257.25 168.652 258.698 170.391 260.989 171.714C263.28 173.037 265.522 173.466 266.01 172.619C266.499 171.773 265.051 170.034 262.76 168.711ZM261.359 171.138C259.832 170.256 258.775 169.081 259.068 168.574C259.361 168.066 260.818 168.418 262.402 169.332C263.986 170.247 264.986 171.388 264.709 171.868C264.432 172.348 262.887 172.019 261.331 171.121L261.359 171.138Z" fill="#99A5C7"/>
<path d="M244.1 200.705C241.808 199.383 239.567 198.954 239.078 199.8C238.59 200.646 240.037 202.385 242.328 203.708C244.62 205.03 246.861 205.459 247.35 204.613C247.838 203.767 246.391 202.028 244.1 200.705ZM242.715 203.103C241.188 202.221 240.114 201.075 240.408 200.567C240.701 200.06 242.157 200.411 243.741 201.326C245.325 202.241 246.342 203.354 246.049 203.862C245.755 204.37 244.226 204.013 242.671 203.115L242.715 203.103Z" fill="#99A5C7"/>
<path d="M225.411 232.683C223.12 231.36 220.907 230.947 220.418 231.794C219.929 232.64 221.377 234.379 223.668 235.702C225.96 237.024 228.201 237.453 228.69 236.607C229.178 235.761 227.731 234.022 225.411 232.683ZM224.027 235.081C222.499 234.199 221.426 233.053 221.719 232.545C222.012 232.037 223.485 232.361 225.053 233.304C226.621 234.246 227.653 235.332 227.36 235.839C227.067 236.347 225.554 235.963 224.027 235.081Z" fill="#99A5C7"/>
<path d="M206.751 264.677C204.46 263.354 202.218 262.925 201.73 263.771C201.241 264.618 202.717 266.373 205.008 267.695C207.299 269.018 209.541 269.447 210.03 268.601C210.518 267.755 209.042 266 206.751 264.677ZM205.366 267.075C203.839 266.193 202.782 265.018 203.059 264.539C203.336 264.059 204.825 264.355 206.409 265.269C207.993 266.184 208.993 267.326 208.7 267.833C208.407 268.341 206.894 267.957 205.366 267.075Z" fill="#99A5C7"/>
</g>
<g clip-path="url(#clip3_6934_4040)">
<path d="M234.847 103.949C234.847 103.949 238.97 105.027 233.405 106.758C227.84 108.49 214.207 112.348 200.702 109.5C211.565 104.933 225.43 100.687 234.847 103.949Z" fill="#B97B52"/>
<path d="M234.572 106.584C235.86 106.085 236.52 105.587 236.583 105.051C236.689 104.21 235.141 103.752 234.973 103.733C227.349 101.114 215.718 102.968 200.613 109.303C200.558 109.324 200.509 109.358 200.474 109.4C200.44 109.442 200.42 109.49 200.42 109.536C200.417 109.581 200.43 109.622 200.459 109.656C200.487 109.69 200.529 109.714 200.579 109.725C210.003 111.73 221.067 110.802 233.462 106.969C233.815 106.86 234.25 106.709 234.572 106.584ZM204.186 108.325C217.497 103.161 227.761 101.762 234.685 104.17C235.067 104.263 236.101 104.634 236.009 105.097C235.917 105.561 235.403 105.797 234.405 106.185C234.094 106.305 233.739 106.443 233.331 106.601C221.339 110.325 210.618 111.277 201.445 109.473C202.386 109.033 203.295 108.671 204.186 108.325Z" fill="#824726"/>
<path d="M234.847 103.949C234.847 103.949 238.97 105.027 233.405 106.758C227.84 108.49 214.207 112.348 200.702 109.5C211.565 104.933 225.43 100.687 234.847 103.949Z" fill="#A28B6B"/>
<path d="M234.572 106.584C235.86 106.085 236.52 105.587 236.583 105.051C236.689 104.21 235.141 103.752 234.973 103.733C227.349 101.114 215.718 102.968 200.613 109.303C200.558 109.324 200.509 109.358 200.474 109.4C200.44 109.442 200.42 109.49 200.42 109.536C200.417 109.581 200.43 109.622 200.459 109.656C200.487 109.69 200.529 109.714 200.579 109.725C210.003 111.73 221.067 110.802 233.462 106.969C233.815 106.86 234.25 106.709 234.572 106.584ZM204.186 108.325C217.497 103.161 227.761 101.762 234.685 104.17C235.067 104.263 236.101 104.634 236.009 105.097C235.917 105.561 235.403 105.797 234.405 106.185C234.094 106.305 233.739 106.443 233.331 106.601C221.339 110.325 210.618 111.277 201.445 109.473C202.386 109.033 203.295 108.671 204.186 108.325Z" fill="#6F5837"/>
<g style="mix-blend-mode:multiply">
<path d="M234.847 103.949C234.847 103.949 238.97 105.027 233.405 106.758C227.84 108.49 214.207 112.348 200.702 109.5C211.565 104.933 225.43 100.687 234.847 103.949Z" fill="#A28B6B"/>
</g>
<path d="M84.9933 80.8931C89.7005 68.2926 96.8878 49.3195 99.7508 48.4224C139.935 35.8703 176.511 38.049 191.714 40.3398C196.91 40.5546 200.356 54.3051 201.206 75.7839C186.557 80.5566 128.481 97.4481 84.9933 80.8931Z" fill="#A28B6B"/>
<path d="M201.273 75.9901C201.334 75.9678 201.386 75.9303 201.423 75.884C201.459 75.8377 201.476 75.7856 201.471 75.7366C200.592 53.3212 197.047 40.3342 191.766 40.1244C184.35 38.9953 144.902 34.092 99.6971 48.2202L99.6219 48.2494C97.0027 49.2657 91.7784 62.0296 84.7271 80.8756C84.7076 80.9239 84.7061 80.9732 84.723 81.0166C84.7398 81.06 84.7741 81.0954 84.8211 81.118C103.384 88.1847 126.616 90.0004 153.88 86.5796C169.773 84.5406 185.672 80.9927 201.244 76.0106L201.273 75.9901ZM99.7756 48.6453C144.862 34.5629 184.192 39.4471 191.594 40.5722C196.606 40.7564 200.032 53.8825 200.909 75.6571C136.695 96.529 96.4184 84.938 85.3197 80.7479C88.8416 71.331 96.9309 49.749 99.7756 48.6453Z" fill="#6F5837"/>
<path d="M81.9355 89.0236C82.7068 87.0325 83.7608 84.1786 84.961 80.9056C128.45 97.497 186.483 80.5573 201.16 75.7924C201.287 79.0803 201.317 82.5639 201.359 86.1732C201.394 86.1687 137.112 109.475 81.9355 89.0236Z" fill="#2B2B2B"/>
<path d="M201.472 86.3707C201.532 86.348 201.585 86.3116 201.623 86.2667C201.661 86.2218 201.683 86.1708 201.684 86.1211C201.678 82.5724 201.607 79.077 201.471 75.7364C201.477 75.7051 201.474 75.6744 201.463 75.6465C201.453 75.6187 201.434 75.5942 201.409 75.5748C201.377 75.5598 201.34 75.5508 201.301 75.5484C201.262 75.546 201.221 75.5503 201.181 75.5609C136.496 96.6525 96.0775 84.7913 85.1899 80.6679C85.1525 80.6551 85.1104 80.6498 85.0665 80.6523C85.0227 80.6549 84.9783 80.6652 84.9363 80.6827C84.896 80.7001 84.8595 80.7244 84.8301 80.7536C84.8006 80.7829 84.7789 80.8161 84.7668 80.8507L84.257 82.2105C83.2481 84.926 82.3763 87.2629 81.7168 88.9689C81.6932 89.0191 81.69 89.0712 81.7076 89.1166C81.7252 89.1621 81.7627 89.1983 81.814 89.2194C110.376 99.8062 141.386 98.4643 162.384 95.4764C185.122 92.2314 201.344 86.4206 201.505 86.3582L201.472 86.3707ZM200.891 76.1195C201.022 79.3223 201.084 82.6636 201.047 86.0708C188.315 90.2657 175.296 93.2886 162.265 95.0761C141.395 98.0424 110.582 99.3823 82.1977 88.9032C82.8496 87.2094 83.6941 84.9295 84.6775 82.3076L85.0618 81.2289C103.563 88.199 126.69 89.9995 153.825 86.5638C169.614 84.5435 185.412 81.038 200.891 76.1195Z" fill="black"/>
<path d="M31.9481 107.772C32.1688 104.417 68.0742 91.1822 84.7626 87.9852C139.02 108.722 201.923 85.9781 201.923 85.9781C228.297 95.1632 236.484 105.303 236.484 105.303C236.484 105.303 230.185 100.03 203.644 109.873C177.102 119.717 154.176 130.47 100.194 129.22C55.7578 126.821 31.6296 112.836 31.9481 107.772Z" fill="#A28B6B"/>
<path d="M236.568 105.503L236.652 105.471C236.706 105.431 236.743 105.378 236.758 105.323C236.772 105.268 236.762 105.215 236.729 105.172C234.589 102.835 232.103 100.743 229.313 98.9335C221.175 93.5397 212.048 89.1472 202.148 85.8594C202.082 85.8394 202.005 85.8397 201.931 85.8601C201.774 85.9212 186.041 91.5531 163.803 94.6321C143.346 97.4467 113.083 98.5627 85.1722 87.8901C85.1233 87.8741 85.0676 87.8701 85.0109 87.8786C76.4993 89.5136 61.6785 94.1061 48.9682 99.0378C42.6759 101.479 32.142 105.863 32.0136 107.895C31.6539 113.343 57.0838 127.137 100.308 129.45C149.538 130.572 172.489 121.899 196.795 112.709L203.755 110.092C229.749 100.46 236.237 105.428 236.307 105.484C236.341 105.506 236.383 105.52 236.428 105.523C236.474 105.526 236.522 105.52 236.568 105.503ZM201.955 86.2955C211.769 89.5644 220.818 93.9244 228.89 99.2737C231.213 100.831 233.354 102.555 235.296 104.431C232.274 103.362 223.753 102.203 203.551 109.689L196.58 112.31C172.379 121.46 149.46 130.121 100.378 129.006C55.0818 126.58 32.2032 112.333 32.4978 107.837C32.5524 106.89 36.9321 104.153 49.0657 99.4447C61.6502 94.5618 76.4049 89.9856 84.8831 88.3265C112.907 99.0109 143.249 97.8824 163.773 95.0515C176.611 93.3615 189.43 90.4218 201.955 86.2955Z" fill="#6F5837"/>
<path d="M115.576 47.4785C118.649 45.5613 122.33 45.7874 125.694 45.2259C126.044 45.1737 126.748 45.6816 126.23 45.7801C123.202 46.3788 120.161 46.2759 117.217 47.4739C116.53 47.7405 120.295 48.3714 120.863 48.467C122.561 48.7376 124.314 48.8942 126.031 49.0552C132.639 49.5963 139.548 49.2582 146.324 49.1203C153.546 48.9118 160.86 48.1407 168.168 46.8173C174.992 45.6568 182.154 43.5844 188.91 42.9802C188.974 42.9552 189.129 43.0997 188.969 43.1337C176.146 45.3206 163.548 48.9165 150.724 49.6068C139.006 50.2493 126.434 50.6653 115.788 48.0563C115.686 47.9843 115.239 47.6928 115.576 47.4785Z" fill="#824726"/>
<g style="mix-blend-mode:multiply" opacity="0.5">
<g style="mix-blend-mode:multiply">
<path d="M99.7507 48.4224C139.935 35.8703 176.511 38.049 191.714 40.3398C196.17 40.5256 199.325 50.6613 200.676 67.0653L200.547 67.1153C200.547 67.1153 197.426 46.2761 189.156 49.0574C180.886 51.8386 147.523 58.7041 129.616 55.7797C111.709 52.8553 102.105 103.35 201.11 74.5194C201.129 74.9492 201.155 75.3666 201.173 75.7964C186.497 80.5613 128.475 97.4968 84.9748 80.9095C89.7004 68.2926 96.8971 49.3437 99.7507 48.4224Z" fill="#A28B6B"/>
</g>
</g>
<g style="mix-blend-mode:multiply" opacity="0.5">
<g style="mix-blend-mode:multiply">
<path d="M119.385 46.3446C121.769 45.7862 124.175 45.5371 126.509 45.6069C131.593 45.5957 136.72 45.2798 141.84 45.0127C147.218 44.739 152.583 44.5627 157.966 44.3335C163.348 44.1043 168.603 43.8318 173.976 43.1971C176.562 42.8909 179.152 42.5644 181.73 42.4286C184.023 42.1889 186.263 42.329 188.312 42.8402C183.755 43.8275 179.286 45.0411 174.757 46.1012C170.158 47.0682 165.542 47.7499 160.949 48.1399C155.55 48.7383 150.201 49.0848 144.849 49.3299C139.811 49.5556 134.769 49.8016 129.756 49.9338C126.081 50.0117 121.924 50.1838 118.674 49.0651C117.847 48.8092 117.122 48.4114 116.54 47.8944C116.075 47.3962 118.983 46.4541 119.385 46.3446Z" fill="#A28B6B"/>
</g>
</g>
<g style="mix-blend-mode:multiply" opacity="0.5">
<g style="mix-blend-mode:multiply" opacity="0.5">
<g style="mix-blend-mode:multiply">
<path d="M81.9355 89.0236C82.7068 87.0325 83.7608 84.1786 84.961 80.9056C128.45 97.497 186.483 80.5573 201.16 75.7924C201.189 76.5059 201.2 77.2642 201.222 77.99C188.868 81.547 159.372 89.3383 134.876 90.2164C123.553 90.5101 129.111 98.6259 169.136 94.195C145.523 98.2722 112.345 100.297 81.9355 89.0236Z" fill="#2B2B2B"/>
</g>
<g style="mix-blend-mode:multiply">
<path d="M169.25 94.3927C169.311 94.3675 169.363 94.3277 169.397 94.2797C169.432 94.2317 169.448 94.1785 169.442 94.1289C169.435 94.0792 169.408 94.0362 169.363 94.0068C169.318 93.9774 169.259 93.9635 169.196 93.9674C153.729 95.6741 144.34 95.4128 139.199 94.8974C133.08 94.2783 130.186 92.9937 130.049 92.0055C129.975 91.5601 130.542 91.238 131.036 91.0464C132.309 90.6371 133.624 90.4438 134.892 90.4799C159.569 89.5594 189.559 81.5765 201.316 78.2324C201.382 78.2152 201.443 78.1791 201.487 78.1314C201.53 78.0836 201.552 78.0277 201.549 77.9746L201.534 77.1068C201.52 76.6567 201.499 76.1905 201.487 75.777C201.493 75.7456 201.49 75.715 201.479 75.6871C201.468 75.6592 201.45 75.6347 201.424 75.6154C201.392 75.6003 201.356 75.5914 201.317 75.589C201.278 75.5866 201.237 75.5908 201.197 75.6015C136.512 96.693 96.0931 84.8318 85.2056 80.7084C85.1681 80.6956 85.126 80.6903 85.0822 80.6928C85.0383 80.6954 84.9939 80.7057 84.9519 80.7232C84.9116 80.7406 84.8752 80.7649 84.8457 80.7942C84.8162 80.8234 84.7945 80.8567 84.7825 80.8912L84.2726 82.251C83.2637 84.9665 82.392 87.3034 81.7324 89.0095C81.7088 89.0596 81.7056 89.1117 81.7232 89.1571C81.7408 89.2026 81.7783 89.2388 81.8296 89.2599C112.62 100.655 146.334 98.3573 169.186 94.4176L169.25 94.3927ZM130.873 90.6262C129.542 91.1427 129.434 91.7887 129.469 92.1006C129.757 94.0526 138.144 97.0171 161.628 95.1192C139.351 98.1851 109.691 98.9656 82.2634 88.8499C82.9153 87.1561 83.7598 84.8763 84.7325 82.2585L85.1275 81.1757C103.628 88.1457 126.756 89.9462 153.89 86.5105C169.656 84.5048 185.431 81.0172 200.891 76.1197C200.903 76.4683 200.915 76.817 200.919 77.1779L200.944 77.8469C189.057 81.2693 159.375 89.1234 134.928 90.0009C133.591 89.9805 132.21 90.1936 130.873 90.6262Z" fill="black"/>
</g>
</g>
</g>
<g style="mix-blend-mode:multiply" opacity="0.5">
<g style="mix-blend-mode:multiply" opacity="0.5">
<path d="M31.9481 107.772C32.1688 104.417 68.0742 91.1822 84.7626 87.9852C139.02 108.722 201.923 85.9781 201.923 85.9781C207.714 87.9711 213.277 90.295 218.577 92.9355L200.371 90.5733C200.371 90.5733 162.752 103.313 124.218 99.561C107.27 98.1969 93.838 109.008 83.3162 116.36C72.7944 123.711 110.424 128.278 144.817 122.883C179.209 117.488 195.375 107.463 211.472 103.521C217.868 102.028 224.309 100.948 230.733 100.291C232.884 101.787 234.815 103.479 236.5 105.344C236.5 105.344 230.185 100.03 203.644 109.874C177.102 119.717 154.176 130.47 100.194 129.22C55.7579 126.821 31.6296 112.836 31.9481 107.772Z" fill="#A28B6B"/>
</g>
</g>
<g style="mix-blend-mode:screen">
<path d="M198.32 61.0259C197.518 56.3172 195.056 52.9963 192.478 49.1533C192.34 48.956 192.811 49.0242 192.903 49.1003C199.867 55.9272 202.612 65.2911 200.534 75.1337C200.412 75.7108 199.111 75.1928 199.09 74.8198C198.772 70.2117 199.092 65.5605 198.32 61.0259Z" fill="#A28B6B"/>
</g>
<g style="mix-blend-mode:screen">
<path d="M175.062 97.9756C184.175 95.4899 194.618 90.6667 203.734 91.4986C213.288 92.4396 219.742 95.7362 227.571 99.3634C227.829 99.4865 227.744 99.8078 227.402 99.6896C220.254 97.1829 214.274 93.8045 206.067 92.8336C196.341 91.6713 185.893 96.7013 175.998 98.9233C175.381 99.1161 174.112 98.2327 175.062 97.9756Z" fill="#A28B6B"/>
</g>
</g>
</g>
<defs>
<linearGradient id="paint0_linear_6934_4040" x1="75.1666" y1="184.298" x2="75.1666" y2="136.332" gradientUnits="userSpaceOnUse">
<stop stop-color="#EBBFAD"/>
<stop offset="0.81" stop-color="#DB9F91"/>
</linearGradient>
<linearGradient id="paint1_linear_6934_4040" x1="74.1649" y1="168.804" x2="74.1649" y2="142.406" gradientUnits="userSpaceOnUse">
<stop stop-color="#FFEADB"/>
<stop offset="0.99" stop-color="#A865A6"/>
</linearGradient>
<linearGradient id="paint2_linear_6934_4040" x1="79.4123" y1="168.135" x2="79.4123" y2="147.666" gradientUnits="userSpaceOnUse">
<stop stop-color="#FFEADB"/>
<stop offset="0.99" stop-color="#D177F4"/>
</linearGradient>
<linearGradient id="paint3_linear_6934_4040" x1="140.429" y1="280" x2="140.429" y2="210.266" gradientUnits="userSpaceOnUse">
<stop stop-color="#D57C9D"/>
<stop offset="0.13" stop-color="#DB8F9D"/>
<stop offset="0.4" stop-color="#E7B39C"/>
<stop offset="0.54" stop-color="#EBC19C"/>
<stop offset="0.56" stop-color="#E9BD9A"/>
<stop offset="0.67" stop-color="#DCA18A"/>
<stop offset="0.78" stop-color="#D28D7E"/>
<stop offset="0.89" stop-color="#CC8177"/>
<stop offset="1" stop-color="#CA7D75"/>
</linearGradient>
<linearGradient id="paint4_linear_6934_4040" x1="140.429" y1="280" x2="140.429" y2="253.256" gradientUnits="userSpaceOnUse">
<stop offset="0.01" stop-color="#8684F4"/>
<stop offset="1" stop-color="#839AF2"/>
</linearGradient>
<linearGradient id="paint5_linear_6934_4040" x1="160.835" y1="264.065" x2="160.835" y2="220.774" gradientUnits="userSpaceOnUse">
<stop stop-color="#FFEADB"/>
<stop offset="0.99" stop-color="#D177F4"/>
</linearGradient>
<linearGradient id="paint6_linear_6934_4040" x1="177.067" y1="274.724" x2="177.067" y2="258.226" gradientUnits="userSpaceOnUse">
<stop stop-color="#FFEADB"/>
<stop offset="0.99" stop-color="#D177F4"/>
</linearGradient>
<linearGradient id="paint7_linear_6934_4040" x1="97.4977" y1="274.724" x2="97.4977" y2="257.127" gradientUnits="userSpaceOnUse">
<stop stop-color="#FFEADB"/>
<stop offset="0.99" stop-color="#D177F4"/>
</linearGradient>
<linearGradient id="paint8_linear_6934_4040" x1="204.796" y1="184.298" x2="204.796" y2="136.332" gradientUnits="userSpaceOnUse">
<stop stop-color="#EBBFAD"/>
<stop offset="0.81" stop-color="#DB9F91"/>
</linearGradient>
<linearGradient id="paint9_linear_6934_4040" x1="205.798" y1="168.804" x2="205.798" y2="142.406" gradientUnits="userSpaceOnUse">
<stop stop-color="#FFEADB"/>
<stop offset="0.99" stop-color="#A865A6"/>
</linearGradient>
<linearGradient id="paint10_linear_6934_4040" x1="200.556" y1="168.135" x2="200.556" y2="147.666" gradientUnits="userSpaceOnUse">
<stop stop-color="#FFEADB"/>
<stop offset="0.99" stop-color="#D177F4"/>
</linearGradient>
<linearGradient id="paint11_linear_6934_4040" x1="139.717" y1="233.34" x2="139.717" y2="81.5736" gradientUnits="userSpaceOnUse">
<stop offset="0.01" stop-color="#D58F9D"/>
<stop offset="0.23" stop-color="#E2ABA6"/>
<stop offset="0.37" stop-color="#EBBFAD"/>
<stop offset="0.6" stop-color="#E7B2A2"/>
<stop offset="0.68" stop-color="#E5AD9D"/>
<stop offset="1" stop-color="#DFA596"/>
</linearGradient>
<linearGradient id="paint12_linear_6934_4040" x1="174.157" y1="230.724" x2="174.157" y2="78.1881" gradientUnits="userSpaceOnUse">
<stop stop-color="#FFEADB"/>
<stop offset="0.72" stop-color="#D5B2D0"/>
</linearGradient>
<linearGradient id="paint13_linear_6934_4040" x1="106.485" y1="230.858" x2="106.485" y2="77.0613" gradientUnits="userSpaceOnUse">
<stop stop-color="#FFEADB"/>
<stop offset="0.72" stop-color="#D5B2D0"/>
</linearGradient>
<linearGradient id="paint14_linear_6934_4040" x1="139.934" y1="159.997" x2="139.934" y2="179.217" gradientUnits="userSpaceOnUse">
<stop stop-color="#DB9F91"/>
<stop offset="1" stop-color="#F9A6A7"/>
</linearGradient>
<linearGradient id="paint15_linear_6934_4040" x1="151.837" y1="177.945" x2="144.848" y2="177.945" gradientUnits="userSpaceOnUse">
<stop stop-color="#721E24"/>
<stop offset="1" stop-color="#510036"/>
</linearGradient>
<linearGradient id="paint16_linear_6934_4040" x1="127.973" y1="177.877" x2="134.962" y2="177.918" gradientUnits="userSpaceOnUse">
<stop stop-color="#721E24"/>
<stop offset="1" stop-color="#510036"/>
</linearGradient>
<linearGradient id="paint17_linear_6934_4040" x1="125.444" y1="166.807" x2="130.919" y2="166.807" gradientUnits="userSpaceOnUse">
<stop stop-color="#FFEADB"/>
<stop offset="0.99" stop-color="#D177F4"/>
</linearGradient>
<linearGradient id="paint18_linear_6934_4040" x1="148.838" y1="166.807" x2="154.308" y2="166.807" gradientUnits="userSpaceOnUse">
<stop stop-color="#FFEADB"/>
<stop offset="0.99" stop-color="#D177F4"/>
</linearGradient>
<linearGradient id="paint19_linear_6934_4040" x1="165.53" y1="185.501" x2="156.839" y2="164.964" gradientUnits="userSpaceOnUse">
<stop stop-color="#FFEADB"/>
<stop offset="0.99" stop-color="#D177F4"/>
</linearGradient>
<linearGradient id="paint20_linear_6934_4040" x1="114.509" y1="184.873" x2="123.197" y2="164.343" gradientUnits="userSpaceOnUse">
<stop stop-color="#FFEADB"/>
<stop offset="0.99" stop-color="#D177F4"/>
</linearGradient>
<linearGradient id="paint21_linear_6934_4040" x1="140.023" y1="155.2" x2="139.308" y2="54.6905" gradientUnits="userSpaceOnUse">
<stop stop-color="#9B807C"/>
<stop offset="0.41" stop-color="#5A4A4B"/>
<stop offset="1" stop-color="#403635"/>
</linearGradient>
<linearGradient id="paint22_linear_6934_4040" x1="89.4567" y1="149.132" x2="103.498" y2="44.8492" gradientUnits="userSpaceOnUse">
<stop offset="0.06" stop-color="#9B807C"/>
<stop offset="0.42" stop-color="#6D504B"/>
<stop offset="0.65" stop-color="#6B4F4A"/>
<stop offset="0.78" stop-color="#624A45"/>
<stop offset="0.89" stop-color="#55413C"/>
<stop offset="0.98" stop-color="#413530"/>
<stop offset="1" stop-color="#3C322D"/>
</linearGradient>
<linearGradient id="paint23_linear_6934_4040" x1="129.728" y1="123.852" x2="90.5422" y2="128.476" gradientUnits="userSpaceOnUse">
<stop stop-color="#31201A"/>
<stop offset="1" stop-color="#8B6863"/>
</linearGradient>
<linearGradient id="paint24_linear_6934_4040" x1="150.683" y1="123.692" x2="189.869" y2="128.316" gradientUnits="userSpaceOnUse">
<stop stop-color="#31201A"/>
<stop offset="1" stop-color="#8B6863"/>
</linearGradient>
<linearGradient id="paint25_linear_6934_4040" x1="111.756" y1="150.516" x2="110.501" y2="134.866" gradientUnits="userSpaceOnUse">
<stop stop-color="#EEE2FF"/>
<stop offset="1" stop-color="#BDC9FB"/>
</linearGradient>
<linearGradient id="paint26_linear_6934_4040" x1="113.548" y1="149.082" x2="112.452" y2="134.802" gradientUnits="userSpaceOnUse">
<stop stop-color="#471F4B"/>
<stop offset="1" stop-color="#310A39"/>
</linearGradient>
<linearGradient id="paint27_linear_6934_4040" x1="113.516" y1="148.665" x2="112.484" y2="135.219" gradientUnits="userSpaceOnUse">
<stop stop-color="#57335B"/>
<stop offset="1" stop-color="#310A39"/>
</linearGradient>
<linearGradient id="paint28_linear_6934_4040" x1="114.238" y1="146.138" x2="113.536" y2="137.387" gradientUnits="userSpaceOnUse">
<stop stop-color="#A79ABD"/>
<stop offset="0.99" stop-color="#724A60"/>
</linearGradient>
<linearGradient id="paint29_linear_6934_4040" x1="168.043" y1="148.91" x2="169.242" y2="133.3" gradientUnits="userSpaceOnUse">
<stop stop-color="#EEE2FF"/>
<stop offset="1" stop-color="#BDC9FB"/>
</linearGradient>
<linearGradient id="paint30_linear_6934_4040" x1="166.857" y1="149.194" x2="167.953" y2="134.913" gradientUnits="userSpaceOnUse">
<stop stop-color="#471F4B"/>
<stop offset="1" stop-color="#310A39"/>
</linearGradient>
<linearGradient id="paint31_linear_6934_4040" x1="166.889" y1="148.777" x2="167.921" y2="135.33" gradientUnits="userSpaceOnUse">
<stop stop-color="#57335B"/>
<stop offset="1" stop-color="#310A39"/>
</linearGradient>
<linearGradient id="paint32_linear_6934_4040" x1="167.069" y1="146.419" x2="167.739" y2="137.694" gradientUnits="userSpaceOnUse">
<stop stop-color="#A79ABD"/>
<stop offset="0.99" stop-color="#724A60"/>
</linearGradient>
<linearGradient id="paint33_linear_6934_4040" x1="139.606" y1="196.824" x2="139.606" y2="224.611" gradientUnits="userSpaceOnUse">
<stop stop-color="#31201A"/>
<stop offset="0.04" stop-color="#382620"/>
<stop offset="0.28" stop-color="#5C423D"/>
<stop offset="0.51" stop-color="#765752"/>
<stop offset="0.71" stop-color="#86645F"/>
<stop offset="0.87" stop-color="#8B6863"/>
</linearGradient>
<linearGradient id="paint34_linear_6934_4040" x1="140.218" y1="146.026" x2="140.218" y2="290.803" gradientUnits="userSpaceOnUse">
<stop stop-color="#9B807C"/>
<stop offset="0.41" stop-color="#5A4A4B"/>
<stop offset="1" stop-color="#403635"/>
</linearGradient>
<clipPath id="clip0_6934_4040">
<rect width="280" height="280" fill="white"/>
</clipPath>
<clipPath id="clip1_6934_4040">
<rect width="193.252" height="229.325" fill="white" transform="translate(43.8037 50.6748)"/>
</clipPath>
<clipPath id="clip2_6934_4040">
<rect width="49.6796" height="394.514" fill="white" transform="translate(290.877 47.2393) rotate(30)"/>
</clipPath>
<clipPath id="clip3_6934_4040">
<rect width="196.593" height="103.209" fill="white" transform="matrix(-0.932282 0.361733 0.361733 0.932282 199.6 9.44775)"/>
</clipPath>
</defs>
</svg>
