<svg width="280" height="280" viewBox="0 0 280 280" fill="none" xmlns="http://www.w3.org/2000/svg">
<rect width="280" height="280" rx="20" fill="#ECEDCB"/>
<path d="M83.2258 145.785C83.2258 145.785 76.1941 134.277 68.0007 134.835C62.4464 135.207 58.5104 138.949 58.6006 145.728C58.7247 154.796 66.7601 165.098 68.7507 170.389C70.7412 175.681 75.9403 182.562 79.3857 183.227C82.8311 183.892 87.3196 177.372 87.3196 177.372C87.3196 177.372 85.1035 154.007 83.2258 145.785Z" fill="url(#paint0_linear_6934_3683)"/>
<path style="mix-blend-mode:multiply" opacity="0.6" d="M83.2256 157.558C83.2256 157.558 69.7937 140.95 64.8991 140.95C60.0045 140.95 60.0102 150.395 61.9838 155.788C63.3484 159.519 66.0156 164.912 66.0156 164.912C66.0156 164.912 63.901 159.119 63.6529 154.768C63.2638 148.101 64.7469 143.255 66.4329 143.266C69.5287 143.266 71.9647 147.515 72.3538 149.02C72.7429 150.524 69.9065 157.101 70.6621 161.688C71.4177 166.276 74.1639 168.023 75.083 167.521C76.0021 167.019 74.5811 161.852 75.4157 160.02C76.2503 158.189 78.6693 155.512 80.0847 156.075C81.5001 156.639 83.2256 157.558 83.2256 157.558Z" fill="url(#paint1_linear_6934_3683)"/>
<path style="mix-blend-mode:multiply" opacity="0.6" d="M83.2258 157.557C83.2258 157.557 79.9101 155.574 78.9007 156.205C77.8914 156.836 75.3313 159.141 75.2242 160.589C75.117 162.038 76.0362 166.157 75.2242 166.873C74.4122 167.589 71.4856 162.928 71.3559 158.842C71.2262 154.757 73.5269 150.006 73.5269 149.454C73.5269 148.901 72.963 146.264 72.963 146.264C72.963 146.264 80.8292 153.658 83.2258 157.557Z" fill="url(#paint2_linear_6934_3683)"/>
<path d="M95.9696 209.517C95.9696 209.517 94.4922 250.419 93.4941 254.308C92.4961 258.196 41.2271 279.977 41.2271 279.977H237.055C237.055 279.977 181.343 260.309 179.843 255.807C178.343 251.304 178.281 212.571 178.281 212.571L95.9696 209.517Z" fill="url(#paint3_linear_6934_3683)"/>
<path d="M93.686 253.164C93.686 253.164 89.5978 252.69 89.1749 253.164C88.752 253.637 89.1749 256.86 89.1749 256.86L41.2441 279.966H237.055L185.347 257.987C185.347 257.987 183.565 253.096 179.843 255.818L181.117 257.655C181.117 257.655 163.772 276.213 134.878 276.213C105.985 276.213 93.686 253.164 93.686 253.164Z" fill="url(#paint4_linear_6934_3683)"/>
<g style="mix-blend-mode:multiply" opacity="0.6">
<path d="M95.293 227.116C95.293 227.116 104.947 229.827 107.281 233.997C109.616 238.168 124.627 269.501 136.474 270.008C148.321 270.515 155.99 253.84 161.996 250.002C168.001 246.164 178.879 245.888 178.879 245.888L178.258 211.574L95.9809 210.21L95.293 227.116Z" fill="#D177B8"/>
</g>
<path style="mix-blend-mode:multiply" opacity="0.6" d="M151.936 232.639L148.885 263.877C148.885 263.877 156.216 255.643 159.994 249.641C163.772 243.64 170.753 220.134 170.753 220.134L151.936 232.639Z" fill="url(#paint5_linear_6934_3683)"/>
<path style="mix-blend-mode:multiply" opacity="0.6" d="M185.346 257.976C185.346 257.976 172.766 269.309 159.819 274.646C159.819 274.646 185.527 266.475 192.722 261.121L185.346 257.976Z" fill="url(#paint6_linear_6934_3683)"/>
<path style="mix-blend-mode:multiply" opacity="0.6" d="M89.1576 256.861C95.8595 263.365 103.081 269.313 110.749 274.646C110.749 274.646 94.4751 270.301 80.5244 261.025L89.1576 256.861Z" fill="url(#paint7_linear_6934_3683)"/>
<g style="mix-blend-mode:multiply" opacity="0.6">
<path d="M101.236 262.665C101.236 262.665 114.352 274.646 137.089 274.646C159.825 274.646 173.584 263.877 173.584 263.877C173.584 263.877 157.936 276.202 134.861 276.202C111.787 276.202 101.236 262.665 101.236 262.665Z" fill="#D177B8"/>
</g>
<path d="M194.132 145.785C194.132 145.785 201.164 134.277 209.357 134.835C214.911 135.207 218.847 138.949 218.757 145.728C218.633 154.796 210.598 165.098 208.607 170.389C206.616 175.681 201.423 182.562 197.972 183.227C194.521 183.892 190.038 177.372 190.038 177.372C190.038 177.372 192.282 154.007 194.132 145.785Z" fill="url(#paint8_linear_6934_3683)"/>
<path style="mix-blend-mode:multiply" opacity="0.6" d="M194.132 157.558C194.132 157.558 207.586 140.95 212.481 140.95C217.375 140.95 217.37 150.395 215.396 155.788C214.032 159.519 211.364 164.912 211.364 164.912C211.364 164.912 213.479 159.119 213.733 154.768C214.122 148.101 212.639 143.255 210.953 143.266C207.857 143.266 205.415 147.515 205.026 149.02C204.637 150.524 207.474 157.101 206.718 161.688C205.962 166.276 203.216 168.023 202.297 167.521C201.378 167.019 202.799 161.852 201.964 160.02C201.13 158.189 198.711 155.512 197.295 156.075C195.88 156.639 194.132 157.558 194.132 157.558Z" fill="url(#paint9_linear_6934_3683)"/>
<path style="mix-blend-mode:multiply" opacity="0.6" d="M194.132 157.557C194.132 157.557 197.448 155.574 198.457 156.205C199.466 156.836 202.026 159.141 202.133 160.589C202.241 162.038 201.321 166.157 202.133 166.873C202.945 167.589 205.872 162.928 206.002 158.842C206.131 154.757 203.831 150.006 203.831 149.454C203.831 148.901 204.366 146.264 204.366 146.264C204.366 146.264 196.568 153.658 194.132 157.557Z" fill="url(#paint10_linear_6934_3683)"/>
<path d="M195.175 147.03C199.748 162.348 195.902 168.366 194.611 178.448C193.32 188.53 190.715 196.544 189.119 200.342C188.216 202.286 187.003 204.069 185.527 205.623C180.982 210.734 173.758 216.11 168.864 221.154C167.134 222.92 165.268 224.546 163.281 226.017H163.253C160.653 227.998 157.829 229.666 154.84 230.988C150.176 232.904 138.075 232.904 138.075 232.904C138.075 232.904 125.98 232.904 121.316 230.988C116.065 228.626 111.308 225.291 107.298 221.16C101.518 215.203 93.5166 208.716 89.4848 202.822C88.8871 201.96 87.7931 198.843 87.4322 198.009C86 194.594 84.4718 188.006 83.079 179.232C82.752 177.199 82.376 175.172 81.9512 173.151C79.1825 159.879 80.8234 154.897 83.0001 145.402C84.1278 116.261 76.5153 98.103 79.4024 90.3147C82.2896 82.5265 118.931 61.9231 138.047 61.9231C151.473 61.9231 172.8 69.2211 185.047 78.0519C190.247 81.8051 194.549 88.0436 195.412 90.3598C198.321 98.1424 192.299 137.394 195.175 147.03Z" fill="url(#paint11_linear_6934_3683)"/>
<path style="mix-blend-mode:multiply" opacity="0.6" d="M188.623 188.542C186.367 196.995 180.982 207.319 177.136 212.244C173.928 216.353 165.176 225.544 164.415 226.249C166.386 224.778 168.235 223.151 169.946 221.385C175.642 214.476 188.217 203.864 188.651 201.182C190.664 197.44 193.495 187.888 194.854 177.44C196.111 167.262 199.365 163.757 195.587 148.417C192.361 139.231 198.085 101.045 195.214 93.2566C194.363 90.9404 183.164 78.1929 178.004 74.4453C188.155 88.9962 186.818 99.0668 186.531 103.62C186.531 103.665 186.531 103.71 186.531 103.761C186.226 110.332 179.363 115.46 172.777 115.393L164.573 116.03L153.233 122.06C153.233 122.06 149.111 130.473 149.607 139.704C149.911 145.34 151.834 148.952 160.231 152.407C164.556 154.182 175.388 151.398 181.095 150.846C183.272 150.599 185.467 151.123 187.297 152.328C188.516 153.168 189.524 154.278 190.244 155.571C190.964 156.864 191.376 158.306 191.448 159.784C191.758 164.872 191.098 179.288 188.623 188.542Z" fill="url(#paint12_linear_6934_3683)"/>
<path style="mix-blend-mode:multiply" opacity="0.6" d="M89.1069 189.268C91.3625 197.722 96.7477 208.046 100.588 212.966C103.796 217.074 112.554 226.271 113.309 226.975C111.337 225.504 109.487 223.876 107.777 222.106C102.082 215.203 89.7329 204.557 89.0788 201.903C87.0657 198.161 84.2688 188.136 82.876 178.166C81.5226 168.282 78.3648 164.483 82.1429 149.144C85.2669 139.265 79.6392 101.766 82.5094 93.9778C83.3665 91.6672 94.4583 79.7369 99.6179 75.9893C89.4678 90.5457 90.9058 99.7879 91.1934 104.347C91.1934 104.392 91.1934 104.437 91.1934 104.482C91.4922 111.059 98.3604 116.187 104.947 116.114L111.815 116.041L124.491 122.803C127.613 127.216 129.127 132.564 128.782 137.957C128.478 143.593 125.354 149.989 116.698 152.756C109.802 154.965 102.336 152.142 96.6462 151.584C94.4688 151.338 92.274 151.862 90.4434 153.066C89.2265 153.908 88.2195 155.018 87.4999 156.311C86.7804 157.604 86.3675 159.044 86.2931 160.522C85.9717 165.594 86.6089 180.015 89.1069 189.268Z" fill="url(#paint13_linear_6934_3683)"/>
<g style="mix-blend-mode:multiply" opacity="0.6">
<path d="M186.085 204.98C180.61 209.928 174.311 216.849 169.417 221.887C167.691 223.656 165.826 225.284 163.84 226.756C161.231 228.732 158.4 230.397 155.404 231.715C150.735 233.631 138.64 233.631 138.64 233.631C138.64 233.631 126.544 233.631 121.881 231.715C116.628 229.355 111.871 226.02 107.862 221.887C102.082 215.93 93.4323 208.519 89.4287 202.613C93.4935 207.197 97.8744 211.49 102.539 215.462C109.447 221.222 120.956 232.188 138.64 232.188C156.323 232.188 169.575 219.08 172.332 217.074C175.089 215.068 185.724 205.262 186.085 204.98Z" fill="#D177B8"/>
</g>
<path d="M155.517 145.666C155.517 147.977 164.195 149.837 171.644 149.251C178.85 148.687 182.815 145.018 182.561 140.268C182.307 135.517 177.283 132.519 169.439 133.567C160.857 134.694 155.5 140.194 155.517 145.666Z" fill="url(#paint14_linear_6934_3683)"/>
<path d="M155.861 143.238C155.792 144.02 155.897 144.808 156.169 145.544C156.441 146.281 156.873 146.948 157.434 147.498C157.434 147.498 155.178 147.019 155.038 145.881C154.897 144.742 155.861 143.238 155.861 143.238Z" fill="#DD4C6A"/>
<path d="M167.545 149.904C172.026 149.904 175.659 146.274 175.659 141.795C175.659 137.316 172.026 133.686 167.545 133.686C163.063 133.686 159.43 137.316 159.43 141.795C159.43 146.274 163.063 149.904 167.545 149.904Z" fill="url(#paint15_linear_6934_3683)"/>
<path d="M167.544 149.425C171.761 149.425 175.179 146.009 175.179 141.795C175.179 137.581 171.761 134.165 167.544 134.165C163.328 134.165 159.909 137.581 159.909 141.795C159.909 146.009 163.328 149.425 167.544 149.425Z" fill="url(#paint16_linear_6934_3683)"/>
<path style="mix-blend-mode:multiply" d="M167.544 146.749C170.282 146.749 172.501 144.531 172.501 141.795C172.501 139.059 170.282 136.841 167.544 136.841C164.807 136.841 162.588 139.059 162.588 141.795C162.588 144.531 164.807 146.749 167.544 146.749Z" fill="url(#paint17_linear_6934_3683)"/>
<path d="M173.285 140.995C172.783 141.316 175.055 141.491 176.77 141.04C178.309 140.628 179.07 139.913 178.929 139.755C178.788 139.597 175.275 139.727 173.285 140.995Z" fill="white"/>
<path d="M171.982 141.282C171.345 141.085 170.578 141.316 170.539 141.581C170.499 141.846 171.283 142.218 171.666 142.144C172.05 142.071 172.32 141.395 171.982 141.282Z" fill="white"/>
<g style="mix-blend-mode:multiply" opacity="0.6">
<path d="M156.718 141.045C156.718 141.045 168.131 132.885 182.792 140.752L182.679 139.924C182.679 139.924 182.318 136.295 171.542 134.987C160.767 133.68 156.718 141.045 156.718 141.045Z" fill="#D177B8"/>
</g>
<path d="M157.434 147.498C157.434 147.498 163.338 150.919 172.157 150.316C178.687 149.854 180.982 145.244 180.982 145.244C180.982 145.244 172.845 150.124 157.434 147.498Z" fill="#B47C62"/>
<path d="M158.077 139.129C158.077 139.129 162.65 130.479 171.142 130.541C179.634 130.603 182.375 137.512 182.375 137.512C182.375 137.512 167.668 131.369 158.077 139.129Z" fill="#C6546F"/>
<path d="M157.434 139.901C157.434 139.901 161.217 135.957 170.127 136.52C179.036 137.084 182.888 139.901 182.888 139.901C182.888 139.901 183.187 138.284 182.888 137.777C182.589 137.27 165.441 129.059 157.434 139.901Z" fill="#5B164A"/>
<path d="M121.209 145.537C121.266 147.842 112.644 149.938 105.183 149.549C97.9656 149.177 93.9056 145.605 94.0296 140.859C94.1537 136.114 99.1046 132.97 106.965 133.798C115.576 134.694 121.079 140.065 121.209 145.537Z" fill="url(#paint18_linear_6934_3683)"/>
<path d="M120.803 143.147C120.893 143.927 120.808 144.716 120.556 145.458C120.303 146.201 119.889 146.878 119.343 147.442C119.343 147.442 121.57 146.906 121.694 145.751C121.818 144.596 120.803 143.147 120.803 143.147Z" fill="#DD4C6A"/>
<path d="M109.086 150.096C113.567 150.096 117.2 146.465 117.2 141.987C117.2 137.508 113.567 133.877 109.086 133.877C104.604 133.877 100.971 137.508 100.971 141.987C100.971 146.465 104.604 150.096 109.086 150.096Z" fill="url(#paint19_linear_6934_3683)"/>
<path d="M109.086 149.617C113.303 149.617 116.721 146.201 116.721 141.987C116.721 137.772 113.303 134.356 109.086 134.356C104.869 134.356 101.451 137.772 101.451 141.987C101.451 146.201 104.869 149.617 109.086 149.617Z" fill="url(#paint20_linear_6934_3683)"/>
<path style="mix-blend-mode:multiply" d="M109.086 146.94C111.823 146.94 114.042 144.722 114.042 141.987C114.042 139.251 111.823 137.033 109.086 137.033C106.348 137.033 104.129 139.251 104.129 141.987C104.129 144.722 106.348 146.94 109.086 146.94Z" fill="url(#paint21_linear_6934_3683)"/>
<path d="M103.323 141.339C103.836 141.648 101.569 141.902 99.8436 141.474C98.2929 141.107 97.5091 140.392 97.6444 140.251C97.7797 140.11 101.298 140.121 103.323 141.339Z" fill="white"/>
<path d="M104.654 141.592C105.285 141.378 106.052 141.592 106.097 141.851C106.142 142.11 105.37 142.511 104.969 142.415C104.569 142.319 104.281 141.71 104.654 141.592Z" fill="white"/>
<g style="mix-blend-mode:multiply" opacity="0.6">
<path d="M120.443 141.772C120.443 141.772 108.894 133.426 93.8945 141.282L94.0186 140.443C94.0186 140.443 94.4133 136.774 105.404 135.534C116.394 134.294 120.443 141.772 120.443 141.772Z" fill="#D177B8"/>
</g>
<path d="M119.343 147.414C119.343 147.414 113.529 150.998 104.682 150.603C98.1405 150.316 95.7271 145.768 95.7271 145.768C95.7271 145.768 104.005 150.474 119.343 147.414Z" fill="#B47C62"/>
<path d="M119.021 139.766C119.021 139.766 114.51 131.059 105.996 131.02C97.4808 130.98 94.6162 137.845 94.6162 137.845C94.6162 137.845 109.48 131.877 119.021 139.766Z" fill="#C6546F"/>
<path d="M119.738 140.611C119.738 140.611 115.948 136.61 106.943 137.095C97.9377 137.58 94.0243 140.442 94.0243 140.442C94.0243 140.442 93.7367 138.797 94.0243 138.29C94.3119 137.782 111.73 129.56 119.738 140.611Z" fill="#5B164A"/>
<path d="M152.167 178.583C148.784 179.147 148.192 177.71 145.276 177.71C142.361 177.71 141.397 179.649 138.825 179.649C136.254 179.649 135.284 177.71 132.375 177.71C129.465 177.71 128.878 179.164 125.489 178.583C122.433 178.059 121.029 171.426 122.394 167.273C122.394 167.273 122.394 167.273 122.394 167.245C122.539 166.805 122.728 166.38 122.958 165.977C125.213 162.1 134.309 158.025 138.82 158.025C143.331 158.025 152.449 162.1 154.682 165.977C155.046 166.628 155.312 167.328 155.472 168.056C156.447 172.21 155.032 178.088 152.167 178.583Z" fill="url(#paint22_linear_6934_3683)"/>
<g style="mix-blend-mode:multiply" opacity="0.6">
<path d="M152.167 178.583C148.784 179.147 148.192 177.71 145.276 177.71C142.361 177.71 141.397 179.648 138.825 179.648C136.254 179.648 135.284 177.71 132.375 177.71C129.465 177.71 128.878 179.164 125.489 178.583C122.433 178.059 121.029 171.426 122.394 167.273C122.292 167.667 121.429 171.471 123.239 174.498C123.894 175.591 125.269 175.625 126.459 175.157C129.126 174.12 133.79 172.007 139.818 172.069C144.893 172.119 148.964 174.244 150.943 174.96C152.28 175.439 153.763 175.23 154.327 173.917C155.094 172.058 155.492 170.067 155.5 168.056C156.447 172.21 155.032 178.087 152.167 178.583Z" fill="#D077B7"/>
</g>
<path d="M151.423 178.206C153.114 178.166 149.951 171.612 144.526 176.735C144.526 176.735 149.573 178.431 151.423 178.206Z" fill="url(#paint23_linear_6934_3683)"/>
<path d="M126.341 177.868C124.677 177.676 129.42 171.81 133.344 177.028C133.344 177.028 127.593 178.014 126.341 177.868Z" fill="url(#paint24_linear_6934_3683)"/>
<path style="mix-blend-mode:multiply" opacity="0.6" d="M123.578 165.154C125.873 163.971 127.79 166.873 129.014 167.921C130.237 168.969 127.773 164.371 124.982 163.413L123.578 165.154Z" fill="url(#paint25_linear_6934_3683)"/>
<path style="mix-blend-mode:multiply" opacity="0.6" d="M153.949 165.126C151.654 163.903 149.742 166.907 148.513 167.994C147.284 169.082 149.827 164.32 152.618 163.345L153.949 165.126Z" fill="url(#paint26_linear_6934_3683)"/>
<path opacity="0.7" d="M142.073 168.834C141.831 169.364 141.34 171.117 142.727 171.308C143.281 171.359 143.838 171.274 144.351 171.058C144.863 170.843 145.315 170.505 145.665 170.074C145.717 169.88 145.73 169.677 145.703 169.478C145.675 169.279 145.609 169.087 145.507 168.913C145.406 168.74 145.271 168.588 145.11 168.467C144.949 168.346 144.766 168.258 144.571 168.209C143.562 168.011 142.502 167.91 142.073 168.834Z" fill="#FFCDBD"/>
<path d="M124.801 54.2362C131.186 51.588 138.18 50.7628 145.006 51.8524C156.582 53.6332 169.061 61.7371 169.061 61.7371L134.873 75.5666L116.901 65.3776L124.801 54.2362Z" fill="#3A2A1B"/>
<path d="M102.398 62.6445C109.531 58.0341 117.268 54.4308 125.388 51.937C130.296 50.4456 135.51 50.2726 140.506 51.4355C140.506 51.4355 123.657 55.6452 122.208 64.7014C122.422 64.2393 133.559 54.8675 144.041 52.4499C149.596 51.1706 149.911 50.9734 158.759 52.0159C159.029 52.0863 159.288 52.1965 159.526 52.3428C159.526 52.3428 147.684 57.9445 148.71 63.5123C149.207 63.1066 164.872 53.4586 179.442 61.9682C176.654 61.4528 173.808 61.32 170.984 61.5737C170.984 61.5737 176.003 62.543 183.452 68.8266C185.962 70.9735 188.276 73.3404 190.365 75.8991C196.444 83.5127 201.327 93.3692 202.207 102.544C202.207 102.544 202.551 109.199 201.705 114.485L199.348 139.468L194.606 145.965C192.615 139.98 191.848 133.656 192.35 127.368C192.451 124.781 193.404 117.512 193.478 114.063C193.63 111.047 193.458 108.024 192.965 105.046C192.502 101.411 192.034 98.4693 190.354 94.6034C188.871 91.177 186.012 82.1771 176.944 74.5523C172.602 70.9061 162.926 68.3532 156.949 69.0858C140.37 71.0808 144.476 81.1796 130.113 82.4532C102.274 84.9103 114.719 68.7984 114.719 68.7984C114.719 68.7984 96.5053 74.124 87.2801 89.3736C84.3929 94.1356 83.7106 101.09 85.2106 106.382C86.2933 110.191 83.4118 116.875 83.2539 119.76C83.2539 133.657 83.0058 145.396 83.0058 145.396C83.0058 145.396 76.5943 138.385 76.5774 138.16C76.4139 136.075 76.0135 124.905 75.038 115.246C74.4741 109.611 73.4422 103.902 74.1809 98.289C74.4459 96.294 76.4872 90.078 78.754 85.7782C81.3987 80.7682 88.6616 71.6556 93.4885 68.6801L102.398 62.6445Z" fill="url(#paint27_linear_6934_3683)"/>
<path d="M152.128 126.399C152.128 126.399 154.868 125.091 161.573 124.646C163.563 124.511 165.898 124.46 168.616 124.533C175.445 124.679 182.249 125.434 188.944 126.788C188.871 126.579 185.437 121.434 181.168 119.219C181.522 119.79 181.717 120.446 181.732 121.118C178.216 118.746 174.267 117.087 170.11 116.238C168.82 115.98 167.511 115.828 166.197 115.782C163.75 115.658 161.314 116.17 159.126 117.27C156.937 118.369 155.072 120.018 153.712 122.054C153.815 121.079 154.173 120.148 154.75 119.354C154.75 119.354 152.02 121.287 152.128 126.399Z" fill="url(#paint28_linear_6934_3683)"/>
<g style="mix-blend-mode:multiply" opacity="0.6">
<path d="M161.606 124.646C163.597 124.511 165.931 124.46 168.649 124.533C175.479 124.679 182.282 125.434 188.978 126.788C188.904 126.579 185.47 121.434 181.202 119.219C181.556 119.79 181.751 120.446 181.766 121.118C178.249 118.746 174.3 117.087 170.144 116.238C172.529 117.365 177.722 119.862 180.801 123.846C180.779 123.868 174.271 121.795 161.606 124.646Z" fill="#CF77B6"/>
</g>
<path d="M159.791 185.008C159.791 185.008 162.853 187.741 163.738 189.77C163.738 189.77 164.234 186.225 161.765 184.535L159.791 185.008Z" fill="#C4654C"/>
<path d="M117.493 185.008C117.493 185.008 114.431 187.741 113.546 189.77C113.546 189.77 113.056 186.225 115.52 184.535L117.493 185.008Z" fill="#C4654C"/>
<path d="M116.388 187.352C116.388 187.352 123.093 189.533 139.395 189.533C155.697 189.533 161.263 187.104 161.263 187.104C161.263 187.104 153.492 190.796 138.566 190.796C123.64 190.796 116.388 187.352 116.388 187.352Z" fill="#C4654C"/>
<path d="M125.213 126.59C125.213 126.59 122.529 125.176 115.847 124.466C113.862 124.252 111.527 124.105 108.809 124.077C101.979 123.958 95.1511 124.449 88.4077 125.542C88.4923 125.339 92.1294 120.329 96.477 118.289C96.1077 118.849 95.8936 119.497 95.8567 120.166C99.4651 117.934 103.477 116.433 107.665 115.748C108.97 115.541 110.29 115.439 111.612 115.443C114.055 115.423 116.462 116.035 118.599 117.22C120.735 118.405 122.528 120.123 123.803 122.206C123.736 121.23 123.415 120.288 122.873 119.473C122.873 119.473 125.517 121.49 125.213 126.59Z" fill="url(#paint29_linear_6934_3683)"/>
<g style="mix-blend-mode:multiply" opacity="0.6">
<path d="M115.841 124.466C113.856 124.252 111.522 124.105 108.804 124.077C101.973 123.958 95.1458 124.449 88.4023 125.542C88.4869 125.339 92.124 120.329 96.4716 118.289C96.1023 118.849 95.8883 119.497 95.8514 120.166C99.4597 117.935 103.472 116.433 107.659 115.748C105.229 116.757 99.9452 119.067 96.7085 122.933C96.7085 122.933 103.272 121.113 115.841 124.466Z" fill="#CF77B6"/>
</g>
<path d="M115.052 188.542C115.052 188.542 119.179 197.958 124.113 202.63C130.361 208.519 143.111 208.519 151.372 204.422C156.12 202.072 161.64 189.252 161.64 189.252L138.566 198.06L115.052 188.542Z" fill="#E28684"/>
<g style="mix-blend-mode:multiply" opacity="0.6">
<path d="M121.57 198.939C121.57 198.939 127.209 208.846 138.69 208.846C150.661 209.652 155.077 200.393 155.077 200.393C155.077 200.393 150.808 207.02 139.175 206.592C126.865 207.589 121.57 198.939 121.57 198.939Z" fill="#D177B8"/>
</g>
<path d="M161.64 186.93C161.64 186.93 154.603 190.807 138.566 190.807C122.523 190.807 115.491 186.93 115.491 186.93C113.907 187.189 115.491 189.252 115.491 189.252C126.73 203.385 150.453 202.737 161.64 189.252C161.64 189.252 163.219 187.189 161.64 186.93Z" fill="#6A2254"/>
<path d="M118.424 188.113V190.074C118.424 190.074 125.585 195.941 138.566 195.941C151.547 195.941 157.924 190.333 157.924 190.333L158.347 188.231C151.9 189.978 145.246 190.844 138.566 190.807C131.761 190.822 124.985 189.915 118.424 188.113Z" fill="white"/>
<path d="M148.637 212.898L145.553 209.827C145.021 209.298 144.329 208.961 143.585 208.869C141.837 208.649 138.47 208.356 135.843 208.869C135.229 208.998 134.667 209.304 134.224 209.748C133.076 210.943 131.799 212.009 130.418 212.926C127.48 214.893 115.463 207.635 112.492 199.08C112.255 195.011 112.61 191.703 114.116 188.108C119.755 187.11 121.052 192.999 129.471 189.235C132.459 187.893 133.277 188.547 135.527 188.046C136.796 187.764 137.963 185.955 138.634 185.386H138.696C139.372 185.949 140.354 187.437 141.865 188.046C144.735 189.173 145.384 187.629 148.372 188.97C154.936 191.545 154.97 189.533 162.836 188.046C163.902 190.424 164.421 193.878 164.398 198.978C162.943 206.152 151.519 214.825 148.637 212.904M138.329 248.058C141.308 248.062 144.274 247.67 147.149 246.891C154.744 244.829 166.834 240.98 173.274 237.249C180.52 233.051 187.89 216.849 192.914 207.02C194.529 203.938 195.771 200.675 196.613 197.299C197.406 194.15 197.971 190.948 198.305 187.719C201.66 157.253 194.775 144.196 194.775 144.196C194.297 144.302 193.875 144.582 193.59 144.98C193.304 145.378 193.176 145.867 193.23 146.354C193.912 151.156 194.707 162.072 194.589 165.233C194.403 169.95 194.459 183.785 189.987 188.541C185.33 193.495 171.379 201.503 171.379 201.503C171.379 201.503 171.746 191.968 170.33 188.541C169.169 185.724 168.413 184.76 164.618 182.292C159.351 178.826 146.551 179.215 143.946 178.088C142.384 178.381 138.871 180.624 138.639 180.669C138.639 180.669 135.183 178.414 133.598 178.099C129.166 180.325 121.429 179.852 114.55 181.396C111.009 182.19 108.302 184.969 106.943 188.333C105.359 192.278 105.714 201.509 105.714 201.509C105.714 201.509 91.5319 196.724 87.8215 188.119C86.2878 185.459 85.7972 178.414 84.8949 173.128C84.4269 169.787 83.7672 165.83 83.6995 161.593C83.6589 157.56 83.8472 153.527 84.2634 149.516C84.9852 142.302 83.2484 141.626 83.2484 141.626C83.2484 141.626 77.3106 158.792 81.3763 189.618C82.1206 195.293 82.5717 201.013 85.1318 206.135C90.1561 216.189 97.746 232.904 105.206 237.227C110.62 240.36 119.027 243.893 125.839 246.086C129.873 247.386 134.085 248.048 138.324 248.047L138.329 248.058Z" fill="url(#paint30_linear_6934_3683)"/>
<g style="mix-blend-mode:soft-light">
<path d="M148.366 202.236C148.366 202.236 150.368 203.182 152.11 202.478C153.853 201.773 156.701 197.479 156.701 197.479C156.701 197.479 150.25 201.109 148.366 202.236Z" fill="#FFCCB8"/>
</g>
<path style="mix-blend-mode:multiply" opacity="0.6" d="M169.62 184.287C162.667 172.193 155.613 168.507 155.613 168.507L155.556 169.685L169.62 184.287Z" fill="url(#paint31_linear_6934_3683)"/>
<path style="mix-blend-mode:multiply" opacity="0.6" d="M107.963 183.768C114.911 171.674 122.134 168.022 122.134 168.022L122.016 169.15L107.963 183.768Z" fill="url(#paint32_linear_6934_3683)"/>
<path opacity="0.38" d="M143.872 247.68L149.207 246.311C149.207 246.311 153.667 244.863 160.896 242.597C165.883 241.091 170.63 238.882 174.993 236.037L179.82 230.655C179.82 230.655 182.64 223.403 181.394 225.409C180.147 227.415 177.401 230.481 172.76 233.417C171.688 234.061 170.554 234.599 169.377 235.023C170.121 233.693 171.108 231.794 172.366 229.089C175.693 221.937 177.164 201.475 176.849 203.244C176.533 205.014 174.424 211.134 171.339 219.125C170.437 221.458 169.197 224.107 167.888 226.688C166.295 229.873 164.014 232.664 161.209 234.86C158.404 237.056 155.146 238.601 151.671 239.385H151.592C149.088 239.948 147.301 238.258 145.592 235.665C144.916 234.644 144.012 233.793 142.95 233.181C141.888 232.57 140.699 232.213 139.475 232.141C138.252 232.068 137.028 232.281 135.902 232.762C134.775 233.244 133.776 233.981 132.984 234.916C130.429 237.869 127.395 240.033 124.593 239.024H124.548C122.859 238.379 121.368 237.306 120.221 235.909C119.074 234.513 118.311 232.842 118.007 231.061C117.538 228.661 117.21 226.236 117.025 223.797C116.743 218.725 116.653 214.938 116.8 213.884C116.946 212.83 114.11 224.502 114.68 229.128C115.181 233.186 115.655 234.595 115.745 234.843C110.964 232.25 101.964 228.187 101.964 228.187L104.823 236.832L116.072 242.467L124.954 245.798L132.25 247.517L143.872 247.68Z" fill="#3A2A1B"/>
<path opacity="0.38" d="M83.3102 187.967C83.3102 187.967 82.5433 194.019 82.9042 196.933C83.4011 202.345 85.022 207.595 87.6634 212.346C90.6802 218.252 93.2741 222.946 95.338 225.533C95.338 225.533 95.1124 213.957 97.9714 207.696C100.83 201.435 102.742 200.274 102.742 200.274C102.742 200.274 93.0993 205.036 92.0843 214.273C85.7631 206.361 83.3102 187.967 83.3102 187.967Z" fill="#3A2A1B"/>
<path opacity="0.49" d="M201.231 119.197C200.577 126.1 199.844 134.587 199.314 139.484C197.058 142.663 194.605 146.281 194.605 146.281C194.605 146.281 190.472 134.852 192.79 122.843C193.06 116.909 193.867 108.872 192.75 103.919C192.75 103.919 193.81 103.8 197.143 106.365C202.855 112.152 201.361 117.788 201.361 117.788C201.361 117.788 199.359 113.432 196.179 110.788C196.645 113.078 197.463 115.281 198.603 117.32C199.184 118.436 200.397 118.746 201.231 119.197Z" fill="#3A2A1B"/>
<path opacity="0.38" d="M194.51 186.253C194.51 186.253 195.344 192.622 195.012 195.687C194.582 201.344 193.022 206.857 190.422 211.901C187.467 218.1 184.924 223.048 182.888 225.77C182.888 225.77 182.984 213.591 180.068 207.003C177.153 200.415 175.213 199.187 175.213 199.187C175.213 199.187 184.918 204.202 186.034 213.924C192.26 205.6 194.51 186.253 194.51 186.253Z" fill="#3A2A1B"/>
<g style="mix-blend-mode:soft-light">
<path d="M149.85 233.732C153.603 230.198 157.029 226.331 160.084 222.18C163.682 217.223 166.251 211.597 167.64 205.634C169.332 198.505 169.501 195.845 169.501 195.845C169.501 195.845 169.637 206.924 168.373 212.233C167.133 217.339 162.763 228.238 158.19 231.394C153.616 234.55 149.85 233.732 149.85 233.732Z" fill="#C4D9E0"/>
</g>
<path opacity="0.38" d="M104.823 236.815C103.107 232.351 101.71 227.771 100.644 223.11C99.6532 218.077 99.8229 212.885 101.141 207.927C102.663 202.292 103.616 200.393 103.616 200.393C103.616 200.393 98.9077 207.719 97.8081 211.974C96.748 216.043 95.9529 225.64 98.5355 230.16C100.066 232.851 102.222 235.134 104.823 236.815Z" fill="#3A2A1B"/>
<g style="mix-blend-mode:soft-light">
<path d="M90.6636 209.562C90.6636 209.562 89.5978 205.617 97.1878 198.95C97.1878 198.95 93.8383 200.928 93.5733 200.415C93.3049 199.454 93.1163 198.472 93.0094 197.479C93.0094 197.479 87.2746 204.665 90.6636 209.562Z" fill="#A1BEC4"/>
</g>
<g style="mix-blend-mode:multiply">
<path d="M124.26 177.93C123.347 176.425 124.824 175.411 125.89 174.999C129.918 173.262 134.224 172.26 138.606 172.041C140.213 171.302 154.958 174.903 152.968 177.93C150.977 180.956 143.731 182.669 137.371 182.669C128.241 182.669 124.26 177.93 124.26 177.93Z" fill="white"/>
</g>
<path style="mix-blend-mode:multiply" opacity="0.6" d="M131.325 129.493C129.245 124.917 103.413 118.949 86.2987 129.679C79.1598 134.148 82.6841 156.853 90.9959 164.055C99.3077 171.257 117.228 170.818 125.066 159.817C132.904 148.817 133.412 134.069 131.325 129.493ZM99.6122 165.436C86.1408 162.646 79.3121 141.434 87.3024 132.226C94.0691 128.174 112.971 125.632 123.267 130.186C124.439 130.719 125.463 131.53 126.249 132.548C127.035 133.567 127.56 134.762 127.779 136.03C133.073 165.689 109.807 167.544 99.6122 165.436Z" fill="url(#paint33_linear_6934_3683)"/>
<path style="mix-blend-mode:multiply" opacity="0.6" d="M193.353 129.16C191.267 124.584 165.441 118.616 148.321 129.346C141.188 133.815 144.712 156.52 153.018 163.694C161.324 170.868 179.256 170.457 187.089 159.451C194.921 148.445 195.44 133.736 193.353 129.16ZM161.64 165.126C148.169 162.308 141.306 141.102 149.33 131.876C156.063 127.825 174.999 125.283 185.29 129.836C186.467 130.366 187.496 131.175 188.287 132.194C189.079 133.213 189.608 134.41 189.829 135.68C195.102 165.329 171.835 167.211 161.64 165.126Z" fill="url(#paint34_linear_6934_3683)"/>
<path d="M137.923 126.156L123.882 156.673C120.019 160.967 117.589 161.638 110.749 162.28C105.833 162.69 100.883 162.31 96.0879 161.153C94.6711 160.815 93.3315 160.21 92.1406 159.372C88.825 157.039 87.5675 155.67 84.6353 148.913L87.59 158.239C88.7323 159.565 90.1085 160.669 91.6501 161.497C94.1819 162.844 101.868 165.588 113.839 163.154C113.839 163.154 113.867 163.154 113.839 163.154C116.918 162.218 117.482 162.59 119.788 160.578L119.828 160.539C121.846 158.769 124.401 157.687 125.726 155.315L137.923 126.156Z" fill="#634A66"/>
<path d="M184.563 160.454C187.089 159.558 188.019 157.507 189.345 155.134L187.845 156.78C183.982 161.074 181.219 161.452 174.379 162.094C169.463 162.501 164.513 162.121 159.718 160.967C158.293 160.627 156.944 160.023 155.742 159.186C152.427 156.853 151.169 155.478 148.237 148.721L149.641 153.15C150.459 155.785 151.893 158.186 153.825 160.155C154.246 160.603 154.726 160.992 155.252 161.311C157.784 162.652 168.537 165.633 177.441 162.967L184.563 160.454Z" fill="#634A66"/>
<path style="mix-blend-mode:multiply" opacity="0.6" d="M83.0051 131.672C79.7402 139.381 82.9712 149.052 84.4374 152.236C85.6046 154.772 87.1046 157.928 90.5218 160.441C91.4691 161.134 94.1983 162.988 100.018 163.822C105.549 164.594 112.987 165.637 119.805 161.247C129.278 155.149 130.519 144.414 130.885 137.578C130.992 135.453 130.733 133.261 129.481 131.379C127.789 128.775 126.267 127.434 119.607 126.499C107.946 124.881 100.317 125.371 91.2661 125.935C86.5632 126.172 84.4768 128.195 83.0051 131.672Z" fill="url(#paint35_linear_6934_3683)"/>
<path style="mix-blend-mode:multiply" opacity="0.6" d="M192.057 131.262C195.322 138.972 192.09 148.636 190.624 151.826C189.457 154.356 187.957 157.518 184.54 160.031C183.593 160.725 180.863 162.579 175.038 163.413C169.507 164.19 162.069 165.233 155.257 160.843C145.778 154.74 144.543 144.004 144.177 137.174C144.064 135.055 144.323 132.863 145.581 130.975C147.272 128.377 148.795 127.03 155.454 126.1C167.116 124.483 174.745 124.973 183.796 125.537C188.465 125.756 190.574 127.785 192.057 131.262Z" fill="url(#paint36_linear_6934_3683)"/>
<path style="mix-blend-mode:multiply" opacity="0.6" d="M196.094 125.08C194.707 124.883 189.006 124.319 185.944 124.19C182.882 124.06 170.871 124.122 167.336 124.19C163.8 124.257 156.289 124.223 152.003 124.979C147.718 125.734 144.351 126.861 142.417 127.12C139.578 127.383 136.72 127.383 133.88 127.12C131.934 126.861 128.568 125.739 124.294 124.979C120.019 124.218 112.491 124.257 108.962 124.19C105.432 124.122 93.3981 124.054 90.3531 124.19C87.3081 124.325 81.6128 124.883 80.203 125.08C78.7933 125.277 78.4775 126.128 78.4775 126.128C84.077 124.607 101.112 125.114 105.398 125.046C109.683 124.979 121.39 125.373 124.294 125.869C127.198 126.365 133.987 128.258 133.987 128.258H142.265C142.265 128.258 149.06 126.365 151.958 125.869C154.857 125.373 166.569 124.979 170.854 125.046C175.14 125.114 192.181 124.607 197.774 126.128C197.82 126.128 197.476 125.277 196.094 125.08Z" fill="url(#paint37_linear_6934_3683)"/>
<path style="mix-blend-mode:multiply" opacity="0.6" d="M131.264 142.426C131.264 142.426 137.951 134.734 144.504 141.198L144.346 136.824C144.346 136.824 138.933 130.428 131.828 137.332L131.264 142.426Z" fill="url(#paint38_linear_6934_3683)"/>
<path opacity="0.49" d="M96.4995 66.6457L104.597 61.2694C119.472 59.7648 117.769 65.1636 117.769 65.1636C116.67 66.307 115.649 67.5233 114.713 68.8041C109.993 70.2468 110.907 70.4158 107.879 71.6218C107.879 71.6218 89.1294 79.8271 85.0074 95.2458C83.8401 100.194 84.5224 102.093 85.4247 107.768C85.5995 112.147 83.5356 116.542 83.265 119.602C83.0845 127.402 83.1522 145.526 83.1522 145.526C83.1522 145.526 76.5772 138.352 76.5716 138.2C76.2727 134.925 76.0979 120.391 74.0002 106.156L74.0453 102.048C73.8254 99.9853 74.457 96.9759 74.8348 95.6178C76.5434 89.8865 81.7255 75.5723 96.4995 66.6457Z" fill="#3A2A1B"/>
<path opacity="0.27" d="M137.523 208.649C137.591 209.776 133.463 219.39 132.386 221.892C132.25 222.208 132.126 222.523 132.019 222.85C131.737 223.724 131.179 225.155 130.931 225.736C129.69 228.723 128.557 231.106 128.241 231.766C128.241 231.766 135.149 218.956 135.73 217.316C136.31 215.676 138.651 208.593 138.651 208.593L137.523 208.649Z" fill="#3A2A1B"/>
<path opacity="0.27" d="M149.122 216.674C149.128 219.218 148.473 221.72 147.223 223.936C145.973 226.153 144.17 228.007 141.989 229.32C141.557 229.583 141.109 229.818 140.647 230.024C141.053 229.793 146.675 226.434 146.805 221.887C146.929 217.17 143.421 209.353 143.421 209.353C145.705 217.068 142.886 223.746 140.777 227.319C139.799 228.954 138.47 230.352 136.886 231.411C136.886 231.411 141.741 224.851 142.113 219.069C142.231 217.003 142.209 214.932 142.045 212.87C141.916 211.45 141.34 208.626 141.34 208.626L144.03 208.925C144.03 208.925 145.276 208.75 148.372 212.87C149.103 213.994 149.371 215.357 149.122 216.674Z" fill="#3A2A1B"/>
<path opacity="0.49" d="M163.011 61.7652C163.011 61.7652 156.346 63.191 151.682 65.1127L171.193 61.5342L163.011 61.7652Z" fill="#3A2A1B"/>
<g style="mix-blend-mode:soft-light" opacity="0.5">
<path d="M185.854 83.1069C185.854 83.1069 189.395 87.5026 193.038 89.7512C196.681 91.9997 197.763 90.4782 197.763 90.4782C197.763 90.4782 200.019 95.1838 199.557 98.7905C199.557 98.7905 197.222 93.572 194.904 92.5915C192.587 91.6109 191.431 92.5915 191.431 92.5915C191.431 92.5915 187.123 84.9723 185.854 83.1069Z" fill="#FFD9BB"/>
</g>
<g style="mix-blend-mode:soft-light">
<path d="M183.841 194.842C183.841 194.842 188.538 200.9 188.324 203.577C188.109 206.254 185.978 208.823 185.978 208.823C185.978 208.823 184.636 199.801 183.841 194.842Z" fill="#C4D9E0"/>
</g>
<g style="mix-blend-mode:soft-light">
<path d="M178.563 210.942C178.563 210.942 180.903 219.227 179.628 222.715C178.354 226.203 175.196 229.416 175.196 229.416C175.196 229.416 177.395 217.496 178.563 210.942Z" fill="#A1BEC4"/>
</g>
<g style="mix-blend-mode:soft-light">
<path d="M140.41 215.913C140.41 215.913 139.462 224.468 136.97 227.218C134.478 229.968 130.344 231.766 130.344 231.766C130.344 231.766 136.874 221.549 140.41 215.913Z" fill="#A1BEC4"/>
</g>
<g style="mix-blend-mode:soft-light">
<path d="M125.416 234.933C125.416 234.933 120.037 228.21 119.851 224.502C119.664 220.793 121.322 216.612 121.322 216.612C121.322 216.612 123.927 228.446 125.416 234.933Z" fill="#C4D9E0"/>
</g>
<path opacity="0.49" d="M138.882 79.5453C138.882 79.5453 146.365 74.2761 144.019 67.9305C142.119 62.8022 138.38 63.935 137.061 63.4898C138.341 63.9575 141.735 63.6419 142.936 68.4377C144.273 73.7464 139.141 76.6712 139.141 76.6712C139.141 76.6712 138.07 77.6236 132.2 80.0525C126.662 79.2579 121.672 78.8521 120.358 74.3043C119.101 69.8973 123.431 64.0195 123.674 63.687L125.896 61.9231L123.465 63.4898L122.569 64.0251C122.349 64.4083 118.509 71.0977 119.416 74.6142C120.347 78.2209 127.514 81.6079 127.514 81.6079C127.514 81.6079 120.702 82.0756 115.943 79.3931C111.184 76.7106 113.31 69.6494 117.375 65.9581L117.2 66.0314L116.484 66.3244C116.112 66.7865 110.355 73.8534 112.413 78.159C114.195 83.028 124.599 82.6673 124.599 82.6673C124.599 82.6673 134.625 83.1126 138.882 79.5453Z" fill="#3A2A1B"/>
<path opacity="0.49" d="M131.721 79.9849C131.721 79.9849 127.604 70.027 129.234 64.9945C130.863 59.962 136.564 63.2193 136.564 63.2193L137.258 63.5631C137.258 63.5631 130.655 58.6884 126.471 63.2363C122.287 67.7841 129.403 79.6525 129.403 79.6525L131.721 79.9849Z" fill="#3A2A1B"/>
<g style="mix-blend-mode:soft-light" opacity="0.5">
<path d="M130.846 65.1128C130.846 65.1128 129.448 66.3357 129.922 70.2918C129.922 70.2918 130.17 69.2605 130.446 69.1647C130.722 69.0689 132.657 69.8635 135.843 70.6525C139.029 71.4415 140.918 70.0495 141.29 70.196C142.305 70.5792 141.927 71.8528 141.927 71.8528C141.927 71.8528 143.427 70.8046 141.216 66.8429C141.272 67.2764 141.283 67.7145 141.25 68.1503C141.166 68.2856 137.235 67.3783 134.85 67.5304C134.094 67.5929 133.334 67.4822 132.628 67.2068C131.921 66.9314 131.287 66.4986 130.773 65.9412C130.732 65.6631 130.758 65.3794 130.846 65.1128Z" fill="#FFD9BB"/>
</g>
<g style="mix-blend-mode:soft-light" opacity="0.5">
<path d="M124.875 65.8003C124.601 66.5503 124.281 67.2824 123.916 67.9925C123.6 68.4602 121.898 69.1196 121.661 68.804L121.452 68.4941C121.016 69.408 120.749 70.3931 120.663 71.402C120.663 71.402 121.362 69.8748 122.275 69.7733C122.781 69.7141 123.292 69.7141 123.798 69.7733C124.079 68.429 124.438 67.1024 124.875 65.8003Z" fill="#FFD9BB"/>
</g>
<g style="mix-blend-mode:soft-light" opacity="0.5">
<path d="M118.401 72.501C118.401 72.501 118.79 69.362 119.918 67.6094C119.918 67.6094 118.226 68.5674 117.296 68.9619C116.683 69.2052 116.025 69.3129 115.367 69.2775C114.502 70.7103 113.993 72.3299 113.884 74C113.884 74 117.025 72.3094 118.401 72.501Z" fill="#FFD9BB"/>
</g>
<g style="mix-blend-mode:soft-light">
<path d="M108.037 221.481C106.491 210.97 107.327 200.247 110.484 190.103C110.484 190.103 105.973 208.863 112.396 230.317C110.059 227.897 108.535 224.808 108.037 221.481Z" fill="#A1BEC4"/>
</g>
<path d="M197.82 126.128C193.574 124.009 167.527 124.364 156.182 125.182C153.741 125.364 151.326 125.8 148.975 126.483C142.434 128.377 138.171 128.259 138.171 128.259C138.171 128.259 133.908 128.377 127.373 126.483C125.022 125.8 122.607 125.364 120.166 125.182C108.821 124.364 82.7689 124.009 78.5228 126.128C77.5135 130.992 78.5228 131.296 78.5228 131.296C79.256 131.544 79.8987 132.004 80.3688 132.618C80.8389 133.233 81.115 133.973 81.1618 134.745C81.8723 139.614 80.3104 150.558 87.8552 159.181C89.0075 160.464 90.3831 161.527 91.9152 162.319C94.4471 163.616 102.781 166.698 114.753 164.36C117.363 163.858 119.814 162.735 121.897 161.085C127.767 156.385 129.995 149.781 130.564 147.926C130.564 147.926 133.062 141.226 134.027 137.687C134.238 136.834 134.693 136.061 135.335 135.461C136.095 134.723 137.112 134.311 138.171 134.311C139.23 134.311 140.248 134.723 141.008 135.461C141.65 136.061 142.104 136.834 142.316 137.687C143.28 141.226 145.778 147.926 145.778 147.926C146.342 149.781 148.598 156.38 154.445 161.085C156.535 162.736 158.991 163.859 161.607 164.36C173.572 166.698 181.907 163.616 184.439 162.319C185.972 161.529 187.348 160.465 188.499 159.181C196.049 150.558 194.481 139.614 195.192 134.745C195.24 133.973 195.517 133.234 195.987 132.62C196.457 132.005 197.099 131.545 197.831 131.296C197.831 131.296 198.823 130.992 197.82 126.128ZM129.499 143.598C128.869 146.406 127.98 149.149 126.843 151.792C125.45 154.909 123.249 157.597 120.468 159.578C117.687 161.56 114.428 162.763 111.026 163.063C102.99 163.79 95.3381 161.97 94.3964 161.463C90.951 159.637 85.2952 155.625 83.9023 145.086C82.5095 134.548 84.6636 131.313 84.6636 131.313C84.6636 131.313 85.5264 129.239 89.2255 128.123C92.9246 127.007 99.0146 126.433 108.121 126.145C117.228 125.858 123.668 128.275 125.19 128.935C126.713 129.594 132.442 131.093 129.499 143.615V143.598ZM192.44 145.069C191.047 155.608 185.239 159.513 181.794 161.339C178.349 163.165 161.911 163.593 158.206 161.694C154.502 159.795 149.787 156.12 146.844 143.598C143.9 131.076 149.635 129.56 151.158 128.901C152.68 128.242 159.114 125.807 168.221 126.111C177.328 126.416 183.412 126.974 187.117 128.09C190.822 129.205 191.685 131.279 191.685 131.279C191.685 131.279 193.839 134.548 192.44 145.086V145.069Z" fill="url(#paint39_linear_6934_3683)"/>
<defs>
<linearGradient id="paint0_linear_6934_3683" x1="73.0081" y1="183.278" x2="73.0081" y2="134.813" gradientUnits="userSpaceOnUse">
<stop stop-color="#FF7777"/>
<stop offset="0.15" stop-color="#F88F83"/>
<stop offset="0.41" stop-color="#EFB395"/>
<stop offset="0.54" stop-color="#EBC19C"/>
<stop offset="0.61" stop-color="#E5B592"/>
<stop offset="0.74" stop-color="#DAA182"/>
<stop offset="0.87" stop-color="#D39578"/>
<stop offset="1" stop-color="#D19175"/>
</linearGradient>
<linearGradient id="paint1_linear_6934_3683" x1="71.9985" y1="167.622" x2="71.9985" y2="140.95" gradientUnits="userSpaceOnUse">
<stop stop-color="#FFEADB"/>
<stop offset="0.99" stop-color="#D177F4"/>
</linearGradient>
<linearGradient id="paint2_linear_6934_3683" x1="77.3106" y1="166.946" x2="77.3106" y2="146.264" gradientUnits="userSpaceOnUse">
<stop stop-color="#FFEADB"/>
<stop offset="0.99" stop-color="#D177F4"/>
</linearGradient>
<linearGradient id="paint3_linear_6934_3683" x1="139.141" y1="279.977" x2="139.141" y2="209.517" gradientUnits="userSpaceOnUse">
<stop stop-color="#D57C9D"/>
<stop offset="0.25" stop-color="#DA978D"/>
<stop offset="0.43" stop-color="#DCA585"/>
<stop offset="0.46" stop-color="#DAA183"/>
<stop offset="0.64" stop-color="#D18D7B"/>
<stop offset="0.82" stop-color="#CC8177"/>
<stop offset="1" stop-color="#CA7D75"/>
</linearGradient>
<linearGradient id="paint4_linear_6934_3683" x1="139.141" y1="279.977" x2="139.141" y2="252.955" gradientUnits="userSpaceOnUse">
<stop offset="0.01" stop-color="#8684F4"/>
<stop offset="1" stop-color="#839AF2"/>
</linearGradient>
<linearGradient id="paint5_linear_6934_3683" x1="159.819" y1="263.877" x2="159.819" y2="220.134" gradientUnits="userSpaceOnUse">
<stop stop-color="#FFEADB"/>
<stop offset="0.99" stop-color="#D177F4"/>
</linearGradient>
<linearGradient id="paint6_linear_6934_3683" x1="176.268" y1="274.646" x2="176.268" y2="257.976" gradientUnits="userSpaceOnUse">
<stop stop-color="#FFEADB"/>
<stop offset="0.99" stop-color="#D177F4"/>
</linearGradient>
<linearGradient id="paint7_linear_6934_3683" x1="95.6367" y1="274.646" x2="95.6367" y2="256.861" gradientUnits="userSpaceOnUse">
<stop stop-color="#FFEADB"/>
<stop offset="0.99" stop-color="#D177F4"/>
</linearGradient>
<linearGradient id="paint8_linear_6934_3683" x1="204.367" y1="183.278" x2="204.367" y2="134.813" gradientUnits="userSpaceOnUse">
<stop stop-color="#FF7777"/>
<stop offset="0.15" stop-color="#F88F83"/>
<stop offset="0.41" stop-color="#EFB395"/>
<stop offset="0.54" stop-color="#EBC19C"/>
<stop offset="0.61" stop-color="#E5B592"/>
<stop offset="0.74" stop-color="#DAA182"/>
<stop offset="0.87" stop-color="#D39578"/>
<stop offset="1" stop-color="#D19175"/>
</linearGradient>
<linearGradient id="paint9_linear_6934_3683" x1="205.381" y1="167.622" x2="205.381" y2="140.95" gradientUnits="userSpaceOnUse">
<stop stop-color="#FFEADB"/>
<stop offset="0.99" stop-color="#D177F4"/>
</linearGradient>
<linearGradient id="paint10_linear_6934_3683" x1="200.07" y1="166.946" x2="200.07" y2="146.264" gradientUnits="userSpaceOnUse">
<stop stop-color="#FFEADB"/>
<stop offset="0.99" stop-color="#D177F4"/>
</linearGradient>
<linearGradient id="paint11_linear_6934_3683" x1="138.053" y1="232.904" x2="138.053" y2="61.9231" gradientUnits="userSpaceOnUse">
<stop stop-color="#DFAC9B"/>
<stop offset="0.36" stop-color="#E5B39C"/>
<stop offset="0.54" stop-color="#EBC19C"/>
<stop offset="0.61" stop-color="#E5B592"/>
<stop offset="0.74" stop-color="#DAA182"/>
<stop offset="0.87" stop-color="#D39578"/>
<stop offset="1" stop-color="#D19175"/>
</linearGradient>
<linearGradient id="paint12_linear_6934_3683" x1="173.448" y1="226.249" x2="173.448" y2="74.4453" gradientUnits="userSpaceOnUse">
<stop stop-color="#FFEADB"/>
<stop offset="0.99" stop-color="#D177F4"/>
</linearGradient>
<linearGradient id="paint13_linear_6934_3683" x1="104.603" y1="226.975" x2="104.603" y2="75.9893" gradientUnits="userSpaceOnUse">
<stop stop-color="#FFEADB"/>
<stop offset="0.99" stop-color="#D177F4"/>
</linearGradient>
<linearGradient id="paint14_linear_6934_3683" x1="168.776" y1="149.411" x2="169.437" y2="133.228" gradientUnits="userSpaceOnUse">
<stop stop-color="#EEE2FF"/>
<stop offset="1" stop-color="#BDC9FB"/>
</linearGradient>
<linearGradient id="paint15_linear_6934_3683" x1="167.198" y1="149.917" x2="167.86" y2="133.711" gradientUnits="userSpaceOnUse">
<stop stop-color="#ACA1DB"/>
<stop offset="1" stop-color="#6A518A"/>
</linearGradient>
<linearGradient id="paint16_linear_6934_3683" x1="167.218" y1="149.438" x2="167.84" y2="134.19" gradientUnits="userSpaceOnUse">
<stop stop-color="#7F6F5E"/>
<stop offset="0.96" stop-color="#4F4741"/>
</linearGradient>
<linearGradient id="paint17_linear_6934_3683" x1="167.327" y1="146.763" x2="167.731" y2="136.864" gradientUnits="userSpaceOnUse">
<stop stop-color="#A79ABD"/>
<stop offset="0.99" stop-color="#724A60"/>
</linearGradient>
<linearGradient id="paint18_linear_6934_3683" x1="107.734" y1="150.792" x2="106.601" y2="134.595" gradientUnits="userSpaceOnUse">
<stop stop-color="#EEE2FF"/>
<stop offset="1" stop-color="#BDC9FB"/>
</linearGradient>
<linearGradient id="paint19_linear_6934_3683" x1="109.33" y1="151.247" x2="108.196" y2="135.033" gradientUnits="userSpaceOnUse">
<stop stop-color="#ACA1DB"/>
<stop offset="1" stop-color="#6A518A"/>
</linearGradient>
<linearGradient id="paint20_linear_6934_3683" x1="109.297" y1="150.773" x2="108.229" y2="135.507" gradientUnits="userSpaceOnUse">
<stop stop-color="#7F6F5E"/>
<stop offset="0.96" stop-color="#4F4741"/>
</linearGradient>
<linearGradient id="paint21_linear_6934_3683" x1="109.11" y1="148.096" x2="108.417" y2="138.189" gradientUnits="userSpaceOnUse">
<stop stop-color="#A79ABD"/>
<stop offset="0.99" stop-color="#724A60"/>
</linearGradient>
<linearGradient id="paint22_linear_6934_3683" x1="138.825" y1="158.606" x2="138.825" y2="178.775" gradientUnits="userSpaceOnUse">
<stop stop-color="#FAAFA5"/>
<stop offset="1" stop-color="#F9A6A7"/>
</linearGradient>
<linearGradient id="paint23_linear_6934_3683" x1="170.901" y1="153.562" x2="163.497" y2="152.969" gradientUnits="userSpaceOnUse">
<stop stop-color="#721E24"/>
<stop offset="1" stop-color="#510036"/>
</linearGradient>
<linearGradient id="paint24_linear_6934_3683" x1="125.998" y1="176.317" x2="133.34" y2="176.361" gradientUnits="userSpaceOnUse">
<stop stop-color="#721E24"/>
<stop offset="1" stop-color="#510036"/>
</linearGradient>
<linearGradient id="paint25_linear_6934_3683" x1="123.578" y1="165.752" x2="129.335" y2="165.752" gradientUnits="userSpaceOnUse">
<stop stop-color="#FFEADB"/>
<stop offset="0.99" stop-color="#D177F4"/>
</linearGradient>
<linearGradient id="paint26_linear_6934_3683" x1="148.197" y1="165.752" x2="153.949" y2="165.752" gradientUnits="userSpaceOnUse">
<stop stop-color="#FFEADB"/>
<stop offset="0.99" stop-color="#D177F4"/>
</linearGradient>
<linearGradient id="paint27_linear_6934_3683" x1="138.081" y1="135.111" x2="138.081" y2="39.8151" gradientUnits="userSpaceOnUse">
<stop stop-color="#7C776F"/>
<stop offset="1" stop-color="#3C322D"/>
</linearGradient>
<linearGradient id="paint28_linear_6934_3683" x1="159.903" y1="121.091" x2="160.17" y2="129.798" gradientUnits="userSpaceOnUse">
<stop stop-color="#817260"/>
<stop offset="1" stop-color="#49353E"/>
</linearGradient>
<linearGradient id="paint29_linear_6934_3683" x1="119.567" y1="118.166" x2="118.95" y2="126.857" gradientUnits="userSpaceOnUse">
<stop stop-color="#817260"/>
<stop offset="1" stop-color="#49353E"/>
</linearGradient>
<linearGradient id="paint30_linear_6934_3683" x1="139.598" y1="175.05" x2="139.598" y2="263.826" gradientUnits="userSpaceOnUse">
<stop stop-color="#7C776F"/>
<stop offset="1" stop-color="#3C322D"/>
</linearGradient>
<linearGradient id="paint31_linear_6934_3683" x1="167.275" y1="188.202" x2="161.469" y2="169.748" gradientUnits="userSpaceOnUse">
<stop stop-color="#FFEADB"/>
<stop offset="0.99" stop-color="#D177F4"/>
</linearGradient>
<linearGradient id="paint32_linear_6934_3683" x1="110.237" y1="187.774" x2="116.042" y2="169.325" gradientUnits="userSpaceOnUse">
<stop stop-color="#FFEADB"/>
<stop offset="0.99" stop-color="#D177F4"/>
</linearGradient>
<linearGradient id="paint33_linear_6934_3683" x1="82.4586" y1="146.247" x2="132.374" y2="146.247" gradientUnits="userSpaceOnUse">
<stop stop-color="#FFEADB"/>
<stop offset="0.99" stop-color="#D177F4"/>
</linearGradient>
<linearGradient id="paint34_linear_6934_3683" x1="144.481" y1="145.914" x2="194.402" y2="145.914" gradientUnits="userSpaceOnUse">
<stop stop-color="#FFEADB"/>
<stop offset="0.99" stop-color="#D177F4"/>
</linearGradient>
<linearGradient id="paint35_linear_6934_3683" x1="102.104" y1="168.156" x2="108.902" y2="119.346" gradientUnits="userSpaceOnUse">
<stop stop-opacity="0.35"/>
<stop offset="0.23" stop-opacity="0.51"/>
<stop offset="0.57" stop-opacity="0.83"/>
<stop offset="0.83"/>
<stop offset="1"/>
</linearGradient>
<linearGradient id="paint36_linear_6934_3683" x1="167.228" y1="162.173" x2="169.526" y2="126.37" gradientUnits="userSpaceOnUse">
<stop stop-opacity="0.44"/>
<stop offset="0.23" stop-opacity="0.62"/>
<stop offset="0.57" stop-opacity="0.85"/>
<stop offset="0.83"/>
<stop offset="1"/>
</linearGradient>
<linearGradient id="paint37_linear_6934_3683" x1="78.5227" y1="126.185" x2="197.82" y2="126.185" gradientUnits="userSpaceOnUse">
<stop stop-color="#FFEADB"/>
<stop offset="0.99" stop-color="#8627F4"/>
</linearGradient>
<linearGradient id="paint38_linear_6934_3683" x1="131.107" y1="138.928" x2="144.336" y2="139.203" gradientUnits="userSpaceOnUse">
<stop stop-color="#FFEADB"/>
<stop offset="0.99" stop-color="#D177F4"/>
</linearGradient>
<linearGradient id="paint39_linear_6934_3683" x1="167.105" y1="166.05" x2="102.295" y2="103.558" gradientUnits="userSpaceOnUse">
<stop/>
<stop offset="0.17"/>
<stop offset="0.42"/>
<stop offset="0.47"/>
<stop offset="0.58"/>
<stop offset="0.81"/>
</linearGradient>
</defs>
</svg>
