<svg width="119" height="36" viewBox="0 0 119 36" fill="none" xmlns="http://www.w3.org/2000/svg">
<g clip-path="url(#clip0_6934_4217)">
<path d="M0 11.7136V0H1.69663V8.20013C2.63332 6.2923 4.58327 5.17248 6.96327 5.17248C10.4449 5.07176 13.3433 7.82686 13.4435 11.3285C13.4435 11.4648 13.4435 11.607 13.4435 11.7433C13.4435 15.6122 10.657 18.4147 6.68639 18.4147C2.81594 18.4147 0.00589109 15.7663 0.00589109 11.7196M11.7292 11.7907C11.8411 9.1185 9.7851 6.86109 7.12822 6.74852C6.99272 6.74259 6.85134 6.74259 6.71584 6.74852C4.07074 6.6241 1.82035 8.68598 1.70252 11.3522C1.69663 11.5003 1.69663 11.6485 1.70252 11.7966C1.57881 14.4569 3.62891 16.7202 6.2799 16.8387C6.42718 16.8446 6.57445 16.8446 6.71584 16.8387C9.37272 16.9513 11.6172 14.8776 11.7292 12.2054C11.735 12.0691 11.735 11.9329 11.7292 11.7966V11.7907Z" fill="#040504"/>
<path d="M14.9102 11.8618C14.9102 7.93945 17.6966 5.16064 21.6496 5.16064C25.6025 5.16064 28.3595 7.88612 28.3595 11.8618V18.077H26.7925V14.9664C25.9088 17.2061 23.8293 18.4029 21.4021 18.4029C17.9323 18.5155 15.0339 15.7841 14.916 12.2943C14.916 12.1462 14.916 12.004 14.916 11.8558M26.6629 11.7788C26.6629 8.99409 24.4184 6.73668 21.6496 6.73668C18.8808 6.73668 16.6362 8.99409 16.6362 11.7788C16.5243 14.451 18.5803 16.7084 21.2372 16.8209C21.3727 16.8269 21.5141 16.8269 21.6496 16.8209C24.3064 16.9335 26.5509 14.8657 26.6629 12.1936C26.6688 12.0573 26.6688 11.9151 26.6629 11.7788Z" fill="#040504"/>
<path d="M29.9268 11.5062C29.9268 7.32911 32.4069 5.1665 36.1065 5.1665C39.8061 5.1665 42.2863 7.33504 42.2863 11.5062V18.077H40.5896V11.5062C40.5896 8.40153 38.8164 6.74254 36.1124 6.74254C33.4084 6.74254 31.6352 8.3956 31.6352 11.5062V18.077H29.9268V11.5062Z" fill="#040504"/>
<path d="M42.1802 22.1535H42.3805C44.2538 22.1535 44.9372 21.3418 44.9372 19.1969V5.49843H46.6338V19.1199C46.6338 22.1238 45.4674 23.6229 42.5336 23.6229H42.1802V22.1475V22.1535ZM44.5072 1.75386C44.5072 1.03694 45.0845 0.456299 45.7973 0.456299C46.5101 0.456299 47.0875 1.03694 47.0875 1.75386C47.0875 2.47078 46.5101 3.05143 45.7973 3.05143C45.1022 3.06328 44.5248 2.50633 44.5072 1.80719V1.75386Z" fill="#040504"/>
<path d="M48.7783 11.8618C48.7783 7.93945 51.5648 5.16064 55.5118 5.16064C59.4589 5.16064 62.2218 7.88612 62.2218 11.8618V18.077H60.6548V14.9664C59.7711 17.2061 57.6915 18.4029 55.2644 18.4029C51.8004 18.5155 48.8961 15.7841 48.7842 12.2943C48.7842 12.1462 48.7842 12.004 48.7842 11.8558M60.531 11.7788C60.531 8.99409 58.2865 6.73668 55.5177 6.73668C52.7489 6.73668 50.5044 8.99409 50.5044 11.7788C50.5044 14.5635 52.7489 16.8209 55.5177 16.8209C58.2865 16.8209 60.531 14.5635 60.531 11.7788Z" fill="#040504"/>
<path d="M76.3604 11.7906C76.3604 7.97493 79.1468 5.1665 83.0939 5.1665C87.0409 5.1665 89.7803 7.96308 89.7803 11.7906V12.3535H78.11C78.2691 14.9723 80.4959 16.969 83.0998 16.8387C85.0733 16.8387 86.5932 16.0269 87.4061 14.5694H89.2559C88.2957 16.8861 86.0159 18.4147 83.1057 18.4147C79.1586 18.4147 76.3721 15.6122 76.3721 11.7906M88.0188 10.8248C87.6123 8.2771 85.6388 6.74847 83.1057 6.74847C80.5725 6.74847 78.5518 8.35413 78.1689 10.8248H88.0188Z" fill="#040504"/>
<path d="M91.2472 11.7373C91.1235 8.24161 93.8393 5.29691 97.3151 5.17248C97.4505 5.17248 97.5919 5.17248 97.7274 5.17248C100.107 5.17248 102.057 6.2923 102.994 8.20013V0H104.691V11.7136C104.691 15.7604 101.881 18.4147 98.0102 18.4147C94.0337 18.4147 91.2531 15.6122 91.2531 11.7373M103 11.7847C103 9 100.755 6.74259 97.9866 6.74259C95.2178 6.74259 92.9733 9 92.9733 11.7847C92.9733 14.5695 95.2178 16.8269 97.9866 16.8269C100.755 16.8269 103 14.5695 103 11.7847Z" fill="#040504"/>
<path d="M74.0451 18.1719C73.833 18.1719 73.6209 18.2015 73.4206 18.2608L70.5517 12.6854L75.4589 11.7315L70.534 10.7776L72.319 7.42404C73.6975 7.77953 75.0996 6.94412 75.4472 5.55768C75.8006 4.17124 74.97 2.7611 73.5915 2.41153C72.213 2.05603 70.8109 2.89145 70.4633 4.27789C70.2159 5.25551 70.5576 6.29237 71.3411 6.93227L69.45 10.5524L66.4456 4.71633C67.5354 3.81574 67.6886 2.19823 66.7931 1.10804C65.8977 0.0119238 64.2894 -0.142125 63.2055 0.758468C62.1156 1.65906 61.9625 3.27657 62.8579 4.36676C63.3469 4.96518 64.0715 5.30291 64.8373 5.30291C65.0494 5.30291 65.2615 5.27328 65.4618 5.21403L68.3307 10.7894L63.4235 11.7433L68.3189 12.6972L66.5634 16.0567C65.1849 15.7012 63.7828 16.5366 63.4352 17.923C63.0818 19.3095 63.9124 20.7196 65.2909 21.0692C66.6694 21.4247 68.0715 20.5893 68.4191 19.2028C68.6665 18.2252 68.3248 17.1884 67.5413 16.5485L69.4265 12.9105L72.4368 18.7585C71.347 19.6591 71.1938 21.2766 72.0892 22.3668C72.9847 23.4629 74.593 23.6169 75.6769 22.7163C76.7668 21.8157 76.9199 20.1982 76.0245 19.108C75.5355 18.5096 74.8109 18.1719 74.0451 18.1719Z" fill="#040504"/>
<path d="M65.7741 31.023C65.7447 30.6261 65.3971 30.3298 64.6489 30.3298C63.9597 30.3298 63.5944 30.6024 63.5944 30.9993C63.5944 31.4793 64.1246 31.6274 64.8257 31.8051C65.7211 32.0362 66.9936 32.3917 66.9936 33.7544C66.9936 35.2949 65.8448 36 64.1776 36C62.5105 36 61.291 35.2238 61.291 33.8315H62.917C62.917 34.2818 63.3765 34.5958 64.2425 34.5958C65.0024 34.5958 65.3676 34.3351 65.3676 33.944C65.3676 33.4286 64.7726 33.2923 64.1482 33.1264C63.1585 32.8657 61.9685 32.5517 61.9685 31.2186C61.9685 29.6781 63.0937 28.9197 64.6784 28.9197C66.2631 28.9197 67.3883 29.7077 67.3883 31.029H65.7741V31.023Z" fill="#040504"/>
<path d="M71.9422 28.9138C73.8097 28.9138 75.3001 30.1284 75.3001 32.1311C75.3001 34.2759 73.5623 36.006 71.4356 36.0001C71.412 36.0001 71.3826 36.0001 71.359 36.0001C69.4738 36.0001 67.9834 34.7854 67.9834 32.8006C67.9893 30.6498 69.7272 28.9138 71.8656 28.9197C71.8892 28.9197 71.9128 28.9197 71.9363 28.9197M73.6271 32.2436C73.6978 31.3134 73.0026 30.5017 72.0718 30.4306C71.9952 30.4306 71.9128 30.4247 71.8362 30.4306C70.6285 30.4188 69.6388 31.3904 69.627 32.6051C69.627 32.6347 69.627 32.6643 69.627 32.6939C69.5622 33.6242 70.2632 34.4299 71.1881 34.4892C71.2647 34.4892 71.3413 34.4892 71.4179 34.4892C72.6197 34.507 73.6094 33.5471 73.6271 32.3384C73.6271 32.3029 73.6271 32.2733 73.6271 32.2377" fill="#040504"/>
<path d="M77.7566 26.1467H79.3708L77.5033 35.8222H75.8892L77.7566 26.1467Z" fill="#040504"/>
<path d="M81.3442 32.4569C81.3088 32.6405 81.2911 32.8301 81.2911 33.0138C81.2263 33.7663 81.7801 34.4239 82.5224 34.4891C82.6107 34.495 82.705 34.495 82.7934 34.4891C83.73 34.4891 84.3899 33.9736 84.6196 32.7887L85.3383 29.0974H86.9643L86.222 32.9427C85.8273 34.975 84.5136 36.0059 82.7109 36.0059C80.9082 36.0059 79.6357 35.0401 79.6357 33.2153C79.6357 32.9072 79.6711 32.605 79.73 32.3028L80.3545 29.1033H81.9922L81.3442 32.4687V32.4569Z" fill="#040504"/>
<path d="M89.1203 33.1322C89.0968 33.2507 89.0791 33.3752 89.0791 33.4996C89.0438 34.0091 89.4326 34.4535 89.9392 34.4891C89.9981 34.4891 90.0629 34.4891 90.1218 34.4831C90.7463 34.4831 91.1763 34.1691 91.3413 33.3515L91.3943 33.0493H93.0143L92.9319 33.5114C92.5961 35.2119 91.5357 35.9881 90.0335 35.9881C88.5312 35.9881 87.4473 35.2001 87.4473 33.7129C87.4473 33.464 87.4708 33.2211 87.518 32.9782L88.7374 26.6978H90.3634L89.9038 29.0855H93.3442L93.0615 30.5549H89.6211L89.1203 33.1263V33.1322Z" fill="#040504"/>
<path d="M95.029 29.0916H96.6431L95.3412 35.8223H93.7271L95.029 29.0916ZM95.1232 27.2371C95.1232 26.5853 95.6417 26.058 96.2838 26.0521C96.2838 26.0521 96.2956 26.0521 96.3015 26.0521C96.8199 26.0225 97.2735 26.4194 97.3029 26.9468C97.3029 26.9764 97.3029 27.006 97.3029 27.0356C97.3029 27.6874 96.7845 28.2147 96.1424 28.2206C96.1424 28.2206 96.1306 28.2206 96.1247 28.2206C95.6063 28.2562 95.1586 27.8651 95.1232 27.3437C95.1232 27.3082 95.1232 27.2726 95.1232 27.2371Z" fill="#040504"/>
<path d="M101.18 28.9138C103.047 28.9138 104.537 30.1284 104.537 32.1311C104.537 34.2759 102.8 36.006 100.673 36.0001C100.649 36.0001 100.62 36.0001 100.596 36.0001C98.7111 36.0001 97.2207 34.7854 97.2207 32.8006C97.2266 30.6498 98.9645 28.9138 101.103 28.9197C101.126 28.9197 101.15 28.9197 101.174 28.9197M102.864 32.2436C102.935 31.3134 102.24 30.5017 101.309 30.4306C101.233 30.4306 101.15 30.4247 101.073 30.4306C99.8658 30.4188 98.8761 31.3904 98.8643 32.5991C98.8643 32.6288 98.8643 32.6584 98.8643 32.688C98.7995 33.6182 99.5006 34.424 100.425 34.4833C100.502 34.4833 100.579 34.4833 100.655 34.4833C101.857 34.501 102.847 33.5412 102.864 32.3325C102.864 32.297 102.864 32.2673 102.864 32.2318" fill="#040504"/>
<path d="M110.517 32.4569C110.552 32.2733 110.57 32.0837 110.57 31.9C110.629 31.1475 110.075 30.4839 109.327 30.4247C109.239 30.4188 109.144 30.4247 109.056 30.4247C108.149 30.4247 107.471 30.9402 107.242 32.1311L106.523 35.8223H104.897L105.639 31.977C106.034 29.9448 107.348 28.9138 109.15 28.9138C110.953 28.9138 112.225 29.8796 112.225 31.7045C112.225 32.0126 112.19 32.3147 112.131 32.6169L111.507 35.8164H109.869L110.517 32.451V32.4569Z" fill="#040504"/>
<path d="M117.386 31.023C117.356 30.6261 117.003 30.3298 116.261 30.3298C115.572 30.3298 115.206 30.6024 115.206 30.9993C115.206 31.4793 115.736 31.6274 116.437 31.8051C117.333 32.0362 118.605 32.3917 118.605 33.7544C118.605 35.2949 117.457 36 115.789 36C114.122 36 112.903 35.2238 112.903 33.8315H114.529C114.529 34.2818 114.988 34.5958 115.854 34.5958C116.614 34.5958 116.979 34.3351 116.979 33.944C116.979 33.4286 116.384 33.2923 115.76 33.1264C114.77 32.8657 113.58 32.5517 113.58 31.2186C113.58 29.6781 114.706 28.9197 116.29 28.9197C117.875 28.9197 119 29.7077 119 31.029H117.386V31.023Z" fill="#040504"/>
</g>
<defs>
<clipPath id="clip0_6934_4217">
<rect width="119" height="36" fill="white"/>
</clipPath>
</defs>
</svg>
