<svg width="25" height="24" viewBox="0 0 25 24" fill="none" xmlns="http://www.w3.org/2000/svg">
<g id="fluent:mail-all-read-16-filled">
<path id="Vector" d="M11.36 1.59156C11.2496 1.53117 11.1258 1.49951 11 1.49951C10.8742 1.49951 10.7504 1.53117 10.64 1.59156L3.05 5.73156C2.747 5.89656 2.4995 6.13206 2.3195 6.41106L11 11.1451L19.6805 6.41106C19.4978 6.12732 19.2466 5.89415 18.95 5.73306L11.36 1.59006V1.59156ZM2 15.0001V7.94556L10.64 12.6586C10.7504 12.719 10.8742 12.7506 11 12.7506C11.1258 12.7506 11.2496 12.719 11.36 12.6586L20 7.94556V15.0001C20 15.7957 19.6839 16.5588 19.1213 17.1214C18.5587 17.684 17.7956 18.0001 17 18.0001H5C4.20435 18.0001 3.44129 17.684 2.87868 17.1214C2.31607 16.5588 2 15.7957 2 15.0001ZM5.402 19.5001C5.6653 19.9561 6.044 20.3348 6.50004 20.5981C6.95609 20.8614 7.4734 21 8 21.0001H17C18.5913 21.0001 20.1174 20.3679 21.2426 19.2427C22.3679 18.1175 23 16.5914 23 15.0001V9.00006C23 8.47346 22.8614 7.95615 22.5981 7.5001C22.3348 7.04406 21.956 6.66536 21.5 6.40206V15.0001C21.5 16.1935 21.0259 17.3381 20.182 18.182C19.3381 19.026 18.1935 19.5001 17 19.5001H5.402Z" fill="white"/>
</g>
</svg>
