<svg width="47" height="47" viewBox="0 0 47 47" fill="none" xmlns="http://www.w3.org/2000/svg">
<rect x="0.5" y="0.5" width="46" height="46" rx="11.5" stroke="#D1D2E7"/>
<path fill-rule="evenodd" clip-rule="evenodd" d="M21.9432 21.5752H24.9144V23.0552C25.3424 22.204 26.44 21.4392 28.0888 21.4392C31.2496 21.4392 32 23.1336 32 26.2424V32H28.8V26.9504C28.8 25.18 28.372 24.1816 27.2824 24.1816C25.7712 24.1816 25.1432 25.2576 25.1432 26.9496V32H21.9432V21.5752ZM16.456 31.864H19.656V21.4392H16.456V31.864ZM20.1144 18.04C20.1145 18.3082 20.0613 18.5738 19.9579 18.8213C19.8545 19.0688 19.7029 19.2932 19.512 19.4816C19.1251 19.8661 18.6014 20.0813 18.056 20.08C17.5115 20.0796 16.989 19.865 16.6016 19.4824C16.4114 19.2934 16.2603 19.0687 16.1571 18.8211C16.0538 18.5736 16.0005 18.3082 16 18.04C16 17.4984 16.216 16.98 16.6024 16.5976C16.9895 16.2145 17.5122 15.9998 18.0568 16C18.6024 16 19.1256 16.2152 19.512 16.5976C19.8976 16.98 20.1144 17.4984 20.1144 18.04Z" fill="#595A7E"/>
</svg>
