<svg width="47" height="47" viewBox="0 0 47 47" fill="none" xmlns="http://www.w3.org/2000/svg">
<rect x="0.5" y="0.5" width="46" height="46" rx="11.5" stroke="#D1D2E7"/>
<path d="M23.9978 21.3322C22.5289 21.3322 21.3301 22.531 21.3301 24C21.3301 25.469 22.5289 26.6678 23.9978 26.6678C25.4668 26.6678 26.6656 25.469 26.6656 24C26.6656 22.531 25.4668 21.3322 23.9978 21.3322ZM31.9991 24C31.9991 22.8953 32.0091 21.8005 31.9471 20.6978C31.885 19.4169 31.5928 18.2801 30.6562 17.3435C29.7176 16.4049 28.5829 16.1147 27.302 16.0526C26.1973 15.9906 25.1026 16.0006 23.9999 16.0006C22.8951 16.0006 21.8004 15.9906 20.6977 16.0526C19.4168 16.1147 18.2801 16.4069 17.3435 17.3435C16.4049 18.2821 16.1147 19.4169 16.0526 20.6978C15.9906 21.8025 16.0006 22.8973 16.0006 24C16.0006 25.1027 15.9906 26.1995 16.0526 27.3022C16.1147 28.5831 16.4069 29.7199 17.3435 30.6565C18.2821 31.5951 19.4168 31.8853 20.6977 31.9474C21.8024 32.0094 22.8971 31.9994 23.9999 31.9994C25.1046 31.9994 26.1993 32.0094 27.302 31.9474C28.5829 31.8853 29.7196 31.5931 30.6562 30.6565C31.5948 29.7179 31.885 28.5831 31.9471 27.3022C32.0111 26.1995 31.9991 25.1047 31.9991 24ZM23.9978 28.1048C21.7264 28.1048 19.8932 26.2715 19.8932 24C19.8932 21.7285 21.7264 19.8952 23.9978 19.8952C26.2693 19.8952 28.1025 21.7285 28.1025 24C28.1025 26.2715 26.2693 28.1048 23.9978 28.1048ZM28.2707 20.6858C27.7403 20.6858 27.312 20.2575 27.312 19.7271C27.312 19.1968 27.7403 18.7685 28.2707 18.7685C28.801 18.7685 29.2293 19.1968 29.2293 19.7271C29.2294 19.853 29.2048 19.9778 29.1566 20.0942C29.1085 20.2105 29.0379 20.3163 28.9489 20.4053C28.8598 20.4944 28.7541 20.565 28.6377 20.6131C28.5213 20.6612 28.3966 20.6859 28.2707 20.6858Z" fill="#595A7E"/>
</svg>
