<svg width="280" height="281" viewBox="0 0 280 281" fill="none" xmlns="http://www.w3.org/2000/svg">
<rect width="280" height="280.862" rx="20" fill="#F7DFD3"/>
<path d="M96.8476 210.962C96.8476 210.962 95.4085 250.371 94.4121 254.265C93.4158 258.159 42.2153 279.973 42.2153 279.973H237.785C237.785 279.973 182.145 260.272 180.645 255.768C179.145 251.264 179.112 213.68 179.112 213.68L96.8476 210.962Z" fill="url(#paint0_linear_6934_3782)"/>
<path d="M94.6059 253.122C94.6059 253.122 90.5209 252.645 90.0781 253.122C89.6353 253.599 90.0781 256.822 90.0781 256.822L42.2153 279.973H237.785L186.147 257.937C186.147 257.937 184.37 253.039 180.645 255.768L181.923 257.604C181.923 257.604 164.598 276.191 135.721 276.191C106.844 276.191 94.6059 253.122 94.6059 253.122Z" fill="url(#paint1_linear_6934_3782)"/>
<g style="mix-blend-mode:multiply">
<path d="M96.1836 226.654C96.1836 226.654 105.826 229.372 108.162 233.548C110.498 237.725 125.487 269.102 137.31 269.601C149.133 270.101 156.805 253.405 162.8 249.567C168.794 245.729 179.665 245.446 179.665 245.446L179.112 213.658L96.8478 210.94L96.1836 226.654Z" fill="#C65894"/>
</g>
<path style="mix-blend-mode:multiply" opacity="0.85" d="M152.775 232.566L149.731 263.849C149.731 263.849 157.076 255.602 160.801 249.589C164.527 243.577 171.545 220.042 171.545 220.042L152.775 232.566Z" fill="url(#paint2_linear_6934_3782)"/>
<path style="mix-blend-mode:multiply" opacity="0.85" d="M186.147 257.937C186.147 257.937 173.582 269.291 160.652 274.632C160.652 274.632 186.33 266.451 193.509 261.082L186.147 257.937Z" fill="url(#paint3_linear_6934_3782)"/>
<path style="mix-blend-mode:multiply" opacity="0.85" d="M90.0947 256.822C96.7957 263.337 104.015 269.293 111.682 274.632C111.682 274.632 95.4306 270.278 81.4985 260.993L90.0947 256.822Z" fill="url(#paint4_linear_6934_3782)"/>
<g style="mix-blend-mode:multiply" opacity="0.6">
<path d="M102.145 262.635C102.145 262.635 115.247 274.632 137.947 274.632C160.646 274.632 174.396 263.849 174.396 263.849C174.396 263.849 158.77 276.191 135.721 276.191C112.673 276.191 102.145 262.635 102.145 262.635Z" fill="#D177B8"/>
</g>
<path d="M78.7253 147.648C78.7253 147.648 70.9207 135.734 65.6235 135.762C62.402 135.762 54.6251 142.556 54.7136 149.029C54.8299 157.693 62.4629 167.538 64.3947 172.585C66.3265 177.633 71.2417 184.233 74.5241 184.855C77.8064 185.476 82.0851 179.264 82.0851 179.264C82.0851 179.264 80.491 155.507 78.7253 147.648Z" fill="url(#paint5_linear_6934_3782)"/>
<path style="mix-blend-mode:multiply" opacity="0.85" d="M78.1497 160.327C78.1497 160.327 65.3358 144.464 60.6752 144.464C56.0145 144.464 56.009 153.488 57.9076 158.641C59.2083 162.202 61.7822 167.355 61.7822 167.355C61.7822 167.355 59.7674 161.808 59.5238 157.682C59.153 151.314 60.5645 146.683 62.1752 146.694C65.1254 146.694 67.4447 150.754 67.8155 152.191C68.1864 153.627 65.4852 159.911 66.1993 164.293C66.9133 168.675 69.5204 170.345 70.4116 169.868C71.3027 169.391 69.9355 164.449 70.7271 162.701C71.5186 160.954 73.8268 158.397 75.1552 158.957C76.4836 159.518 78.1497 160.327 78.1497 160.327Z" fill="url(#paint6_linear_6934_3782)"/>
<path style="mix-blend-mode:multiply" opacity="0.85" d="M78.1496 160.328C78.1496 160.328 74.9946 158.436 74.0315 159.041C73.0683 159.645 70.6329 161.847 70.5277 163.228C70.4225 164.61 71.3026 168.548 70.5277 169.23C69.7528 169.912 66.9686 165.48 66.8413 161.559C66.714 157.637 68.9114 153.117 68.9114 152.59C68.9114 152.063 68.4022 149.545 68.4022 149.545C68.4022 149.545 75.847 156.606 78.1496 160.328Z" fill="url(#paint7_linear_6934_3782)"/>
<path d="M198.833 148.064C198.833 148.064 205.996 135.745 211.288 135.49C214.504 135.335 222.629 141.691 222.884 148.164C223.227 156.817 216.109 167.056 214.47 172.203C212.832 177.35 208.249 184.178 205.005 184.988C201.762 185.798 197.156 179.807 197.156 179.807C197.156 179.807 197.477 156.001 198.833 148.064Z" fill="url(#paint8_linear_6934_3782)"/>
<path style="mix-blend-mode:multiply" opacity="0.85" d="M200.079 160.694C200.079 160.694 212.041 144.17 216.685 143.921C221.329 143.671 221.816 152.684 220.211 157.926C219.104 161.553 216.834 166.834 216.834 166.834C216.834 166.834 218.556 161.204 218.572 157.055C218.605 150.676 216.95 146.128 215.345 146.222C212.4 146.405 210.297 150.56 210.004 152.013C209.71 153.466 212.771 159.601 212.262 164.01C211.753 168.42 209.251 170.234 208.349 169.801C207.446 169.368 208.537 164.371 207.651 162.663C206.766 160.954 204.33 158.536 203.013 159.163C201.695 159.789 200.079 160.694 200.079 160.694Z" fill="url(#paint9_linear_6934_3782)"/>
<path style="mix-blend-mode:multiply" opacity="0.85" d="M200.079 160.694C200.079 160.694 203.135 158.636 204.131 159.185C205.127 159.734 207.673 161.808 207.845 163.178C208.017 164.548 207.358 168.536 208.166 169.174C208.974 169.812 211.52 165.236 211.437 161.315C211.354 157.393 208.93 152.995 208.897 152.468C208.863 151.941 209.245 149.401 209.245 149.401C209.245 149.401 202.188 156.855 200.079 160.694Z" fill="url(#paint10_linear_6934_3782)"/>
<path d="M197.665 176.995C195.527 191.069 189.277 204.193 179.704 214.712C175.934 218.822 176.106 218.628 172.403 222.383C170.471 224.302 168.423 226.098 166.27 227.763C163.473 229.863 160.446 231.634 157.247 233.044C150.655 235.262 139.109 235.262 139.109 235.262C139.109 235.262 125.929 235.262 120.842 233.204C115.138 230.683 109.959 227.108 105.576 222.666C99.2774 216.276 92.065 211.867 86.6959 199.925C86.1793 198.66 85.7032 197.403 85.2678 196.153C82.2279 187.474 80.4585 178.4 80.0149 169.213C79.6053 161.254 79.0961 153.96 78.1329 145.363C76.9484 134.891 74.6568 93.5241 77.8008 85.1709C80.9448 76.8177 118.263 54.4038 139.103 54.4038C153.727 54.4038 176.477 65.4471 189.816 74.9263C195.479 78.9476 199.453 82.6915 200.394 85.1709C203.549 93.5241 201.097 134.33 200.128 144.825C199.21 154.681 198.435 164.16 197.942 174.377C197.905 175.201 197.818 176.021 197.682 176.834C197.682 176.901 197.671 176.945 197.665 176.995Z" fill="url(#paint11_linear_6934_3782)"/>
<path style="mix-blend-mode:multiply" opacity="0.6" d="M199.774 148.757C198.8 158.43 198.435 164.288 197.948 174.399C197.461 184.511 193.376 193.258 191.638 197.035C188.632 203.53 179.715 216.049 172.486 222.804L172.425 222.865C172.257 222.993 172.049 223.058 171.839 223.047C171.628 223.037 171.428 222.952 171.273 222.809C171.118 222.665 171.019 222.471 170.993 222.261C170.967 222.052 171.015 221.839 171.13 221.662C174.39 217.718 177.888 213.298 179.261 211.029C182.123 206.303 189.252 185.659 191.732 177.267C194.018 169.502 193.331 154.881 193.741 153.361C193.771 153.231 193.771 153.097 193.741 152.967C193.566 151.745 192.974 150.621 192.066 149.787C191.158 148.953 189.989 148.459 188.759 148.391C188.605 148.379 188.451 148.408 188.311 148.474C175.58 154.648 157.685 150.554 154.386 149.722C154.226 149.682 154.081 149.598 153.966 149.48C153.852 149.361 153.773 149.213 153.738 149.051C151.491 138.696 152.205 121.662 152.249 120.669C152.249 120.636 153.578 123.515 153.583 123.481L154.02 120.658C154.087 120.237 162.755 115.666 163.181 115.666L189.689 115.411C189.832 115.404 189.972 115.363 190.096 115.29C190.219 115.218 190.324 115.117 190.401 114.996C190.478 114.875 190.525 114.737 190.538 114.594C190.551 114.451 190.529 114.307 190.475 114.174C189.54 111.911 187.658 106.88 187.89 103.475C188.156 99.6752 189.479 90.601 188.997 85.9307C188.979 85.7606 189.011 85.589 189.088 85.4362C189.164 85.2834 189.283 85.1559 189.43 85.0689C189.577 84.9818 189.746 84.9389 189.916 84.9452C190.087 84.9515 190.252 85.0067 190.392 85.1043C195.058 88.3213 198.269 91.261 199.099 93.2855C202.298 100.945 200.748 139.073 199.774 148.757Z" fill="url(#paint12_linear_6934_3782)"/>
<path style="mix-blend-mode:multiply" opacity="0.6" d="M78.4987 148.757C79.4785 158.431 79.4176 164.371 80.4194 174.394C81.4213 184.417 85.3568 193.635 87.0949 197.401C90.0949 203.896 99.0121 216.415 106.241 223.171L106.302 223.232C106.47 223.379 106.687 223.458 106.91 223.453C107.133 223.448 107.347 223.36 107.508 223.206C107.67 223.052 107.769 222.844 107.786 222.621C107.802 222.398 107.735 222.176 107.597 222C104.337 218.057 100.839 213.636 99.466 211.373C96.6043 206.642 89.475 185.997 86.9952 177.605C84.7092 169.84 85.3956 155.219 84.986 153.705C84.9583 153.573 84.9583 153.437 84.986 153.306C85.1616 152.084 85.7537 150.961 86.6617 150.127C87.5698 149.293 88.7378 148.799 89.9676 148.73C90.1206 148.718 90.2739 148.748 90.4104 148.818C103.141 154.986 121.037 150.898 124.336 150.061C124.491 150.017 124.632 149.931 124.744 149.813C124.855 149.694 124.932 149.548 124.967 149.39C127.181 139.034 126.494 122 126.45 121.008C126.45 120.98 125.122 123.853 125.116 123.82L124.679 120.997C124.618 120.575 115.944 116.005 115.518 116.005L88.9879 115.722C88.8443 115.716 88.7042 115.675 88.5796 115.603C88.455 115.532 88.3495 115.431 88.2723 115.309C88.1951 115.188 88.1484 115.049 88.1361 114.906C88.1239 114.762 88.1464 114.618 88.2019 114.485C89.1374 112.222 91.0138 107.191 90.7813 103.785C90.5156 99.986 89.1927 90.9117 89.6743 86.2415C89.6906 86.0713 89.6581 85.8999 89.5806 85.7475C89.5031 85.5952 89.3838 85.4682 89.2367 85.3814C89.0897 85.2946 88.9209 85.2517 88.7504 85.2576C88.5798 85.2636 88.4145 85.3182 88.2739 85.415C83.6077 88.6376 80.3973 91.5718 79.567 93.6018C76.4286 101.301 77.5301 139.073 78.4987 148.757Z" fill="url(#paint13_linear_6934_3782)"/>
<path d="M195.302 129.377C195.302 129.377 186.689 124.513 177.772 124.668C174.558 124.74 171.356 125.087 168.202 125.706C163.872 126.615 159.617 127.848 155.471 129.394C154.491 127.534 153.889 125.498 153.699 123.404C153.509 121.309 153.735 119.198 154.364 117.191C157.441 114.058 160.845 114.973 160.845 114.973C158.792 117.79 157.552 123.709 157.552 123.709C159.266 120.891 161.163 118.189 163.231 115.622C163.231 115.622 179.322 114.047 185.499 116.332C188.178 117.325 190.431 119.66 191.311 120.298C194.71 122.827 195.302 129.377 195.302 129.377Z" fill="url(#paint14_linear_6934_3782)"/>
<g style="mix-blend-mode:multiply">
<path d="M195.302 129.377C195.302 129.377 187.049 124.635 177.512 124.746C174.395 124.779 173.377 124.851 164.781 126.46C176.72 121.218 186.324 121.89 187.303 121.978C189.612 122.189 184.824 118.19 184.824 118.19C186.833 118.647 188.792 119.307 190.669 120.159C194.604 121.995 195.302 129.377 195.302 129.377Z" fill="#CF478B"/>
</g>
<path d="M83.5132 129.899C83.5132 129.899 92.054 124.907 100.971 124.935C104.192 124.953 107.405 125.248 110.575 125.816C114.916 126.662 119.188 127.832 123.355 129.316C124.307 127.445 124.88 125.403 125.041 123.309C125.203 121.215 124.95 119.11 124.296 117.114C121.169 114.024 117.782 115.012 117.782 115.012C119.879 117.785 121.202 123.703 121.202 123.703C119.449 120.91 117.513 118.236 115.407 115.699C115.407 115.699 99.294 114.357 93.1499 116.731C90.4875 117.763 88.2679 120.115 87.3989 120.786C84.0058 123.337 83.5132 129.899 83.5132 129.899Z" fill="url(#paint15_linear_6934_3782)"/>
<g style="mix-blend-mode:multiply">
<path d="M83.5132 129.899C83.5132 129.899 91.6942 125.034 101.226 125.007C104.348 125.007 105.361 125.057 113.957 126.538C101.94 121.468 92.3695 122.278 91.3676 122.383C89.065 122.633 93.792 118.562 93.792 118.562C91.7916 119.047 89.846 119.737 87.9856 120.619C84.1054 122.505 83.5132 129.899 83.5132 129.899Z" fill="#CF478B"/>
</g>
<path d="M204.169 142.007L199.691 146.855L197.477 102.77C195.651 90.2681 188.123 84.8214 180.667 87.0511C171.113 89.9131 165.722 74.1885 140.813 73.6227C115.905 73.057 107.536 86.7682 100.003 85.2152C85.5391 79.957 85.2125 99.8693 84.5483 102.77L78.5038 147.337L74.668 143.455C76.7935 118.966 76.0462 101.589 77.5905 89.1311C78.4319 82.3642 80.7677 73.7281 85.3398 68.775C86.8398 67.1554 88.6222 65.447 90.3215 63.783C94.1961 59.9559 101.137 56.456 106.401 53.7991C117.411 48.2374 129.584 45.3833 141.913 45.473C154.243 45.5627 166.373 48.5937 177.301 54.315C182.051 56.7999 187.536 59.1239 191.217 62.6349C195.091 66.34 195.833 67.7267 197.034 69.5737C200.951 75.4302 203.474 82.1099 204.407 89.0978C205.957 101.572 202.459 119.238 204.169 142.007Z" fill="url(#paint16_linear_6934_3782)"/>
<path d="M204.169 142.007L200.372 145.002L197.145 101.589C196.498 98.7267 193.824 81.7374 179.671 85.5036C178.826 85.6597 177.967 85.7359 177.108 85.731C169.802 85.2151 162.456 74.1219 139.574 73.5673C127.308 73.7059 120.201 77.1115 103.307 83.052C102.26 83.4178 101.135 83.4963 100.047 83.2794C84.1224 80.2121 84.8586 98.76 84.2165 101.583L78.1887 145.607L74.7568 142.379C76.7108 116.354 75.1056 100.491 76.6443 88.0217C77.4857 81.2549 80.7681 73.6893 85.3623 68.7362C84.5541 78.0711 118.524 68.5254 138.888 68.5254C159.251 68.5254 186.789 75.1203 196.199 68.5254C200.793 73.473 203.251 81.1495 204.092 87.9385C205.636 100.391 202.044 117.519 204.169 142.007Z" fill="url(#paint17_linear_6934_3782)"/>
<g style="mix-blend-mode:multiply">
<path d="M115.557 192.348C115.557 192.348 121.297 210.963 139.358 210.963C155.327 210.963 162.451 192.348 162.451 192.348C162.451 192.348 152.183 201.5 143.327 202.365C134.47 203.231 115.557 192.348 115.557 192.348Z" fill="#D0478C"/>
</g>
<path d="M111.782 185.454C111.782 185.454 121.258 204.467 127.861 206.603C134.465 208.738 146.565 207.479 150.456 206.603C154.347 205.726 166.021 186.801 166.021 186.801C166.021 186.801 153.318 198.006 138.899 198.006C124.479 198.006 111.782 185.454 111.782 185.454Z" fill="#D18C81"/>
<path d="M111.782 185.454C111.782 185.454 119.93 183.945 138.019 183.945C156.108 183.945 167.726 185.437 167.726 185.437C167.726 185.437 152.227 198.555 138.019 198.555C126.074 198.571 111.782 185.454 111.782 185.454Z" fill="url(#paint18_linear_6934_3782)"/>
<path d="M165.401 184.062C165.401 184.062 168.229 186.319 169.469 188.077C169.469 188.077 169.884 184.943 168.645 183.357C167.405 181.771 165.401 184.062 165.401 184.062Z" fill="#75294F"/>
<path d="M113.846 184.062C113.846 184.062 111.018 186.319 109.778 188.077C109.778 188.077 109.363 184.943 110.608 183.357C111.854 181.771 113.846 184.062 113.846 184.062Z" fill="#75294F"/>
<path d="M116.913 188.543C116.913 188.543 127.131 197.645 138.018 197.972C151.508 198.41 162.163 188.055 162.163 188.055C162.163 188.055 148.059 191.339 137.675 191.339C127.291 191.339 116.913 188.543 116.913 188.543Z" fill="#FFECEC"/>
<path d="M157.392 189.07L157.109 192.121L163.536 187.528L157.392 189.07Z" fill="#4E1B3D"/>
<path d="M121.313 189.553L121.872 192.348L115.025 187.706L121.313 189.553Z" fill="#4E1B3D"/>
<g style="mix-blend-mode:soft-light">
<path d="M144.124 199.792L145.784 203.674C145.784 203.674 149.282 203.463 151.386 202.62C153.489 201.777 158.504 196.38 160.176 194.034L158.388 193.524C154.063 196.484 149.226 198.609 144.124 199.792Z" fill="#FFCCB8"/>
</g>
<g style="mix-blend-mode:multiply" opacity="0.6">
<path d="M121.407 190.046C126.836 191.422 132.413 192.126 138.013 192.143C147.151 192.143 157.347 189.492 157.347 189.492L157.386 189.092C157.386 189.092 146.316 191.383 137.67 191.383C132.168 191.351 126.684 190.745 121.308 189.575L121.407 190.046Z" fill="#D177B8"/>
</g>
<path style="mix-blend-mode:multiply" opacity="0.6" d="M173.881 209.914C172.398 209.359 174.988 203.258 175.569 193.585C175.729 191.33 175.604 189.064 175.198 186.84C173.864 180.129 170.405 178.415 167.067 177.966C156.805 177.527 140.404 179.552 139.364 179.679C138.328 179.552 121.928 177.527 111.66 177.966C108.339 178.415 104.863 180.129 103.534 186.84C103.125 189.063 103.001 191.33 103.163 193.585C103.745 203.28 106.335 209.354 104.824 209.914C97.2906 214.451 83.3973 187.606 82.0854 184.993C83.353 194.422 89.0044 206.031 94.1356 211.744C97.3792 215.361 104.282 221.506 104.282 221.506C104.282 221.506 113.536 229.599 121.402 232.966C129.361 235.623 138.633 235.268 139.364 235.234C140.094 235.201 149.438 235.234 157.397 232.583C163.591 229.566 169.021 226.132 171.717 223.653C173.433 222.083 175.425 219.859 177.008 218.178C179.4 215.638 180.656 213.486 182.771 210.968C185.162 207.773 185.621 207.773 189.474 200.84C195.186 189.508 195.413 186.252 196.088 183.967C191.25 191.261 179.538 213.209 173.881 209.914ZM139.103 219.998C139.103 219.998 133.624 219.948 129.887 219.027C126.422 218.178 123.92 217.058 119.68 214.889C114.881 212.432 113.996 214.335 109.861 196.414C108.87 192.143 108.228 187.694 109.861 184.133C110.149 183.385 110.633 182.728 111.261 182.231C111.711 181.892 112.225 181.65 112.773 181.521C117.201 180.439 119.741 181.399 125.653 181.837C131.437 182.264 138.312 182.664 139.22 182.68H153.611C158.842 182.292 160.181 181.992 163.912 181.748C164.674 181.707 165.437 181.707 166.198 181.748C166.982 181.83 167.738 182.084 168.412 182.492C169.09 183.044 169.607 183.771 169.907 184.594C171.484 189.686 170.123 192.753 168.988 196.436C163.58 213.98 163.801 211.04 158.471 214.312C156.119 215.749 152.67 217.812 150.118 218.594C146.56 219.72 142.829 220.195 139.103 219.998Z" fill="url(#paint19_linear_6934_3782)"/>
<path d="M184.547 208.833C180.152 214.063 181.226 214.557 169.901 225.605C167.818 227.467 165.585 229.153 163.226 230.647C159.495 233.077 158.039 233.709 155.394 234.341C150.163 235.856 138.998 236.033 138.998 236.033C138.998 236.033 126.998 235.778 122.199 234.369C119.791 233.659 114.571 231.147 108.494 226.049C106.319 223.991 96.3939 214.729 92.0488 208.982C95.7901 213.002 99.7915 216.771 104.027 220.264C110.747 225.744 121.872 234.247 138.998 234.247C150.101 234.29 160.936 230.83 169.968 224.357C172.569 222.494 184.193 209.099 184.547 208.833Z" fill="url(#paint20_linear_6934_3782)"/>
<path style="mix-blend-mode:multiply" opacity="0.35" d="M155.72 148.602C160.761 153.292 167.454 155.786 174.329 155.535C183.058 155.263 186.678 154.714 189.042 147.542L184.06 148.591C177.694 150.834 170.812 151.155 164.266 149.512L155.72 148.602Z" fill="url(#paint21_linear_6934_3782)"/>
<path d="M186.695 147.764C186.695 147.764 183.329 151.924 175.835 152.202C168.34 152.479 160.812 150.698 156.7 147.687C157.211 146.46 157.853 145.292 158.615 144.203C160.929 140.825 165.506 136.216 173.278 136.211C184.06 136.211 186.252 145.146 186.628 147.304C186.678 147.598 186.695 147.764 186.695 147.764Z" fill="url(#paint22_linear_6934_3782)"/>
<path d="M170.964 152.329C176.549 152.329 181.077 147.792 181.077 142.196C181.077 136.599 176.549 132.062 170.964 132.062C165.379 132.062 160.851 136.599 160.851 142.196C160.851 147.792 165.379 152.329 170.964 152.329Z" fill="url(#paint23_linear_6934_3782)"/>
<path d="M179.998 144.386C181.214 139.38 178.15 134.333 173.154 133.115C168.158 131.896 163.122 134.967 161.906 139.973C160.69 144.979 163.754 150.026 168.75 151.244C173.746 152.463 178.782 149.392 179.998 144.386Z" fill="url(#paint24_linear_6934_3782)"/>
<path style="mix-blend-mode:multiply" d="M176.677 142.232C176.696 139.074 174.157 136.498 171.005 136.478C167.854 136.459 165.283 139.004 165.264 142.162C165.245 145.32 167.784 147.896 170.936 147.915C174.087 147.935 176.658 145.39 176.677 142.232Z" fill="url(#paint25_linear_6934_3782)"/>
<g style="mix-blend-mode:multiply" opacity="0.6">
<path d="M186.695 147.765C184.63 145.18 180.434 142.49 174.174 140.964C166.425 139.073 159.024 143.649 158.615 144.193C160.923 140.815 165.39 137.026 173.161 137.021C183.944 137.026 186.318 145.601 186.695 147.765Z" fill="#CF77B6"/>
</g>
<path d="M160.07 142.301C160.07 142.301 162.893 133.088 172.098 131.64C183.611 129.827 185.964 144.819 185.964 144.819C185.964 144.819 176.781 127.519 160.07 142.301Z" fill="#BC6340"/>
<path d="M160.807 149.867C161.631 150.177 176.056 151.286 185.018 149.256C185.261 149.201 180.922 153.139 174.44 153.139C165.556 153.161 160.807 149.867 160.807 149.867Z" fill="#75233D"/>
<path d="M158.615 144.192C158.615 144.192 155.293 146.966 155.354 147.942C155.415 148.918 158.897 149.012 158.897 149.012C158.897 149.012 157.308 147.615 157.469 147.021C157.629 146.428 158.615 144.192 158.615 144.192Z" fill="#870A2C"/>
<path d="M186.496 146.616C186.496 146.616 186.701 142.129 186.081 140.631C185.461 139.134 180.274 135.085 173.427 134.497C166.58 133.909 161.593 139.722 158.969 143.682C158.969 143.682 166.879 135.229 175.547 137.525C184.215 139.822 186.496 146.616 186.496 146.616Z" fill="#2E031E"/>
<path style="mix-blend-mode:multiply" opacity="0.35" d="M123.538 147.515C121.129 150.005 118.23 151.968 115.025 153.279C111.82 154.59 108.378 155.22 104.918 155.13C96.0614 154.931 92.8732 153.799 90.3657 146.417L95.4193 147.454C101.895 149.707 108.894 149.975 115.523 148.225L123.538 147.515Z" fill="url(#paint26_linear_6934_3782)"/>
<path d="M91.916 147.892C91.916 147.892 95.3036 152.03 102.793 152.252C110.282 152.473 117.793 150.66 121.884 147.626C121.368 146.403 120.72 145.24 119.952 144.159C117.621 140.798 113.016 136.222 105.256 136.266C94.4844 136.333 92.3478 145.268 91.9714 147.432C91.9382 147.731 91.916 147.892 91.916 147.892Z" fill="url(#paint27_linear_6934_3782)"/>
<path d="M107.608 152.363C113.187 152.363 117.71 147.831 117.71 142.24C117.71 136.649 113.187 132.117 107.608 132.117C102.029 132.117 97.5063 136.649 97.5063 142.24C97.5063 147.831 102.029 152.363 107.608 152.363Z" fill="url(#paint28_linear_6934_3782)"/>
<path d="M109.86 151.275C114.843 150.028 117.873 144.97 116.629 139.976C115.385 134.983 110.337 131.946 105.354 133.193C100.371 134.44 97.3406 139.498 98.5848 144.491C99.829 149.484 104.877 152.521 109.86 151.275Z" fill="url(#paint29_linear_6934_3782)"/>
<path style="mix-blend-mode:multiply" d="M113.133 140.859C113.406 141.955 113.348 143.108 112.967 144.172C112.587 145.236 111.9 146.163 110.993 146.835C110.087 147.507 109.001 147.895 107.875 147.949C106.748 148.004 105.631 147.722 104.664 147.14C103.698 146.558 102.925 145.701 102.444 144.679C101.963 143.657 101.796 142.515 101.963 141.397C102.13 140.279 102.624 139.236 103.382 138.4C104.141 137.564 105.13 136.972 106.225 136.699C106.951 136.517 107.706 136.481 108.446 136.591C109.186 136.702 109.897 136.958 110.539 137.344C111.181 137.731 111.74 138.24 112.185 138.843C112.63 139.446 112.952 140.131 113.133 140.859Z" fill="url(#paint30_linear_6934_3782)"/>
<g style="mix-blend-mode:multiply" opacity="0.6">
<path d="M91.9824 147.432C94.0304 144.836 98.0213 141.769 104.265 140.221C112.014 138.291 119.531 143.638 119.952 144.176C117.621 140.815 113.016 136.239 105.256 136.283C94.4843 136.333 92.3477 145.269 91.9824 147.432Z" fill="#CF77B6"/>
</g>
<path d="M118.485 142.29C118.485 142.29 115.612 133.099 106.407 131.707C94.8991 129.96 92.6353 144.952 92.6353 144.952C92.6353 144.952 101.719 127.619 118.485 142.29Z" fill="#BC6340"/>
<path d="M117.771 149.85C116.952 150.16 102.549 151.358 93.582 149.384C93.3384 149.328 97.6946 153.267 104.171 153.211C113.071 153.167 117.771 149.85 117.771 149.85Z" fill="#75233D"/>
<path d="M119.951 144.17C119.951 144.17 123.272 146.894 123.228 147.897C123.184 148.901 119.697 149.007 119.697 149.007C119.697 149.007 121.28 147.598 121.114 147.01C120.948 146.422 119.951 144.17 119.951 144.17Z" fill="#870A2C"/>
<path d="M92.1149 146.783C92.1149 146.783 91.8824 142.301 92.4968 140.803C93.1113 139.306 98.259 135.201 105.095 134.58C111.931 133.959 116.946 139.733 119.592 143.671C119.592 143.671 111.643 135.274 102.986 137.62C94.329 139.966 92.1149 146.783 92.1149 146.783Z" fill="#2E031E"/>
<path d="M160.701 170.566C159.921 172.469 152.244 172.047 149.936 172.885C147.627 173.722 145.784 176.213 139.596 176.213C133.407 176.213 131.575 173.711 129.262 172.885C126.948 172.058 119.298 172.469 118.496 170.566C116.89 166.684 118.767 163.816 121.014 161.958C121.991 161.166 123.055 160.489 124.186 159.939C125.19 159.437 126.13 158.817 126.987 158.092C129.657 155.952 132.775 154.445 136.109 153.683C138.402 153.128 140.795 153.128 143.089 153.683C146.422 154.445 149.54 155.952 152.211 158.092C153.067 158.817 154.008 159.437 155.011 159.939C156.201 160.515 157.316 161.234 158.332 162.08C160.502 163.933 162.273 166.75 160.701 170.566Z" fill="url(#paint31_linear_6934_3782)"/>
<g style="mix-blend-mode:multiply" opacity="0.6">
<path d="M160.701 170.567C159.921 172.469 152.244 172.047 149.936 172.885C147.627 173.723 145.784 176.213 139.596 176.213C133.407 176.213 131.575 173.711 129.262 172.885C126.948 172.059 119.298 172.469 118.496 170.567C116.89 166.684 118.767 163.816 121.014 161.958C118.828 166.789 119.669 169.779 121.014 169.845C122.359 169.912 126.643 168.736 130.247 169.291C133.85 169.845 135.229 170.611 139.413 170.611C143.598 170.611 144.982 169.845 148.579 169.291C152.177 168.736 156.478 169.918 157.818 169.845C159.157 169.773 160.004 166.789 157.818 161.953L158.321 162.075C160.502 163.933 162.273 166.75 160.701 170.567Z" fill="#D077B7"/>
</g>
<path d="M123.538 172.147C124.489 171.849 125.492 171.76 126.48 171.888C127.468 172.015 128.417 172.355 129.261 172.885L123.538 172.147Z" fill="url(#paint32_linear_6934_3782)"/>
<path d="M155.488 172.147C154.537 171.849 153.533 171.76 152.545 171.888C151.557 172.015 150.608 172.355 149.764 172.885L155.488 172.147Z" fill="url(#paint33_linear_6934_3782)"/>
<g style="mix-blend-mode:multiply">
<path d="M123.538 160.272C126.162 160.372 125.138 164.743 125.138 164.743C125.138 164.743 127.213 161.332 125.691 159.046L123.538 160.272Z" fill="#CD86EF"/>
</g>
<g style="mix-blend-mode:multiply">
<path d="M155.487 160.272C152.864 160.372 153.888 164.743 153.888 164.743C153.888 164.743 151.812 161.332 153.334 159.046L155.487 160.272Z" fill="#CD86EF"/>
</g>
<path opacity="0.7" d="M144.195 164.743C143.221 166.013 143.969 166.789 144.195 167.205C144.422 167.621 147.184 167.621 147.417 167.205C147.649 166.789 147.644 164.776 147.417 164.743C147.19 164.709 144.594 164.227 144.195 164.743Z" fill="#FFCDBD"/>
<g style="mix-blend-mode:multiply">
<path d="M118.877 171.143C118.877 171.143 118.839 170.139 120.953 169.912C123.068 169.685 126.66 168.52 130.568 169.562C133.604 170.442 136.765 170.817 139.922 170.672C142.352 170.511 148.275 168.73 151.546 169.152C154.817 169.574 156.412 169.912 157.735 169.912C159.057 169.912 160.297 170.428 160.176 171.143C160.054 171.859 150.799 180.617 139.524 180.617C128.249 180.617 118.877 171.143 118.877 171.143Z" fill="#EA88BE"/>
</g>
<path style="mix-blend-mode:multiply" opacity="0.6" d="M118.7 164.532C118.7 164.532 113.232 170.827 112.684 179.092L118.7 164.532Z" fill="url(#paint34_linear_6934_3782)"/>
<path style="mix-blend-mode:multiply" opacity="0.6" d="M160.552 164.532C160.552 164.532 166.015 170.827 166.569 179.092L160.552 164.532Z" fill="url(#paint35_linear_6934_3782)"/>
<path d="M102.776 143.937C103.495 144.126 101.27 145.496 99.2167 145.734C97.379 145.945 96.1281 145.318 96.1834 145.058C96.2388 144.797 99.9307 143.188 102.776 143.937Z" fill="white"/>
<path d="M104.304 143.677C104.829 143.083 105.765 143.022 105.964 143.366C106.163 143.71 105.599 144.608 105.151 144.664C104.702 144.719 104.005 144.009 104.304 143.677Z" fill="white"/>
<path d="M175.397 143.937C174.678 144.126 176.903 145.496 178.957 145.734C180.794 145.945 182.045 145.318 181.99 145.058C181.935 144.797 178.243 143.188 175.397 143.937Z" fill="white"/>
<path d="M173.875 143.677C173.322 143.083 172.409 143.022 172.215 143.366C172.021 143.71 172.58 144.608 173.023 144.664C173.466 144.719 174.169 144.009 173.875 143.677Z" fill="white"/>
<path d="M173.692 171.902L156.739 189.304L147.66 183.665L154.666 191.735L139.272 212.288L157.125 193.831L166.035 199.326L159.197 191.399L173.692 171.902Z" fill="url(#paint36_radial_6934_3782)"/>
<g filter="url(#filter0_f_6934_3782)">
<circle cx="183.158" cy="221.818" r="12.0776" transform="rotate(-15.6413 183.158 221.818)" stroke="white"/>
</g>
<defs>
<filter id="filter0_f_6934_3782" x="162.577" y="201.238" width="41.1616" height="41.1616" filterUnits="userSpaceOnUse" color-interpolation-filters="sRGB">
<feFlood flood-opacity="0" result="BackgroundImageFix"/>
<feBlend mode="normal" in="SourceGraphic" in2="BackgroundImageFix" result="shape"/>
<feGaussianBlur stdDeviation="4" result="effect1_foregroundBlur_6934_3782"/>
</filter>
<linearGradient id="paint0_linear_6934_3782" x1="140" y1="279.973" x2="140" y2="210.962" gradientUnits="userSpaceOnUse">
<stop stop-color="#BE6249"/>
<stop offset="0.47" stop-color="#B55A3F"/>
<stop offset="1" stop-color="#B2573B"/>
</linearGradient>
<linearGradient id="paint1_linear_6934_3782" x1="140" y1="279.973" x2="140" y2="252.911" gradientUnits="userSpaceOnUse">
<stop offset="0.01" stop-color="#F48484"/>
<stop offset="1" stop-color="#EA2727"/>
</linearGradient>
<linearGradient id="paint2_linear_6934_3782" x1="160.652" y1="263.849" x2="160.652" y2="220.042" gradientUnits="userSpaceOnUse">
<stop stop-color="#FFE9DA"/>
<stop offset="0.99" stop-color="#B495B8"/>
</linearGradient>
<linearGradient id="paint3_linear_6934_3782" x1="177.08" y1="274.632" x2="177.08" y2="257.937" gradientUnits="userSpaceOnUse">
<stop stop-color="#FFE9DA"/>
<stop offset="0.99" stop-color="#B44CF3"/>
</linearGradient>
<linearGradient id="paint4_linear_6934_3782" x1="96.5542" y1="274.632" x2="96.5542" y2="256.822" gradientUnits="userSpaceOnUse">
<stop stop-color="#FFE9DA"/>
<stop offset="0.99" stop-color="#B44CF3"/>
</linearGradient>
<linearGradient id="paint5_linear_6934_3782" x1="76.0075" y1="183.096" x2="62.8943" y2="135.748" gradientUnits="userSpaceOnUse">
<stop stop-color="#BA5F40"/>
<stop offset="0.57" stop-color="#AD4531"/>
<stop offset="1" stop-color="#A63629"/>
</linearGradient>
<linearGradient id="paint6_linear_6934_3782" x1="67.4336" y1="169.945" x2="67.4336" y2="144.464" gradientUnits="userSpaceOnUse">
<stop stop-color="#FFE9DA"/>
<stop offset="0.99" stop-color="#B44CF3"/>
</linearGradient>
<linearGradient id="paint7_linear_6934_3782" x1="72.4927" y1="169.296" x2="72.4927" y2="149.545" gradientUnits="userSpaceOnUse">
<stop stop-color="#FFE9DA"/>
<stop offset="0.99" stop-color="#B44CF3"/>
</linearGradient>
<linearGradient id="paint8_linear_6934_3782" x1="190.486" y1="187.426" x2="229.546" y2="123.425" gradientUnits="userSpaceOnUse">
<stop stop-color="#BA5F40"/>
<stop offset="0.57" stop-color="#AD4531"/>
<stop offset="1" stop-color="#A63629"/>
</linearGradient>
<linearGradient id="paint9_linear_6934_3782" x1="211.296" y1="169.724" x2="209.938" y2="144.279" gradientUnits="userSpaceOnUse">
<stop stop-color="#FFE9DA"/>
<stop offset="0.99" stop-color="#B44CF3"/>
</linearGradient>
<linearGradient id="paint10_linear_6934_3782" x1="206.21" y1="169.345" x2="205.157" y2="149.622" gradientUnits="userSpaceOnUse">
<stop stop-color="#FFE9DA"/>
<stop offset="0.99" stop-color="#B44CF3"/>
</linearGradient>
<linearGradient id="paint11_linear_6934_3782" x1="139.086" y1="235.268" x2="139.086" y2="54.426" gradientUnits="userSpaceOnUse">
<stop stop-color="#C26354"/>
<stop offset="0.1" stop-color="#C0624E"/>
<stop offset="0.39" stop-color="#BB6140"/>
<stop offset="0.45" stop-color="#BA5D40"/>
<stop offset="0.71" stop-color="#B54F41"/>
<stop offset="0.82" stop-color="#BE5841"/>
<stop offset="1" stop-color="#C86140"/>
</linearGradient>
<linearGradient id="paint12_linear_6934_3782" x1="176.587" y1="223.115" x2="176.587" y2="84.888" gradientUnits="userSpaceOnUse">
<stop stop-color="white"/>
<stop offset="0.99" stop-color="#A76774"/>
</linearGradient>
<linearGradient id="paint13_linear_6934_3782" x1="102.04" y1="223.481" x2="102.04" y2="85.2597" gradientUnits="userSpaceOnUse">
<stop stop-color="white"/>
<stop offset="0.99" stop-color="#A76774"/>
</linearGradient>
<linearGradient id="paint14_linear_6934_3782" x1="175.635" y1="116.714" x2="174.872" y2="131.951" gradientUnits="userSpaceOnUse">
<stop stop-color="#6A1424"/>
<stop offset="1" stop-color="#2E002C"/>
</linearGradient>
<linearGradient id="paint15_linear_6934_3782" x1="103.043" y1="114.942" x2="103.958" y2="130.173" gradientUnits="userSpaceOnUse">
<stop stop-color="#6A1424"/>
<stop offset="1" stop-color="#2E002C"/>
</linearGradient>
<linearGradient id="paint16_linear_6934_3782" x1="139.74" y1="21.7286" x2="139.74" y2="155.824" gradientUnits="userSpaceOnUse">
<stop stop-color="#39002E"/>
<stop offset="0.56" stop-color="#9A333B"/>
</linearGradient>
<linearGradient id="paint17_linear_6934_3782" x1="139.624" y1="131.457" x2="139.624" y2="8.45558" gradientUnits="userSpaceOnUse">
<stop stop-color="#850E3B"/>
<stop offset="0.38" stop-color="#6B0937"/>
<stop offset="1" stop-color="#39002E"/>
</linearGradient>
<linearGradient id="paint18_linear_6934_3782" x1="139.751" y1="163.766" x2="139.751" y2="219.826" gradientUnits="userSpaceOnUse">
<stop offset="0.23" stop-color="#9E4D63"/>
<stop offset="0.49" stop-color="#82375D"/>
<stop offset="0.81" stop-color="#662156"/>
<stop offset="0.99" stop-color="#5C1954"/>
</linearGradient>
<linearGradient id="paint19_linear_6934_3782" x1="139.087" y1="116.714" x2="139.087" y2="248.13" gradientUnits="userSpaceOnUse">
<stop stop-color="#C0CDFF"/>
<stop offset="0.02" stop-color="#BEC9FE"/>
<stop offset="0.25" stop-color="#AC99F8"/>
<stop offset="0.47" stop-color="#9E73F3"/>
<stop offset="0.68" stop-color="#9358F0"/>
<stop offset="0.86" stop-color="#8D48EE"/>
<stop offset="0.99" stop-color="#8B42ED"/>
</linearGradient>
<linearGradient id="paint20_linear_6934_3782" x1="101.071" y1="222.438" x2="245.706" y2="222.438" gradientUnits="userSpaceOnUse">
<stop stop-color="#850E3B"/>
<stop offset="1" stop-color="#39002E"/>
</linearGradient>
<linearGradient id="paint21_linear_6934_3782" x1="192.359" y1="150.299" x2="172.273" y2="153.428" gradientUnits="userSpaceOnUse">
<stop stop-color="white"/>
<stop offset="0.99" stop-color="#A76774" stop-opacity="0.5"/>
</linearGradient>
<linearGradient id="paint22_linear_6934_3782" x1="170.547" y1="152.502" x2="174.573" y2="135.993" gradientUnits="userSpaceOnUse">
<stop stop-color="#ECE0FF"/>
<stop offset="1" stop-color="#BBC7F9"/>
</linearGradient>
<linearGradient id="paint23_linear_6934_3782" x1="172.058" y1="161.924" x2="152.429" y2="157.078" gradientUnits="userSpaceOnUse">
<stop stop-color="#604300"/>
<stop offset="1" stop-color="#471400"/>
</linearGradient>
<linearGradient id="paint24_linear_6934_3782" x1="169.389" y1="148.637" x2="172.811" y2="134.607" gradientUnits="userSpaceOnUse">
<stop stop-color="#621E18"/>
<stop offset="1" stop-color="#2E0010"/>
</linearGradient>
<linearGradient id="paint25_linear_6934_3782" x1="154.705" y1="142.391" x2="156.797" y2="133.819" gradientUnits="userSpaceOnUse">
<stop stop-color="#604300"/>
<stop offset="1" stop-color="#471400"/>
</linearGradient>
<linearGradient id="paint26_linear_6934_3782" x1="87.6222" y1="149.444" x2="107.654" y2="152.256" gradientUnits="userSpaceOnUse">
<stop stop-color="white"/>
<stop offset="0.99" stop-color="#A76774" stop-opacity="0.5"/>
</linearGradient>
<linearGradient id="paint27_linear_6934_3782" x1="106.738" y1="162.975" x2="102.655" y2="146.51" gradientUnits="userSpaceOnUse">
<stop stop-color="#ECE0FF"/>
<stop offset="1" stop-color="#BBC7F9"/>
</linearGradient>
<linearGradient id="paint28_linear_6934_3782" x1="97.8128" y1="144.701" x2="117.419" y2="139.815" gradientUnits="userSpaceOnUse">
<stop stop-color="#604300"/>
<stop offset="1" stop-color="#471400"/>
</linearGradient>
<linearGradient id="paint29_linear_6934_3782" x1="109.212" y1="148.675" x2="105.709" y2="134.677" gradientUnits="userSpaceOnUse">
<stop stop-color="#621E18"/>
<stop offset="1" stop-color="#2E0010"/>
</linearGradient>
<linearGradient id="paint30_linear_6934_3782" x1="108.597" y1="146.193" x2="106.45" y2="137.612" gradientUnits="userSpaceOnUse">
<stop stop-color="#604300"/>
<stop offset="1" stop-color="#471400"/>
</linearGradient>
<linearGradient id="paint31_linear_6934_3782" x1="139.596" y1="153.261" x2="139.596" y2="176.218" gradientUnits="userSpaceOnUse">
<stop stop-color="#BC6340"/>
<stop offset="0.18" stop-color="#C16843"/>
<stop offset="0.4" stop-color="#D0784C"/>
<stop offset="0.47" stop-color="#D67E50"/>
<stop offset="0.63" stop-color="#D1784E"/>
<stop offset="0.85" stop-color="#C46747"/>
<stop offset="1" stop-color="#B85740"/>
</linearGradient>
<linearGradient id="paint32_linear_6934_3782" x1="123.538" y1="172.347" x2="129.261" y2="172.347" gradientUnits="userSpaceOnUse">
<stop stop-color="#721E24"/>
<stop offset="1" stop-color="#510036"/>
</linearGradient>
<linearGradient id="paint33_linear_6934_3782" x1="149.764" y1="172.347" x2="155.488" y2="172.347" gradientUnits="userSpaceOnUse">
<stop stop-color="#721E24"/>
<stop offset="1" stop-color="#510036"/>
</linearGradient>
<linearGradient id="paint34_linear_6934_3782" x1="115.689" y1="179.086" x2="115.689" y2="164.526" gradientUnits="userSpaceOnUse">
<stop stop-color="#FFEADB"/>
<stop offset="0.99" stop-color="#D177F4"/>
</linearGradient>
<linearGradient id="paint35_linear_6934_3782" x1="163.558" y1="179.086" x2="163.558" y2="164.526" gradientUnits="userSpaceOnUse">
<stop stop-color="#FFEADB"/>
<stop offset="0.99" stop-color="#D177F4"/>
</linearGradient>
<radialGradient id="paint36_radial_6934_3782" cx="0" cy="0" r="1" gradientUnits="userSpaceOnUse" gradientTransform="translate(157.181 190.756) rotate(134.556) scale(38.7407 17.6261)">
<stop stop-color="white"/>
<stop offset="1" stop-color="white" stop-opacity="0"/>
</radialGradient>
</defs>
</svg>
