<svg width="181" height="76" viewBox="0 0 181 76" fill="none" xmlns="http://www.w3.org/2000/svg">
<path d="M91.3445 8.67751C90.5563 9.08871 90.2185 9.71259 90.2185 10.7902C90.2185 12.2081 91.1052 13.0447 92.6112 13.0447C94.1172 13.0447 95.0039 12.2081 95.0039 10.7902C95.0039 9.28722 94.3002 8.53572 92.7801 8.40811C92.1327 8.35139 91.8652 8.40811 91.3445 8.67751Z" fill="black"/>
<path d="M25.9215 27.0173C21.7971 27.3023 18.7398 28.7082 17.0093 31.1212L16.5478 31.7577L16.4324 30.4277C16.3748 29.6962 16.2738 28.7747 16.2161 28.3853L16.1152 27.6728L14.5577 27.6443L13.0002 27.6158L13.0723 27.9293C13.3463 28.9837 13.4473 32.3087 13.4473 40.1365V48.9998H15.0192H16.6055L16.6632 42.3214C16.7209 35.8426 16.7209 35.6241 17.0381 34.7026C17.4708 33.4391 18.062 32.4987 19.0138 31.5487C19.9945 30.5797 20.9751 30.0097 22.4605 29.5157C23.917 29.0407 25.2149 28.8602 27.2339 28.8602H28.8346L28.95 27.9958C28.9932 27.5208 29.0221 27.1123 28.9788 27.0933C28.8779 27.0268 26.5849 26.9698 25.9215 27.0173Z" fill="black"/>
<path d="M40.1127 21.8497C38.4519 22.0057 36.9319 22.3318 35.4963 22.8423C34.1592 23.3244 32.0761 24.3453 31.5413 24.7706L31.2176 25.04L31.7243 26.0609C32.0058 26.6281 32.2732 27.0818 32.3013 27.0818C32.3435 27.0818 32.991 26.7699 33.751 26.3871C36.6504 24.9266 38.9446 24.3594 42.0128 24.3453C44.2366 24.3311 45.3907 24.5154 46.7701 25.0968C49.8383 26.3871 51.2317 29.0669 51.2317 33.6893V35.3057L49.3739 35.2206C47.1923 35.1214 42.5195 35.3483 40.2535 35.6602C36.1296 36.2415 33.4695 37.3191 31.6539 39.1341C29.8101 40.9774 29.219 42.6505 29.2049 46.0818C29.2049 47.996 29.2471 48.4214 29.5286 49.343C30.6264 52.8736 33.1036 54.8587 37.143 55.4542C38.9446 55.7094 41.9565 55.5535 43.6877 55.0997C46.8404 54.2774 49.6413 52.2923 51.0065 49.8818C51.1614 49.5841 51.3443 49.343 51.3865 49.343C51.4288 49.343 51.5132 50.0945 51.5695 51.002C51.6258 51.9236 51.6962 53.1005 51.7525 53.6251L51.8369 54.5893H53.2866C54.3704 54.5893 54.7504 54.5468 54.7504 54.405C54.7504 54.3199 54.68 53.4975 54.5956 52.6042C54.5111 51.7109 54.3985 46.3796 54.3422 40.7647C54.2437 30.9244 54.2296 30.5132 53.9341 29.4214C53.1177 26.4012 51.4569 24.2602 48.9798 23.0691C46.5308 21.9065 43.6736 21.5094 40.1127 21.8497ZM51.2036 40.7647C51.2458 44.4654 51.1191 45.302 50.1339 47.2587C49.6131 48.308 49.2613 48.79 48.3605 49.6975C46.0382 51.9945 43.6596 52.9303 40.0424 52.9303C36.58 52.9303 34.3844 51.8953 33.1739 49.655C32.4139 48.2512 32.1746 45.8691 32.5687 43.9408C33.5399 39.3326 37.8608 37.5744 47.9946 37.6311L51.1614 37.6453L51.2036 40.7647Z" fill="black"/>
<path d="M117.763 21.8498C115.581 22.0767 113.442 22.8707 111.837 24.0192C110.683 24.8558 109.219 26.4297 108.558 27.564C108.262 28.0744 107.981 28.4998 107.939 28.4998C107.896 28.4998 107.812 27.6207 107.77 26.5431C107.713 25.4797 107.629 24.1752 107.587 23.6364L107.488 22.6864H105.968H104.448L104.504 23.0692C104.772 24.5722 104.856 29.1237 104.856 41.0058V54.5894H106.475H108.079L108.122 43.9125L108.164 33.2498L108.628 31.9028C109.909 28.1879 112.428 25.7774 116.074 24.7849C117.537 24.3879 120.535 24.3595 121.887 24.714C125.264 25.6214 127.333 28.0319 128.136 31.9453C128.333 32.867 128.361 34.5401 128.361 43.8132V54.5894H129.979H131.612L131.556 43.1326C131.514 31.9028 131.514 31.6617 131.204 30.5274C130.064 26.1744 127.474 23.2677 123.857 22.2752C121.943 21.7505 119.986 21.6088 117.763 21.8498Z" fill="black"/>
<path d="M149.332 21.9917C145.884 22.417 143.013 23.8491 141.324 26.0043C139.494 28.3155 138.748 31.2364 139.058 34.767C139.353 37.8723 140.367 39.9849 142.436 41.729C143.224 42.3954 144.561 43.1611 145.363 43.4021C145.687 43.5014 145.954 43.6148 145.954 43.6715C145.954 43.7282 145.687 43.8558 145.363 43.9551C144.42 44.2245 143.182 44.9051 142.562 45.4723C141.647 46.2946 141.281 47.0745 141.197 48.2939C141.141 49.2155 141.169 49.4282 141.507 50.1088C141.957 51.0305 142.745 51.7678 143.857 52.2924L144.645 52.6611L143.224 53.3842C139.128 55.4543 137.439 57.6805 137.27 61.282C137.172 63.1111 137.355 64.2028 137.988 65.5782C138.762 67.2655 139.987 68.4849 141.873 69.4633C143.97 70.5551 146.137 71.023 149.783 71.1364C157.186 71.3775 162.773 69.4917 165.518 65.8193C167.587 63.0543 167.897 58.7723 166.222 56.1491C165.265 54.632 163.294 53.2991 160.944 52.5618C158.72 51.8529 154.385 51.3282 150.88 51.3282C147.685 51.3282 145.828 50.8887 144.772 49.9103C144.251 49.414 144.209 49.3148 144.167 48.4782C144.096 47.3864 144.35 46.9043 145.293 46.2379C146.757 45.2312 148.417 44.8342 152.077 44.664C155.286 44.5081 156.89 44.1536 158.903 43.1611C160.029 42.6081 160.437 42.2961 161.436 41.2752C162.337 40.3536 162.759 39.7864 163.153 38.9924C164.04 37.1491 164.181 36.4118 164.181 33.6043C164.181 31.4066 164.139 31.0096 163.857 30.0596C163.252 28.1312 162.168 26.4581 160.831 25.4372L160.001 24.8133H160.648C161.394 24.8133 165.982 25.0685 166.968 25.1536L167.629 25.2245V23.9626V22.6864H162.45C157.439 22.6864 157.228 22.6723 155.736 22.332C153.963 21.9208 151.063 21.7648 149.332 21.9917ZM154.892 24.7282C157.369 25.4088 159.353 26.9969 160.353 29.067C161.296 31.0237 161.535 33.8737 160.93 36.1991C160.17 39.2051 158.101 41.1902 155.004 41.9275C153.456 42.2961 149.543 42.282 148.136 41.9133C144.856 41.0626 142.942 39.1058 142.239 35.9155C141.957 34.6111 141.943 31.9879 142.224 30.7827C142.492 29.6767 143.266 28.1454 144.012 27.2946C145.152 25.9902 147.221 24.8984 149.262 24.5297C150.36 24.3312 153.906 24.4588 154.892 24.7282ZM152.288 53.9514C157.988 54.1924 161.732 55.3126 163.139 57.1984C164.322 58.7581 164.434 61.3528 163.435 63.5223C163.21 64.0185 162.717 64.6708 162.084 65.2946C159.86 67.5208 156.144 68.6267 150.923 68.6267C143.815 68.6267 140.324 66.3014 140.324 61.5655C140.324 59.6088 141.028 57.9782 142.464 56.6596C143.449 55.7237 144.406 55.1424 146.376 54.2775C147.559 53.7529 147.601 53.7387 148.98 53.8096C149.754 53.8521 151.246 53.9088 152.288 53.9514Z" fill="black"/>
<path d="M57.5232 22.9274C57.5795 23.0692 60.3522 30.2297 63.702 38.8506L69.7822 54.5185L71.6823 54.561C73.3853 54.5894 73.5824 54.5752 73.6809 54.3483C73.7372 54.2066 76.3973 47.1312 79.5923 38.6379C82.7872 30.1304 85.4473 23.0692 85.5036 22.9274C85.6021 22.7006 85.4614 22.6864 83.9132 22.6864H82.2242L82.0835 23.0692C81.8724 23.6648 71.9357 51.0872 71.8371 51.3282C71.7808 51.4842 71.7105 51.4558 71.5838 51.1864C71.4853 50.9879 69.0363 44.4939 66.1369 36.7663L60.873 22.6864H59.1559C57.5795 22.6864 57.4388 22.7006 57.5232 22.9274Z" fill="black"/>
<path d="M91.063 38.6379V54.5894H92.6112H94.1594V38.6379V22.6864H92.6112H91.063V38.6379Z" fill="black"/>
</svg>
