<svg width="280" height="281" viewBox="0 0 280 281" fill="none" xmlns="http://www.w3.org/2000/svg">
<rect width="280" height="280.862" rx="20" fill="#D3ECE1"/>
<path d="M97.3635 209.146C97.3635 209.146 96.2825 251.212 95.2772 255.111C94.2719 259.01 43.0771 280.848 43.0771 280.848H238.63C238.63 280.848 182.993 261.13 181.495 256.613C179.998 252.096 181.322 210.247 181.322 210.247L97.3635 209.146Z" fill="url(#paint0_linear_6934_3858)"/>
<path d="M95.4718 253.983C95.4718 253.983 91.3911 253.506 90.9425 253.983C90.4939 254.46 90.9425 257.692 90.9425 257.692L43.0771 280.864H238.63L186.992 258.804C186.992 258.804 185.214 253.923 181.495 256.635L182.771 258.473C182.771 258.473 165.448 277.085 136.57 277.085C107.692 277.085 95.4718 253.983 95.4718 253.983Z" fill="url(#paint1_linear_6934_3858)"/>
<g style="mix-blend-mode:multiply" opacity="0.6">
<path d="M97.0718 227.503C97.0718 227.503 106.714 230.214 109.049 234.401C111.384 238.587 126.371 270.002 138.197 270.501C150.023 271 157.687 254.292 163.687 250.436C169.686 246.581 180.55 246.309 180.55 246.309L181.339 210.263L97.3636 209.178L97.0718 227.503Z" fill="#B42F97"/>
</g>
<path style="mix-blend-mode:multiply" opacity="0.6" d="M154.439 225.165L150.596 264.72C150.596 264.72 157.941 256.467 161.686 250.447C165.432 244.428 172.431 215.29 172.431 215.29L154.439 225.165Z" fill="url(#paint2_linear_6934_3858)"/>
<path style="mix-blend-mode:multiply" opacity="0.6" d="M187.008 258.804C187.008 258.804 174.447 270.192 161.514 275.517C161.514 275.517 187.192 267.329 194.375 261.96L187.008 258.804Z" fill="url(#paint3_linear_6934_3858)"/>
<path style="mix-blend-mode:multiply" opacity="0.6" d="M90.9425 257.692C97.6393 264.209 104.851 270.17 112.508 275.517C112.508 275.517 96.2555 271.179 82.3271 261.862L90.9425 257.692Z" fill="url(#paint4_linear_6934_3858)"/>
<g style="mix-blend-mode:multiply" opacity="0.6">
<path d="M103.006 263.511C103.006 263.511 116.108 275.517 138.814 275.517C161.519 275.517 175.264 264.72 175.264 264.72C175.264 264.72 159.633 277.079 136.587 277.079C113.54 277.079 103.006 263.511 103.006 263.511Z" fill="#B42F97"/>
</g>
<path d="M195.18 144.813C195.18 144.813 203.358 132.303 208.914 132.341C212.292 132.341 220.443 139.472 220.351 146.267C220.227 155.361 212.206 165.692 210.206 170.99C208.206 176.288 203.028 183.197 199.585 183.87C196.143 184.542 191.656 177.996 191.656 177.996C191.656 177.996 193.332 153.056 195.18 144.813Z" fill="url(#paint5_linear_6934_3858)"/>
<path style="mix-blend-mode:multiply" opacity="0.6" d="M195.781 158.121C195.781 158.121 209.217 141.473 214.103 141.473C218.989 141.473 218.967 150.941 217.022 156.348C215.654 160.09 212.99 165.497 212.99 165.497C212.99 165.497 215.103 159.689 215.351 155.345C215.741 148.658 214.271 143.799 212.579 143.81C209.487 143.81 207.05 148.073 206.66 149.58C206.271 151.088 209.109 157.682 208.358 162.281C207.606 166.879 204.861 168.631 203.942 168.132C203.023 167.633 204.444 162.449 203.612 160.61C202.78 158.772 200.369 156.099 198.948 156.679C197.526 157.259 195.781 158.121 195.781 158.121Z" fill="url(#paint6_linear_6934_3858)"/>
<path style="mix-blend-mode:multiply" opacity="0.6" d="M195.781 158.121C195.781 158.121 199.094 156.136 200.104 156.771C201.115 157.405 203.666 159.71 203.774 161.163C203.882 162.617 202.964 166.749 203.774 167.459C204.585 168.17 207.504 163.528 207.633 159.412C207.763 155.296 205.471 150.551 205.471 149.998C205.471 149.444 206.012 146.803 206.012 146.803C206.012 146.803 198.196 154.217 195.781 158.121Z" fill="url(#paint7_linear_6934_3858)"/>
<path d="M85.7215 144.813C85.7215 144.813 77.5439 132.303 71.9877 132.341C68.6097 132.341 60.4592 139.472 60.5511 146.267C60.6754 155.361 68.6962 165.692 70.696 170.99C72.6958 176.288 77.8736 183.197 81.3165 183.87C84.7594 184.542 89.2454 177.996 89.2454 177.996C89.2454 177.996 87.5699 153.056 85.7215 144.813Z" fill="url(#paint8_linear_6934_3858)"/>
<path style="mix-blend-mode:multiply" opacity="0.6" d="M85.1321 158.121C85.1321 158.121 71.6956 141.473 66.8096 141.473C61.9237 141.473 61.9453 150.941 63.891 156.348C65.2584 160.09 67.923 165.497 67.923 165.497C67.923 165.497 65.8097 159.689 65.5611 155.345C65.172 148.658 66.6421 143.799 68.3338 143.81C71.4254 143.81 73.863 148.073 74.2521 149.58C74.6413 151.088 71.8037 157.682 72.555 162.281C73.3063 166.879 76.0519 168.631 76.9708 168.132C77.8896 167.633 76.4681 162.449 77.3005 160.61C78.1328 158.772 80.5434 156.099 81.9648 156.679C83.3863 157.259 85.1321 158.121 85.1321 158.121Z" fill="url(#paint9_linear_6934_3858)"/>
<path style="mix-blend-mode:multiply" opacity="0.6" d="M85.1326 158.121C85.1326 158.121 81.8194 156.136 80.8087 156.771C79.798 157.405 77.2469 159.71 77.1388 161.163C77.0307 162.617 77.9495 166.749 77.1388 167.459C76.3281 168.17 73.4094 163.528 73.2797 159.412C73.15 155.296 75.4417 150.551 75.4417 149.998C75.4417 149.444 74.9012 146.803 74.9012 146.803C74.9012 146.803 82.7058 154.217 85.1326 158.121Z" fill="url(#paint10_linear_6934_3858)"/>
<path d="M194.575 117.856C194.548 128.946 197.348 140.724 197.542 146.804C197.84 156.169 194.191 163.821 193.759 173.577C193.327 183.333 192.138 191.142 190.873 194.878C190.069 197.218 189.001 199.458 187.689 201.554C187.614 201.673 187.544 201.803 187.457 201.922C186.442 203.514 185.325 205.038 184.111 206.483C182.292 208.634 180.315 210.646 178.199 212.503C166.881 222.459 152.709 228.061 151.688 228.457C147.029 230.29 133.976 230.198 129.317 228.365C127.831 227.779 113.913 223.484 102.622 214.303C99.5136 211.834 96.7247 208.985 94.3206 205.822C93.0256 204.086 91.8964 202.233 90.9479 200.285C90.1061 198.56 89.431 196.759 88.9319 194.905C87.905 191.109 83.7108 155.155 82.8244 145.827C82.8677 140.28 82.8623 132.01 82.765 121.798C82.6407 109.591 82.138 96.5871 83.7108 92.5415C86.6024 85.1284 120.799 65.1936 139.921 65.1936C153.331 65.1936 174.188 75.0146 186.403 83.4364C191.603 87.0156 195.24 90.3398 196.105 92.5415C197.445 95.9743 197.921 105.638 197.953 115.958C197.926 116.896 194.575 116.874 194.575 117.856Z" fill="url(#paint11_linear_6934_3858)"/>
<path style="mix-blend-mode:multiply" opacity="0.6" d="M193.705 119.949C193.678 130.795 197.975 142.286 197.542 146.804C196.645 155.947 196.18 164.157 194.688 174.683C193.745 181.497 192.154 188.205 189.938 194.715C189.14 197.014 188.079 199.213 186.776 201.266C186.7 201.38 186.63 201.51 186.543 201.63C185.528 203.192 184.41 204.685 183.198 206.098C181.375 208.207 179.398 210.177 177.285 211.993C179.847 205.946 186.576 188.674 188.867 180.702C189.948 176.874 190.981 167.85 191.078 164.916C191.181 161.733 191.24 158.544 189.867 155.697C189.513 154.926 189.033 154.221 188.446 153.609C186.214 151.37 182.798 150.86 179.798 151.982C174.058 154.152 163.119 151.722 156.498 149.884C154.76 149.402 153.214 148.393 152.07 146.995C150.926 145.597 150.241 143.879 150.109 142.075C149.708 136.624 150.283 131.145 151.806 125.898L155.449 122.389L187.695 117.699C187.695 117.699 184.587 110.388 184.862 105.904C185.138 101.419 186.808 89.5697 185.435 86.4136C190.635 90.0958 194.272 93.5231 195.137 95.7899C196.364 99.0436 196.872 107.72 196.986 117.368C197.013 118.284 193.705 118.989 193.705 119.949Z" fill="url(#paint12_linear_6934_3858)"/>
<path style="mix-blend-mode:multiply" opacity="0.6" d="M87.2132 120.134C87.2403 131.153 81.857 136.467 82.8894 146.804C83.7812 156.077 84.7324 164.987 86.2242 175.648C87.1654 182.557 88.7561 189.36 90.975 195.968C91.7721 198.306 92.8349 200.544 94.1423 202.638C94.2179 202.758 94.2936 202.888 94.3747 203.007C95.3909 204.591 96.5084 206.107 97.7203 207.546C99.5425 209.678 101.519 211.671 103.633 213.511C101.071 207.378 94.3422 189.835 92.0506 181.771C90.9696 177.888 89.9373 168.756 89.8454 165.762C89.7373 162.509 89.6779 159.293 91.0507 156.386C91.4022 155.606 91.8828 154.891 92.4722 154.271C93.6003 153.186 95.0189 152.455 96.5547 152.166C98.0904 151.877 99.6768 152.043 101.12 152.644C106.86 154.813 117.805 152.378 124.42 150.513C126.168 150.011 127.718 148.981 128.861 147.564C130.005 146.146 130.685 144.409 130.809 142.59C131.21 137.064 130.636 131.511 129.112 126.186L125.474 122.623L93.2234 117.861C93.2234 117.861 96.3312 110.448 96.0556 105.898C95.7799 101.348 94.1098 89.3312 95.4827 86.1262C90.2832 89.8626 86.6457 93.3442 85.7539 95.6435C84.5324 98.9027 84.0514 107.737 83.9109 117.498C83.9055 118.442 87.2132 119.157 87.2132 120.134Z" fill="url(#paint13_linear_6934_3858)"/>
<g style="mix-blend-mode:multiply" opacity="0.6">
<path d="M188.484 201.554C188.3 201.754 188.117 201.971 187.944 202.193C186.747 203.653 185.629 205.176 184.593 206.754C173.097 220.469 153.374 228.267 152.164 228.739C147.505 230.572 134.452 230.474 129.793 228.647C127.901 227.904 105.957 221.136 94.8072 206.082C93.683 204.108 92.575 202.231 91.4292 200.545C91.8454 200.962 97.6124 206.83 104.287 212.394C111.216 218.159 122.885 227.513 140.549 227.513C158.212 227.513 171.27 216.022 174.015 213.999C176.502 212.204 186.268 203.495 188.176 201.819L188.484 201.554Z" fill="#CB4397"/>
</g>
<path d="M153.639 131.945C156.67 132.488 159.752 132.687 162.827 132.536C164.356 132.461 165.873 132.232 167.357 131.852C173.459 130.226 174.777 129.076 179.723 129.065C184.668 129.054 192.694 130.952 192.694 130.952C191.885 128.872 190.838 126.892 189.576 125.052C189.039 124.275 188.38 123.59 187.625 123.024L188.106 124.434C188.014 124.222 186.917 122.232 177.837 121.603C168.248 120.936 156.39 123.382 156.39 123.382L154.855 128.474C154.296 127.525 154.015 126.436 154.044 125.334C154.044 125.334 151.877 128.04 153.639 131.945Z" fill="url(#paint14_linear_6934_3858)"/>
<g style="mix-blend-mode:multiply" opacity="0.6">
<path d="M162.843 132.536C164.372 132.461 165.889 132.232 167.373 131.852C173.475 130.226 174.793 129.076 179.739 129.065C184.684 129.054 192.71 130.952 192.71 130.952C191.901 128.872 190.854 126.892 189.592 125.052C186.506 124.51 182.025 124.157 177.647 125.741C177.647 125.741 178.096 124.542 180.793 123.431C180.793 123.431 172.821 122.091 162.859 132.536C162.849 132.536 162.843 132.541 162.843 132.536Z" fill="#B42F97"/>
</g>
<path d="M127.042 132.368C123.99 132.823 120.897 132.93 117.821 132.688C116.295 132.56 114.786 132.284 113.313 131.863C107.265 130.063 105.984 128.865 101.039 128.702C96.0933 128.539 88.0293 130.188 88.0293 130.188C88.8992 128.134 90.0037 126.189 91.3209 124.391C91.8835 123.63 92.5642 122.966 93.3369 122.422L92.7964 123.816C92.8937 123.604 94.0557 121.647 103.141 121.3C112.746 120.925 124.523 123.729 124.523 123.729L125.907 128.865C126.497 127.934 126.812 126.855 126.815 125.752C126.815 125.752 128.912 128.523 127.042 132.368Z" fill="url(#paint15_linear_6934_3858)"/>
<g style="mix-blend-mode:multiply" opacity="0.6">
<path d="M117.821 132.682C116.295 132.555 114.786 132.279 113.313 131.858C107.265 130.058 105.984 128.859 101.039 128.696C96.0933 128.534 88.0293 130.182 88.0293 130.182C88.8992 128.129 90.0037 126.183 91.3209 124.385C94.4232 123.913 98.9255 123.718 103.244 125.432C103.244 125.432 102.828 124.222 100.163 123.029C100.163 123.029 108.179 121.945 117.821 132.677V132.682Z" fill="#B42F97"/>
</g>
<path d="M156.817 144.613C156.444 145.936 167.297 148.642 174.15 149.358C181.004 150.074 185.23 145.643 185.695 144.298C186.16 142.953 185.219 138.582 175.82 137.248C166.421 135.914 157.671 141.608 156.817 144.613Z" fill="url(#paint16_linear_6934_3858)"/>
<path d="M177.988 143.962C176.82 147.877 172.875 150.068 169.167 148.843C165.459 147.617 163.405 143.469 164.567 139.553C165.73 135.638 169.68 133.447 173.388 134.672C177.096 135.898 179.177 140.041 177.988 143.962Z" fill="url(#paint17_linear_6934_3858)"/>
<path d="M177.593 143.832C176.512 147.519 172.783 149.586 169.291 148.441C165.8 147.297 163.887 143.382 164.968 139.694C166.049 136.006 169.778 133.94 173.269 135.085C176.761 136.229 178.691 140.144 177.593 143.832Z" fill="#562929"/>
<path style="mix-blend-mode:multiply" d="M175.393 143.105C175.244 143.664 174.984 144.186 174.628 144.641C174.273 145.096 173.83 145.474 173.325 145.753C172.82 146.033 172.265 146.206 171.691 146.265C171.118 146.323 170.539 146.265 169.989 146.093C168.88 145.696 167.968 144.883 167.444 143.826C166.919 142.768 166.824 141.547 167.178 140.421C167.328 139.862 167.588 139.34 167.943 138.885C168.298 138.429 168.742 138.051 169.246 137.771C169.751 137.492 170.306 137.317 170.88 137.258C171.453 137.199 172.032 137.257 172.583 137.427C173.692 137.826 174.604 138.639 175.128 139.698C175.652 140.757 175.747 141.978 175.393 143.105Z" fill="url(#paint18_linear_6934_3858)"/>
<path d="M156.239 145.106C156.239 145.106 162.541 133.224 174.513 133.767C182.474 134.114 186.528 142.839 186.528 142.839C182.728 139.794 178.049 138.061 173.188 137.899C165.168 137.666 156.239 145.106 156.239 145.106Z" fill="#BF6666"/>
<path d="M158.228 143.251L159.233 146.136C159.233 146.136 156.493 145.209 156.26 145.052C156.028 144.895 158.228 143.251 158.228 143.251Z" fill="#A04E45"/>
<path d="M162.859 147.243C162.859 147.243 171.891 150.334 177.588 149.672C183.738 148.962 185.695 144.303 185.695 144.303C185.695 144.303 183.203 148.87 176.815 149.184C171.226 149.461 162.859 147.243 162.859 147.243Z" fill="#965953"/>
<path d="M176.431 143.718C175.723 143.881 177.863 145.28 179.858 145.567C181.647 145.822 182.884 145.242 182.836 144.981C182.787 144.721 179.231 143.062 176.431 143.718Z" fill="white"/>
<path d="M174.95 143.425C174.447 142.834 173.539 142.747 173.329 143.078C173.118 143.409 173.653 144.304 174.085 144.369C174.518 144.434 175.231 143.756 174.95 143.425Z" fill="white"/>
<g style="mix-blend-mode:multiply" opacity="0.6">
<path d="M156.812 144.493C156.812 144.493 171.664 135.155 185.695 144.304C185.695 144.304 184.738 138.539 175.339 137.058C165.94 135.578 156.812 144.493 156.812 144.493Z" fill="#B42F97"/>
</g>
<path d="M156.239 145.106C156.239 145.106 164.027 137.715 172.875 138.94C181.723 140.166 185.695 144.304 185.695 144.304L186.776 143.105C186.776 143.105 180.047 137.34 172.032 137.503C162.422 137.698 156.239 145.106 156.239 145.106Z" fill="#270039"/>
<path d="M163.503 147.449C163.503 147.449 170.481 151.386 178.366 150.784C184.166 150.339 184.998 145.421 184.998 145.421C184.998 145.421 181.371 153.175 163.503 147.449Z" fill="#AD6B62"/>
<path d="M123.118 144.363C123.512 145.676 112.697 148.544 105.86 149.363C99.0228 150.182 94.726 145.811 94.2395 144.483C93.7531 143.154 94.6341 138.761 104.011 137.292C113.389 135.822 122.226 141.359 123.118 144.363Z" fill="url(#paint19_linear_6934_3858)"/>
<path d="M101.942 144.016C103.163 147.915 107.146 150.047 110.833 148.778C114.519 147.509 116.518 143.322 115.297 139.423C114.075 135.524 110.097 133.393 106.411 134.656C102.725 135.92 100.72 140.117 101.942 144.016Z" fill="url(#paint20_linear_6934_3858)"/>
<path d="M102.336 143.881C103.487 147.552 107.233 149.558 110.703 148.365C114.173 147.172 116.059 143.23 114.908 139.558C113.756 135.887 109.995 133.875 106.536 135.074C103.076 136.272 101.185 140.209 102.336 143.881Z" fill="#562929"/>
<path style="mix-blend-mode:multiply" d="M104.541 143.121C104.699 143.673 104.965 144.187 105.324 144.634C105.683 145.081 106.127 145.451 106.631 145.722C107.135 145.994 107.688 146.161 108.257 146.214C108.826 146.268 109.401 146.206 109.946 146.034C111.045 145.615 111.94 144.787 112.444 143.721C112.947 142.656 113.021 141.436 112.648 140.318C112.492 139.765 112.227 139.25 111.868 138.803C111.51 138.355 111.065 137.985 110.561 137.713C110.057 137.441 109.503 137.274 108.933 137.221C108.363 137.168 107.789 137.231 107.243 137.406C106.145 137.824 105.25 138.652 104.746 139.718C104.242 140.783 104.169 142.003 104.541 143.121Z" fill="url(#paint21_linear_6934_3858)"/>
<path d="M123.707 144.846C123.707 144.846 117.934 133.458 105.271 133.75C97.32 134.325 93.3799 142.997 93.3799 142.997C97.1328 139.897 101.783 138.096 106.638 137.861C114.67 137.53 123.707 144.846 123.707 144.846Z" fill="#BF6666"/>
<path d="M121.453 142.726L120.729 145.914C120.729 145.914 123.458 144.949 123.685 144.781C123.912 144.613 121.453 142.726 121.453 142.726Z" fill="#A04E45"/>
<path d="M117.113 147.075C117.113 147.075 108.135 150.296 102.428 149.721C96.2661 149.103 94.2393 144.472 94.2393 144.472C94.2393 144.472 96.8012 149 103.19 149.222C108.784 149.412 117.113 147.075 117.113 147.075Z" fill="#965953"/>
<path d="M103.509 143.75C104.222 143.902 102.103 145.334 100.109 145.648C98.3255 145.925 97.0824 145.367 97.1256 145.106C97.1688 144.846 100.687 143.138 103.509 143.75Z" fill="white"/>
<path d="M104.974 143.436C105.465 142.834 106.373 142.736 106.595 143.067C106.817 143.398 106.287 144.293 105.855 144.369C105.422 144.444 104.698 143.767 104.974 143.436Z" fill="white"/>
<g style="mix-blend-mode:multiply" opacity="0.6">
<path d="M123.128 144.239C123.128 144.239 108.135 135.117 94.2393 144.472C94.2393 144.472 94.9473 138.805 104.325 137.183C113.702 135.562 123.128 144.239 123.128 144.239Z" fill="#B42F97"/>
</g>
<path d="M123.707 144.846C123.707 144.846 115.81 137.563 106.984 138.919C98.1579 140.274 94.2394 144.472 94.2394 144.472L93.126 143.29C93.126 143.29 99.774 137.422 107.789 137.471C117.399 137.525 123.707 144.846 123.707 144.846Z" fill="#270039"/>
<path d="M116.507 147.292C116.507 147.292 109.584 151.332 101.693 150.844C95.888 150.486 94.9854 145.578 94.9854 145.578C94.9854 145.578 98.6931 153.289 116.507 147.292Z" fill="#AD6B62"/>
<path d="M152.947 162.048C147.056 159.39 145.623 151.744 140.862 151.744C136.1 151.744 134.673 159.396 128.782 162.048C122.891 164.699 119.794 170.149 120.399 173.897C122.01 174.343 123.577 174.937 125.08 175.67C127.047 176.7 133.311 178.181 140.862 178.181C148.412 178.181 154.682 176.7 156.644 175.67C158.152 174.936 159.725 174.343 161.341 173.897C161.93 170.149 158.833 164.705 152.947 162.048Z" fill="url(#paint22_linear_6934_3858)"/>
<path d="M152.947 161.348C147.056 158.571 145.661 151.739 140.9 151.739C136.138 151.739 134.673 158.571 128.782 161.348C122.891 164.125 119.794 169.802 120.399 173.734C122.014 174.201 123.581 174.82 125.08 175.583C127.047 176.668 133.311 178.203 140.862 178.203C148.412 178.203 154.682 176.657 156.644 175.583C158.148 174.82 159.721 174.201 161.341 173.734C161.93 169.802 158.833 164.135 152.947 161.348Z" fill="url(#paint23_linear_6934_3858)"/>
<path style="mix-blend-mode:multiply" opacity="0.6" d="M156.963 164.027C156.963 164.027 155.53 163.403 154.509 163.864C153.487 164.325 152.855 173.051 152.855 173.051C152.855 173.051 151.374 163.68 152.855 161.256C154.419 161.848 155.825 162.797 156.963 164.027Z" fill="url(#paint24_linear_6934_3858)"/>
<path style="mix-blend-mode:multiply" opacity="0.6" d="M124.636 164.135C124.636 164.135 126.112 163.398 127.133 163.859C128.155 164.32 128.787 173.045 128.787 173.045C128.787 173.045 130.273 163.674 128.787 161.25C127.207 161.891 125.789 162.876 124.636 164.135Z" fill="url(#paint25_linear_6934_3858)"/>
<path d="M149.385 165.61C148.721 165.448 148.202 167.568 148.418 168.257C148.634 168.946 149.785 168.761 150.218 168.257C150.65 167.753 150.083 165.762 149.385 165.61Z" fill="#FFCCB8"/>
<path d="M151.774 177.004C151.774 177.004 155.06 174.195 156.341 173.75C157.622 173.305 160.162 174.119 160.162 174.119C159.188 174.384 158.247 174.759 157.357 175.236C156.006 175.968 153.325 177.15 151.774 177.004Z" fill="#862254"/>
<path d="M122.485 174.439C122.86 174.021 123.332 173.704 123.86 173.514C124.387 173.325 124.953 173.27 125.507 173.354C127.323 173.696 129.755 177.02 129.755 177.02C129.755 177.02 127.15 176.299 125.674 175.751C124.199 175.204 122.485 174.439 122.485 174.439Z" fill="#862254"/>
<path d="M202.19 96.69L207.114 99.7214C203.952 87.4764 187.289 81.9016 184.511 81.0556L184.111 80.9363C181.679 72.6067 175.269 63.5829 168.583 58.3389C168.432 58.2142 168.313 58.122 168.221 58.0406C168.16 57.9959 168.102 57.947 168.048 57.8942C166.252 56.5026 164.269 55.3742 162.157 54.5428C158.91 53.2721 155.402 52.8214 151.942 53.2305C146.597 50.8125 140.615 50.2016 134.895 51.4897C127.816 53.1099 121.041 55.8561 114.826 59.6241L112.783 60.8552C112.756 60.8552 112.746 60.8552 112.729 60.8552C110.027 62.5146 107.865 63.9896 106.119 64.9657H106.071C105.222 65.5024 104.288 65.8877 103.309 66.1046C99.1145 66.7499 95.8716 56.9669 95.8716 56.9669C92.0882 63.0623 96.7526 72.0807 96.7526 72.0807C96.7526 72.0807 87.877 73.6616 84.4308 83.5693C82.9823 90.0632 81.7054 106.475 77.3438 103.94C79.0138 98.9948 83.4621 88.021 83.7162 87.4462L83.0459 90.4916L82.4731 94.7693C79.3761 109.265 82.8189 141.614 82.8189 141.614C88.2237 123.854 89.6452 105.882 89.6452 105.882C94.0502 112.606 114.329 117.633 115.253 117.736C113.292 117.065 111.491 115.995 109.962 114.591C109.935 114.591 109.924 114.553 109.908 114.553C103.995 109.163 101.514 98.3332 105.508 92.8289C109.973 86.6521 118.183 80.9851 133.381 88.3278C135.339 89.2929 137.461 89.8815 139.635 90.0632H139.948C142.366 90.2254 144.793 89.9235 147.099 89.1738C165.789 83.1435 170.107 84.4504 172.804 85.6923C175.847 87.086 191.689 99.3744 191.283 104.461C190.44 115.177 197.283 143.544 197.283 143.544L201.228 114.933C205.071 120.898 204.336 125.236 204.336 125.236C205.79 120.185 206.186 114.885 205.498 109.673C204.325 101.674 202.309 96.972 202.19 96.69ZM153.774 54.1144C161.881 55.0526 163.227 61.6415 163.227 61.6415C160.581 58.5528 157.373 55.9982 153.774 54.1144Z" fill="url(#paint26_linear_6934_3858)"/>
<path style="mix-blend-mode:multiply" d="M168.221 58.0406L168.005 57.8833H168.048C168.102 57.9398 168.16 57.9924 168.221 58.0406Z" fill="url(#paint27_linear_6934_3858)"/>
<g style="mix-blend-mode:multiply" opacity="0.6">
<path d="M201.142 113.637L197.229 142.574C197.229 142.574 195.067 106.446 189.862 99.331C186.857 95.215 175.761 85.7736 172.713 84.3962C170.302 83.3116 161.362 85.1446 150.32 88.1923C138.867 93.1055 130.933 86.0827 124.917 85.3506C111.265 83.6966 109 85.5893 104.709 91.5165C100.72 97.0208 103.925 107.856 109.838 113.241C94.5097 101.82 101.293 82.791 101.293 82.791C92.6126 81.1316 86.1106 85.5025 84.0405 87.1294C101.677 71.4408 125.231 84.342 125.231 84.342L127.847 84.4233C127.847 84.4233 123.431 72.9429 115.27 70.1447C107.108 67.3464 96.6068 70.8497 96.6068 70.8497C96.6068 70.8497 107.957 63.1762 116.475 65.199C124.993 67.2217 132.349 84.1142 132.349 84.1142C134.046 84.8138 138.105 84.304 138.105 84.304C138.105 84.304 132.43 67.0048 123.869 63.7402C116.351 60.8823 108.195 63.0406 106.325 63.6046C112.132 61.6555 118.285 60.966 124.377 61.5818C134.619 62.6664 141.202 85.0687 141.202 85.0687H146.634C146.634 85.0687 146.834 67.1729 138.224 60.3075C129.96 53.7294 113.967 60.4701 112.713 60.8986L117.67 58.019L122.426 55.6763C123.026 55.4648 130.955 52.6014 140.754 59.7001C150.726 66.9343 150.407 83.4255 150.407 83.4255C154.493 83.5611 165.173 82.1294 165.173 82.1294C167.335 73.6316 163.551 61.5493 163.184 60.3996C166.87 68.3172 166.697 81.5492 167.897 82.0318C169.097 82.5144 177.555 80.7628 177.555 80.7628C178.198 66.251 166.848 57.5255 164.632 55.6763C171.318 60.9311 180.404 69.841 182.83 78.1761C182.83 78.1761 183.852 80.855 184.122 80.9364C184.122 80.9364 183.203 85.5296 188.387 87.6879C193.419 89.7758 201.564 95.0144 202.072 95.3506C193.083 91.24 182.376 89.3365 182.376 89.3365L190.413 98.2844C195.225 102.41 198.916 107.692 201.142 113.637Z" fill="#B42F97"/>
</g>
<g style="mix-blend-mode:multiply" opacity="0.6">
<path d="M93.3046 103.599C93.3046 103.599 96.1097 111.468 89.6455 105.882C89.9698 110.312 84.0353 130.719 82.8192 141.505C82.8192 141.505 79.8681 105.345 82.9651 90.8495L83.0462 90.4916L83.4083 89.0979C83.4083 100.296 91.8831 107.086 91.8831 107.086C87.8241 96.4352 94.8612 91.2237 95.2071 90.9851C91.0778 98.1108 93.3046 103.599 93.3046 103.599Z" fill="#B42F97"/>
</g>
<g style="mix-blend-mode:soft-light">
<path d="M137.181 59.0168C141.006 60.2709 144.943 61.15 148.937 61.6416C155.514 62.4333 162.054 60.34 162.054 60.34L163.265 61.7337C164.007 64.1545 164.613 66.6149 165.081 69.1035C163.67 67.5188 161.764 66.4631 159.676 66.1101C156.136 65.4756 147.726 68.3335 147.726 68.3335C147.726 68.3335 143.899 61.4626 137.181 59.0168Z" fill="#C4D9E0"/>
</g>
<g style="mix-blend-mode:soft-light">
<path d="M127.831 64.0493C130.157 65.5642 132.146 67.5452 133.673 69.8681L141.71 67.7423C141.71 67.7423 139.586 62.7261 134.743 60.6328L127.831 64.0493Z" fill="#C4D9E0"/>
</g>
<g style="mix-blend-mode:soft-light">
<path d="M120.183 66.7228C120.183 66.7228 124.312 69.1794 126.166 71.5493L129.625 70.8714C129.625 70.8714 127.906 66.5764 124.901 65.5027C124.087 65.1802 123.192 65.1246 122.344 65.3438C121.497 65.563 120.74 66.0457 120.183 66.7228Z" fill="#C4D9E0"/>
</g>
<g style="mix-blend-mode:soft-light">
<path d="M188.846 87.2866C188.846 87.2866 193.359 89.8896 197.964 92.6174C197.964 92.6174 198.423 90.2964 197.964 88.8213C197.505 87.3463 190.743 84.7595 190.743 84.7595L188.846 87.2866Z" fill="#C4D9E0"/>
</g>
<g style="mix-blend-mode:soft-light">
<path d="M84.127 84.803C84.127 84.803 93.2395 79.5861 103.249 79.7542C103.249 79.7542 97.4067 77.5579 97.7039 76.4571C98.0012 75.3562 100.45 71.5764 100.45 71.5764C100.45 71.5764 86.0997 73.0298 84.127 84.803Z" fill="#C4D9E0"/>
</g>
<path style="mix-blend-mode:multiply" opacity="0.6" d="M120.361 171.684C120.361 171.684 112.016 175.399 108.768 182.904L120.361 171.684Z" fill="url(#paint28_linear_6934_3858)"/>
<path style="mix-blend-mode:multiply" opacity="0.6" d="M161.341 171.294C161.341 171.294 168.8 175.133 172.632 182.736L161.341 171.294Z" fill="url(#paint29_linear_6934_3858)"/>
<path d="M95.5366 215.653C95.5366 215.653 98.1201 224.2 100.682 226.781C100.43 224.36 100.318 221.927 100.347 219.493L95.5366 215.653Z" fill="url(#paint30_linear_6934_3858)"/>
<path d="M197.553 149.542C197.553 149.542 196.18 160.388 195.786 164.184C195.326 168.696 193.51 182.08 189.219 186.646C184.76 191.413 172.891 194 172.891 194C172.891 194 173.658 184.092 172.594 182.926C171.226 181.429 152.32 178.311 150.801 178.587C149.282 178.864 140.954 180.67 140.737 180.719C140.737 180.719 132.181 178.869 130.663 178.582C129.144 178.295 110.238 181.407 108.87 182.92C107.789 184.086 108.114 195.079 108.114 195.079C108.114 195.079 98.3309 193.354 92.7585 186.277C88.8778 181.348 87.0618 169.683 86.597 165.166C85.5592 157.818 82.8946 140.898 82.8946 140.898C82.8946 140.898 84.7971 171.478 85.2728 189.829C85.2003 195.341 86.4341 200.79 88.8724 205.729C93.6881 215.404 100.963 226.282 108.114 230.442C115.524 234.748 129.306 238.278 135.089 239.634C136.764 240.027 138.473 240.259 140.191 240.328C141.626 240.383 143.061 240.251 144.461 239.937C150.153 238.663 165.659 234.921 173.35 230.453C180.506 226.288 187.787 215.398 192.602 205.718C195.051 200.8 195.899 195.344 196.197 189.856C197.218 170.643 197.553 149.542 197.553 149.542ZM150.061 210.643C146.78 208.441 150.601 208.267 149.931 205.583C149.884 205.394 149.796 205.217 149.673 205.065C149.551 204.914 149.397 204.791 149.223 204.704C147.061 203.669 140.948 204.162 140.732 204.189C140.732 204.189 134.457 203.647 132.23 204.704C132.055 204.789 131.901 204.911 131.779 205.062C131.657 205.213 131.569 205.389 131.522 205.578C130.852 208.262 134.673 208.441 131.392 210.637C127.517 213.24 109.719 190.762 115.27 186.532C120.561 188.078 123.274 190.1 131.349 186.467C134.208 185.176 136.246 185.079 137.462 185.231C137.876 185.287 138.298 185.257 138.7 185.141C139.102 185.025 139.476 184.827 139.797 184.558C140.052 184.308 140.373 184.136 140.721 184.059C141.073 184.135 141.397 184.308 141.656 184.558C141.978 184.826 142.352 185.025 142.753 185.141C143.155 185.258 143.576 185.29 143.991 185.236C145.207 185.084 147.234 185.182 150.104 186.467C158.179 190.106 160.914 188.094 166.183 186.538C171.734 190.767 153.936 213.24 150.061 210.643ZM86.6618 164.602C85.6241 157.254 82.8784 140.92 82.8784 140.92C82.8784 140.92 84.8512 170.914 85.3268 189.265" fill="url(#paint31_linear_6934_3858)"/>
<g style="mix-blend-mode:multiply" opacity="0.6">
<path d="M112.454 231.841C112.454 231.841 109.438 219.026 108.973 210.838C108.508 202.649 108.379 196.505 108.606 194.797C108.833 193.088 104.282 211.971 105.206 219.466C106.103 226.781 106.941 228.777 106.941 228.777L112.454 231.841Z" fill="#B42F97"/>
</g>
<g style="mix-blend-mode:multiply" opacity="0.6">
<path d="M195.548 195.247C195.548 195.247 194.191 185.99 191.813 181.315C191.813 181.315 193.656 198.452 190.073 207.096C192.894 203.691 194.782 199.607 195.548 195.247Z" fill="#B42F97"/>
</g>
<g style="mix-blend-mode:multiply" opacity="0.6">
<path d="M160.568 208.322C160.568 208.322 164.086 201.814 164.54 197.443C164.54 197.443 157.514 209.086 150.488 212.085C150.472 212.107 156.217 211.901 160.568 208.322Z" fill="#B42F97"/>
</g>
<g style="mix-blend-mode:multiply" opacity="0.6">
<path d="M118.307 204.905C118.307 204.905 115.464 198.067 115.448 193.685C115.448 193.685 121.269 205.973 127.977 209.688C127.977 209.688 122.28 208.907 118.307 204.905Z" fill="#B42F97"/>
</g>
<g style="mix-blend-mode:multiply" opacity="0.6">
<path d="M161.341 171.684C161.341 171.684 161.254 173.902 160.26 174.33C159.265 174.759 157.687 173.381 155.498 173.517C154.477 173.582 151.445 175.54 140.748 175.54C130.052 175.54 127.458 173.512 125.896 173.203C123.734 172.78 122.723 174.249 121.707 173.821C120.691 173.392 120.41 171.684 120.41 171.684L120.383 174.629C120.383 174.629 122.004 175.995 128.847 181.874C134.338 186.608 146.921 186.424 152.769 180.936C158.617 175.448 161.341 174.629 161.341 174.629V171.684Z" fill="#B42F97"/>
</g>
<g style="mix-blend-mode:soft-light">
<path d="M180.895 191.115C180.895 191.115 184.446 210.231 175.199 223.956C175.199 223.956 187.419 209.818 182.312 190.236L180.895 191.115Z" fill="#C4D9E0"/>
</g>
<path d="M89.2617 205.74C89.2617 205.74 90.2454 211.429 91.6831 213.289C91.7125 211.716 91.8334 210.146 92.0452 208.587L89.2617 205.74Z" fill="url(#paint32_linear_6934_3858)"/>
<path d="M192.446 204.449C192.446 204.449 191.43 210.133 189.976 211.982C189.955 210.408 189.845 208.836 189.646 207.275L192.446 204.449Z" fill="url(#paint33_linear_6934_3858)"/>
<g style="mix-blend-mode:multiply" opacity="0.6">
<path d="M182.549 219.856C181.366 221.787 178.399 224.01 173.95 226.83C172.922 227.448 171.836 227.964 170.707 228.37C171.421 227.096 172.372 225.263 173.577 222.66C176.761 215.784 178.172 196.087 177.869 197.79C177.566 199.493 175.55 205.382 172.588 213.072C171.729 215.323 170.534 217.871 169.281 220.355C167.755 223.419 165.569 226.105 162.882 228.217C160.194 230.329 157.072 231.815 153.742 232.568H153.666C148.429 233.728 146.407 229.037 141.392 223.105C140.732 225.924 133.727 234.379 127.788 232.22H127.739C126.121 231.597 124.694 230.56 123.599 229.214C122.503 227.867 121.776 226.256 121.491 224.542C121.046 222.233 120.734 219.901 120.556 217.557C120.28 212.676 120.199 209.032 120.334 208.012C120.469 206.993 117.756 218.229 118.307 222.687C118.788 226.591 119.237 227.947 119.324 228.18C114.746 225.686 110.605 223.121 110.605 223.121L112.497 232.237L119.723 235.122L129.766 238.262L135.5 239.775C139.182 240.592 143.003 240.551 146.667 239.655L150.699 238.674C150.699 238.674 155.45 237.361 162.379 235.181C167.108 233.582 171.652 231.479 175.934 228.907L180.944 224.189C180.944 224.189 183.728 217.931 182.549 219.856Z" fill="#B42F97"/>
</g>
<g style="mix-blend-mode:multiply" opacity="0.6">
<path d="M85.2729 186.678C85.2729 186.678 85.1756 192.861 85.8134 195.756C86.8433 201.126 88.9387 206.232 91.9749 210.773C95.4719 216.385 98.4607 220.827 100.666 223.202C100.666 223.202 99.2444 211.575 101.315 204.954C103.385 198.332 105.098 196.95 105.098 196.95C105.098 196.95 96.4069 202.812 96.4069 212.226C89.5373 204.932 85.2729 186.678 85.2729 186.678Z" fill="#B42F97"/>
</g>
<path d="M186.825 215.046C186.825 215.046 186.452 216.673 186.328 216.971C187.473 215.8 188.906 211.613 188.906 211.613L186.825 215.046Z" fill="url(#paint34_linear_6934_3858)"/>
<g style="mix-blend-mode:multiply" opacity="0.6">
<path d="M118.572 192.194C118.572 192.194 127.171 204.363 139.376 204.45C151.58 204.536 160.995 192.123 160.995 192.123L118.572 192.194Z" fill="#B42F97"/>
</g>
<path d="M115.253 188.371C115.253 188.371 123.701 200.898 138.678 201.012C153.655 201.125 164.621 188.729 164.621 188.729C164.621 188.729 148.947 192.481 138.202 192.4C127.458 192.319 115.253 188.371 115.253 188.371Z" fill="#EA8389"/>
<path d="M139.959 187.237C130.711 183.441 124.663 193.202 115.599 187.633C115.599 187.633 113.924 192.232 139.921 192.421L139.959 187.237Z" fill="#CD6B69"/>
<path d="M139.959 187.237C150.531 182.308 154.369 192.877 163.503 187.411C163.503 187.411 165.913 192.611 139.916 192.421L139.959 187.237Z" fill="#CD6B69"/>
<path d="M114.351 187.714C114.351 187.714 115.356 187.107 115.973 187.172C116.589 187.237 120.983 192.259 139.938 192.4C158.892 192.541 162.757 187.205 163.524 187.389C164.292 187.573 165.573 188.067 165.573 188.067C165.573 188.067 160.708 192.828 139.938 192.676C119.167 192.525 114.351 187.714 114.351 187.714Z" fill="#862254"/>
<g style="mix-blend-mode:soft-light">
<path d="M146.942 196.012L148.315 198.549C148.315 198.549 155.882 196.125 161.017 192.123L146.942 196.012Z" fill="#FFCCB8"/>
</g>
<g style="mix-blend-mode:multiply" opacity="0.6">
<path d="M95.9961 217.096C95.9961 217.096 98.1202 224.146 100.682 226.754C100.282 223.5 100.288 222.736 100.288 222.736L95.9961 217.096Z" fill="#B42F97"/>
</g>
<path d="M128.269 237.112L141.932 242.817C141.932 242.817 140.186 240.61 139.954 239.411C139.721 238.213 128.269 237.112 128.269 237.112Z" fill="url(#paint35_linear_6934_3858)"/>
<g style="mix-blend-mode:multiply" opacity="0.6">
<path d="M128.269 237.112L141.932 242.817C141.932 242.817 140.186 240.61 139.954 239.411C139.721 238.213 128.269 237.112 128.269 237.112Z" fill="#B42F97"/>
</g>
<g style="mix-blend-mode:soft-light">
<path d="M102.093 224.33C102.093 224.33 106.292 228.094 107.698 228.734C104.687 223.007 104.86 214.33 105.303 211.874C105.747 209.417 106.357 202.655 106.357 202.655C106.357 202.655 101.623 210.295 101.028 214.433C100.695 217.406 100.719 220.408 101.098 223.376L102.093 224.33Z" fill="#C4D9E0"/>
</g>
<g style="mix-blend-mode:soft-light">
<path d="M150.898 232.302C154.495 228.898 157.779 225.175 160.708 221.179C164.159 216.413 166.622 211.001 167.951 205.263C169.572 198.403 169.734 195.843 169.734 195.843C169.734 195.843 169.864 206.505 168.653 211.613C167.464 216.521 163.276 227.009 158.892 230.051C154.509 233.094 150.898 232.302 150.898 232.302Z" fill="#C4D9E0"/>
</g>
<g style="mix-blend-mode:soft-light">
<path d="M183.814 190.442C184.679 191.626 185.741 192.652 186.954 193.474C188.862 194.726 191.424 194.054 191.424 194.054L191.375 194.217C191.093 195.248 190.912 196.305 190.835 197.373C190.767 198.337 190.615 199.293 190.381 200.231C190.381 200.231 190.332 198.457 189.354 197.644C188.376 196.83 185.03 197.807 185.03 197.807C185.03 197.807 185.387 192.812 183.814 190.442Z" fill="#C4D9E0"/>
</g>
<g style="mix-blend-mode:soft-light">
<path d="M95.4394 205.426C95.4394 205.426 93.1856 197.834 94.2395 189.943C94.2395 189.943 92.364 194.406 91.7371 194.092C91.1101 193.777 89.0346 191.565 89.0346 191.565C89.0346 191.565 88.5914 203.012 95.4394 205.426Z" fill="#C4D9E0"/>
</g>
<defs>
<linearGradient id="paint0_linear_6934_3858" x1="140.862" y1="280.864" x2="140.862" y2="209.162" gradientUnits="userSpaceOnUse">
<stop stop-color="#CC9279"/>
<stop offset="0.06" stop-color="#CE937A"/>
<stop offset="0.54" stop-color="#DB9C7D"/>
<stop offset="1" stop-color="#DF9F7E"/>
</linearGradient>
<linearGradient id="paint1_linear_6934_3858" x1="140.862" y1="280.864" x2="140.862" y2="253.771" gradientUnits="userSpaceOnUse">
<stop offset="0.01" stop-color="#F4CE84"/>
<stop offset="1" stop-color="#F2DA83"/>
</linearGradient>
<linearGradient id="paint2_linear_6934_3858" x1="161.514" y1="264.72" x2="161.514" y2="215.29" gradientUnits="userSpaceOnUse">
<stop stop-color="#FFEADB"/>
<stop offset="0.99" stop-color="#D177F4"/>
</linearGradient>
<linearGradient id="paint3_linear_6934_3858" x1="177.944" y1="275.517" x2="177.944" y2="258.804" gradientUnits="userSpaceOnUse">
<stop stop-color="#FFEADB"/>
<stop offset="0.99" stop-color="#D177F4"/>
</linearGradient>
<linearGradient id="paint4_linear_6934_3858" x1="97.4175" y1="275.517" x2="97.4175" y2="257.692" gradientUnits="userSpaceOnUse">
<stop stop-color="#FFEADB"/>
<stop offset="0.99" stop-color="#D177F4"/>
</linearGradient>
<linearGradient id="paint5_linear_6934_3858" x1="191.932" y1="179.19" x2="215.476" y2="133.343" gradientUnits="userSpaceOnUse">
<stop stop-color="#EBBF97"/>
<stop offset="0.85" stop-color="#DB8879"/>
</linearGradient>
<linearGradient id="paint6_linear_6934_3858" x1="207.017" y1="168.213" x2="207.017" y2="141.473" gradientUnits="userSpaceOnUse">
<stop stop-color="#FFEADB"/>
<stop offset="0.99" stop-color="#B42F97" stop-opacity="0.6"/>
</linearGradient>
<linearGradient id="paint7_linear_6934_3858" x1="201.71" y1="167.535" x2="201.71" y2="146.803" gradientUnits="userSpaceOnUse">
<stop stop-color="#FFEADB"/>
<stop offset="0.99" stop-color="#B42F97" stop-opacity="0.6"/>
</linearGradient>
<linearGradient id="paint8_linear_6934_3858" x1="85.3053" y1="180.025" x2="67.2773" y2="131.724" gradientUnits="userSpaceOnUse">
<stop stop-color="#EBBF97"/>
<stop offset="0.85" stop-color="#DB8879"/>
</linearGradient>
<linearGradient id="paint9_linear_6934_3858" x1="73.8846" y1="168.213" x2="73.8846" y2="141.473" gradientUnits="userSpaceOnUse">
<stop stop-color="#FFEADB"/>
<stop offset="0.99" stop-color="#B42F97" stop-opacity="0.6"/>
</linearGradient>
<linearGradient id="paint10_linear_6934_3858" x1="79.1872" y1="167.535" x2="79.1872" y2="146.803" gradientUnits="userSpaceOnUse">
<stop stop-color="#FFEADB"/>
<stop offset="0.99" stop-color="#B42F97" stop-opacity="0.6"/>
</linearGradient>
<linearGradient id="paint11_linear_6934_3858" x1="140.24" y1="229.807" x2="140.24" y2="65.1665" gradientUnits="userSpaceOnUse">
<stop offset="0.01" stop-color="#D57E61"/>
<stop offset="0.15" stop-color="#DE9A77"/>
<stop offset="0.31" stop-color="#EBBF95"/>
<stop offset="0.48" stop-color="#E8B290"/>
<stop offset="0.61" stop-color="#E5A68B"/>
<stop offset="1" stop-color="#CE8D65"/>
</linearGradient>
<linearGradient id="paint12_linear_6934_3858" x1="173.793" y1="211.993" x2="173.793" y2="86.3865" gradientUnits="userSpaceOnUse">
<stop stop-color="#FFEADB"/>
<stop offset="0.99" stop-color="#D17EAE"/>
</linearGradient>
<linearGradient id="paint13_linear_6934_3858" x1="106.833" y1="213.495" x2="106.833" y2="86.0828" gradientUnits="userSpaceOnUse">
<stop stop-color="#FFEADB"/>
<stop offset="0.99" stop-color="#D17EAE"/>
</linearGradient>
<linearGradient id="paint14_linear_6934_3858" x1="180.934" y1="130.691" x2="178.322" y2="148.39" gradientUnits="userSpaceOnUse">
<stop stop-color="#36063B"/>
<stop offset="1" stop-color="#4D0E2E"/>
</linearGradient>
<linearGradient id="paint15_linear_6934_3858" x1="118.162" y1="133.923" x2="120.253" y2="151.642" gradientUnits="userSpaceOnUse">
<stop stop-color="#36063B"/>
<stop offset="1" stop-color="#4D0E2E"/>
</linearGradient>
<linearGradient id="paint16_linear_6934_3858" x1="170.539" y1="148.875" x2="172.566" y2="136.707" gradientUnits="userSpaceOnUse">
<stop stop-color="#EEE2FF"/>
<stop offset="1" stop-color="#BDC9FB"/>
</linearGradient>
<linearGradient id="paint17_linear_6934_3858" x1="167.588" y1="148.701" x2="172.042" y2="134.645" gradientUnits="userSpaceOnUse">
<stop stop-color="#4D0E2E"/>
<stop offset="1" stop-color="#36063B"/>
</linearGradient>
<linearGradient id="paint18_linear_6934_3858" x1="168.449" y1="145.965" x2="171.17" y2="137.377" gradientUnits="userSpaceOnUse">
<stop stop-color="#CAA7DB"/>
<stop offset="0.99" stop-color="#8460B8"/>
</linearGradient>
<linearGradient id="paint19_linear_6934_3858" x1="110.163" y1="148.45" x2="107.935" y2="136.362" gradientUnits="userSpaceOnUse">
<stop stop-color="#EEE2FF"/>
<stop offset="1" stop-color="#BDC9FB"/>
</linearGradient>
<linearGradient id="paint20_linear_6934_3858" x1="110.663" y1="148.363" x2="106.061" y2="134.308" gradientUnits="userSpaceOnUse">
<stop stop-color="#4D0E2E"/>
<stop offset="1" stop-color="#36063B"/>
</linearGradient>
<linearGradient id="paint21_linear_6934_3858" x1="109.773" y1="145.627" x2="106.963" y2="137.045" gradientUnits="userSpaceOnUse">
<stop stop-color="#CAA7DB"/>
<stop offset="0.99" stop-color="#8460B8"/>
</linearGradient>
<linearGradient id="paint22_linear_6934_3858" x1="140.862" y1="178.202" x2="140.862" y2="151.738" gradientUnits="userSpaceOnUse">
<stop stop-color="#F97C99"/>
<stop offset="0.15" stop-color="#FB8297"/>
<stop offset="0.57" stop-color="#FE8E94"/>
<stop offset="1" stop-color="#FF9293"/>
</linearGradient>
<linearGradient id="paint23_linear_6934_3858" x1="140.862" y1="177.644" x2="140.862" y2="151.185" gradientUnits="userSpaceOnUse">
<stop offset="0.04" stop-color="#EF7966"/>
<stop offset="0.16" stop-color="#EE907E"/>
<stop offset="0.31" stop-color="#ECA998"/>
<stop offset="0.45" stop-color="#EBB8A7"/>
<stop offset="0.56" stop-color="#EBBDAD"/>
<stop offset="1" stop-color="#E5B487"/>
</linearGradient>
<linearGradient id="paint24_linear_6934_3858" x1="154.579" y1="173.051" x2="154.579" y2="161.256" gradientUnits="userSpaceOnUse">
<stop stop-color="#FFEADB"/>
<stop offset="0.99" stop-color="#B42F97" stop-opacity="0.6"/>
</linearGradient>
<linearGradient id="paint25_linear_6934_3858" x1="127.041" y1="173.051" x2="127.041" y2="161.256" gradientUnits="userSpaceOnUse">
<stop stop-color="#FFEADB"/>
<stop offset="0.99" stop-color="#B42F97" stop-opacity="0.6"/>
</linearGradient>
<linearGradient id="paint26_linear_6934_3858" x1="142.207" y1="143.566" x2="142.207" y2="50.8335" gradientUnits="userSpaceOnUse">
<stop stop-color="#36062C"/>
<stop offset="1" stop-color="#441B3E"/>
</linearGradient>
<linearGradient id="paint27_linear_6934_3858" x1="168.005" y1="57.9592" x2="168.221" y2="57.9592" gradientUnits="userSpaceOnUse">
<stop stop-color="#FFEADB"/>
<stop offset="0.99" stop-color="#D177F4"/>
</linearGradient>
<linearGradient id="paint28_linear_6934_3858" x1="111.612" y1="183.72" x2="116.212" y2="170.079" gradientUnits="userSpaceOnUse">
<stop stop-color="#FFEADB"/>
<stop offset="0.99" stop-color="#B42F97" stop-opacity="0.6"/>
</linearGradient>
<linearGradient id="paint29_linear_6934_3858" x1="168.978" y1="183.02" x2="163.122" y2="169.255" gradientUnits="userSpaceOnUse">
<stop stop-color="#FFEADB"/>
<stop offset="0.99" stop-color="#B42F97" stop-opacity="0.6"/>
</linearGradient>
<linearGradient id="paint30_linear_6934_3858" x1="96.2417" y1="221.426" x2="100.517" y2="220.901" gradientUnits="userSpaceOnUse">
<stop stop-color="#36062C"/>
<stop offset="1" stop-color="#441B3E"/>
</linearGradient>
<linearGradient id="paint31_linear_6934_3858" x1="82.8892" y1="190.637" x2="197.548" y2="190.637" gradientUnits="userSpaceOnUse">
<stop stop-color="#36062C"/>
<stop offset="1" stop-color="#441B3E"/>
</linearGradient>
<linearGradient id="paint32_linear_6934_3858" x1="89.2617" y1="209.515" x2="92.0452" y2="209.515" gradientUnits="userSpaceOnUse">
<stop stop-color="#36062C"/>
<stop offset="1" stop-color="#441B3E"/>
</linearGradient>
<linearGradient id="paint33_linear_6934_3858" x1="191.727" y1="207.396" x2="188.944" y2="207.368" gradientUnits="userSpaceOnUse">
<stop stop-color="#36062C"/>
<stop offset="1" stop-color="#441B3E"/>
</linearGradient>
<linearGradient id="paint34_linear_6934_3858" x1="186.328" y1="214.292" x2="188.906" y2="214.292" gradientUnits="userSpaceOnUse">
<stop stop-color="#36062C"/>
<stop offset="1" stop-color="#441B3E"/>
</linearGradient>
<linearGradient id="paint35_linear_6934_3858" x1="128.269" y1="239.965" x2="141.932" y2="239.965" gradientUnits="userSpaceOnUse">
<stop stop-color="#36062C"/>
<stop offset="1" stop-color="#441B3E"/>
</linearGradient>
</defs>
</svg>
