<svg width="342" height="273" viewBox="0 0 342 273" fill="none" xmlns="http://www.w3.org/2000/svg">
<g clip-path="url(#clip0_6934_2928)">
<g filter="url(#filter0_d_6934_2928)">
<rect x="20.5" y="0.5" width="301" height="82" rx="9.5" fill="white" stroke="#FF619A"/>
<path d="M67.2728 38.7274C66.1683 38.7274 65.2728 37.832 65.2728 36.7274V27.6365C65.2728 26.5319 64.3774 25.6365 63.2728 25.6365H60.7274C59.6228 25.6365 58.7274 26.5319 58.7274 27.6365V36.7274C58.7274 37.832 57.832 38.7274 56.7274 38.7274H47.6365C46.5319 38.7274 45.6365 39.6228 45.6365 40.7274V43.2728C45.6365 44.3774 46.5319 45.2728 47.6365 45.2728H56.7274C57.832 45.2728 58.7274 46.1683 58.7274 47.2728V56.3637C58.7274 57.4683 59.6228 58.3637 60.7274 58.3637H63.2728C64.3774 58.3637 65.2728 57.4683 65.2728 56.3637V47.2728C65.2728 46.1683 66.1683 45.2728 67.2728 45.2728H76.3637C77.4683 45.2728 78.3637 44.3774 78.3637 43.2728V40.7274C78.3637 39.6228 77.4683 38.7274 76.3637 38.7274H67.2728Z" fill="url(#paint0_linear_6934_2928)"/>
<path d="M113.73 49H111.222V43.091H105.009V49H102.52V35.548H105.009V41.096H111.222V35.548H113.73V49ZM125.339 44.934H118.461C118.563 45.7193 118.841 46.3273 119.297 46.758C119.766 47.176 120.406 47.385 121.216 47.385C121.774 47.385 122.261 47.3153 122.679 47.176C123.11 47.024 123.566 46.796 124.047 46.492L125.073 48.012C124.503 48.43 123.889 48.7467 123.23 48.962C122.584 49.1647 121.862 49.266 121.064 49.266C120.026 49.266 119.133 49.0507 118.385 48.62C117.638 48.1893 117.062 47.5813 116.656 46.796C116.264 46.0107 116.067 45.0987 116.067 44.06C116.067 42.4893 116.479 41.229 117.302 40.279C118.138 39.329 119.316 38.854 120.836 38.854C122.331 38.854 123.465 39.3227 124.237 40.26C125.01 41.1973 125.396 42.4577 125.396 44.041C125.396 44.345 125.377 44.6427 125.339 44.934ZM123.059 43.148C123.034 42.4133 122.831 41.8117 122.451 41.343C122.084 40.8743 121.539 40.64 120.817 40.64C120.083 40.64 119.513 40.8807 119.107 41.362C118.715 41.8307 118.493 42.426 118.442 43.148H123.059ZM126.956 46.226C126.956 44.934 127.412 44.0347 128.324 43.528C129.249 43.0213 130.573 42.768 132.295 42.768C132.713 42.768 133.03 42.7743 133.245 42.787V42.293C133.245 41.229 132.568 40.697 131.212 40.697C130.237 40.697 129.281 40.9503 128.343 41.457L127.545 39.88C128.077 39.5633 128.679 39.3163 129.35 39.139C130.022 38.949 130.687 38.854 131.345 38.854C132.853 38.854 133.942 39.196 134.613 39.88C135.285 40.5513 135.62 41.5837 135.62 42.977V46.739C135.62 47.2203 135.677 47.974 135.791 49H133.606C133.518 48.4807 133.461 48.107 133.435 47.879H133.378C133.024 48.3477 132.599 48.696 132.105 48.924C131.611 49.152 130.959 49.266 130.148 49.266C129.236 49.266 128.476 49.0063 127.868 48.487C127.26 47.955 126.956 47.2013 126.956 46.226ZM133.264 45.181V44.383L132.542 44.364C131.428 44.364 130.63 44.497 130.148 44.763C129.667 45.0163 129.426 45.447 129.426 46.055C129.426 46.4857 129.553 46.8213 129.806 47.062C130.06 47.29 130.402 47.404 130.832 47.404C131.301 47.404 131.719 47.3027 132.086 47.1C132.454 46.8847 132.739 46.6123 132.941 46.283C133.157 45.941 133.264 45.5737 133.264 45.181ZM140.909 35.548V49H138.534V35.548H140.909ZM146.708 39.215H149.159V41.02H146.708V45.941C146.708 46.8783 147.132 47.347 147.981 47.347C148.323 47.347 148.614 47.309 148.855 47.233L149.197 48.981C148.716 49.171 148.139 49.266 147.468 49.266C146.48 49.266 145.707 49 145.15 48.468C144.605 47.9233 144.333 47.157 144.333 46.169V41.02H142.699V39.5L144.314 39.215V36.878L146.708 36.042V39.215ZM151.207 35.548H153.582V40.203H153.62C154.342 39.3037 155.399 38.854 156.793 38.854C158.009 38.854 158.908 39.2023 159.491 39.899C160.086 40.5957 160.384 41.4507 160.384 42.464V49H158.009V42.977C158.009 42.3437 157.85 41.8307 157.534 41.438C157.23 41.0327 156.717 40.83 155.995 40.83C155.26 40.83 154.671 41.0833 154.228 41.59C153.797 42.0967 153.582 42.7363 153.582 43.509V49H151.207V35.548Z" fill="#F95993"/>
</g>
<g opacity="0.25">
<rect x="20.5" y="91.5" width="301" height="82" rx="9.5" fill="white" stroke="#FFB800"/>
<path d="M61.4868 118.797C60.9032 118.902 60.2633 119.247 59.8204 119.711L59.4126 120.133H54.8141H50.2086L49.8993 120.295C49.4493 120.534 49.1821 120.948 49.1469 121.469C49.1047 122.059 49.1751 122.334 49.4563 122.699C49.5969 122.882 49.6813 123.058 49.6461 123.107C49.618 123.156 48.3946 125.118 46.9251 127.48C45.4626 129.836 44.1969 131.868 44.1266 131.987C44.0001 132.198 44.0001 132.22 44.1477 132.691C44.886 135.102 46.8969 136.902 49.3086 137.324C50.4899 137.528 51.5024 137.444 52.6696 137.05C54.6383 136.375 56.143 134.828 56.804 132.803C56.9657 132.29 56.9868 132.17 56.9094 132.051C56.8602 131.973 55.8477 130.279 54.6524 128.289C53.4641 126.299 52.304 124.359 52.079 123.979L51.6711 123.297H55.5524L59.4336 123.304L59.7008 123.662L59.961 124.028V133.745V143.47L56.6774 143.491L53.3868 143.512L52.9719 143.716C52.4094 143.99 52.3672 144.116 52.3672 145.424C52.3672 146.683 52.4305 146.859 52.9649 147.133L53.3165 147.309H62.1758H71.0352L71.3587 147.161C71.9493 146.887 71.9563 146.859 72.0055 145.544C72.0618 144.109 72.0266 143.997 71.429 143.709L71.0352 143.512L67.5407 143.491L64.0391 143.47V133.731V124L64.3063 123.648L64.5665 123.304H68.4477L72.329 123.297L69.861 127.424C68.504 129.702 67.3016 131.699 67.1961 131.868L67.0063 132.177L67.1399 132.641C67.7868 134.912 69.5727 136.614 71.9844 137.268C72.6735 137.451 74.4243 137.437 75.1626 137.233C77.4196 136.614 79.1633 134.927 79.8524 132.691C80.0001 132.22 80.0001 132.198 79.8735 131.987C79.8032 131.868 78.5376 129.836 77.0751 127.48C75.6055 125.118 74.3821 123.156 74.354 123.107C74.3188 123.058 74.4032 122.882 74.5438 122.699C74.8251 122.334 74.8954 122.059 74.8532 121.469C74.818 120.948 74.5508 120.534 74.1008 120.295L73.7915 120.133H69.1719H64.5454L64.2922 119.823C63.6665 119.05 62.4852 118.621 61.4868 118.797ZM52.8524 128.177C54.0969 130.244 55.1305 131.98 55.1516 132.044C55.1938 132.149 54.779 132.156 50.504 132.156C46.6016 132.156 45.8211 132.142 45.8493 132.065C45.8844 131.966 50.5602 124.422 50.5883 124.422C50.5954 124.422 51.6149 126.109 52.8524 128.177ZM78.1508 132.065C78.179 132.142 77.3563 132.156 73.4961 132.156C69.3196 132.156 68.8133 132.142 68.8485 132.051C68.8836 131.959 72.9547 125.125 73.2993 124.577C73.3977 124.415 73.4751 124.527 75.7602 128.191C77.054 130.272 78.1297 132.009 78.1508 132.065Z" fill="url(#paint1_linear_6934_2928)"/>
<path d="M104.798 137.038H110.306V139H102.44V126.256H104.798V137.038ZM111.071 136.372C111.071 135.148 111.503 134.296 112.367 133.816C113.243 133.336 114.497 133.096 116.129 133.096C116.525 133.096 116.825 133.102 117.029 133.114V132.646C117.029 131.638 116.387 131.134 115.103 131.134C114.179 131.134 113.273 131.374 112.385 131.854L111.629 130.36C112.133 130.06 112.703 129.826 113.339 129.658C113.975 129.478 114.605 129.388 115.229 129.388C116.657 129.388 117.689 129.712 118.325 130.36C118.961 130.996 119.279 131.974 119.279 133.294V136.858C119.279 137.314 119.333 138.028 119.441 139H117.371C117.287 138.508 117.233 138.154 117.209 137.938H117.155C116.819 138.382 116.417 138.712 115.949 138.928C115.481 139.144 114.863 139.252 114.095 139.252C113.231 139.252 112.511 139.006 111.935 138.514C111.359 138.01 111.071 137.296 111.071 136.372ZM117.047 135.382V134.626L116.363 134.608C115.307 134.608 114.551 134.734 114.095 134.986C113.639 135.226 113.411 135.634 113.411 136.21C113.411 136.618 113.531 136.936 113.771 137.164C114.011 137.38 114.335 137.488 114.743 137.488C115.187 137.488 115.583 137.392 115.931 137.2C116.279 136.996 116.549 136.738 116.741 136.426C116.945 136.102 117.047 135.754 117.047 135.382ZM132.515 139H130.067L127.943 132.088H127.907L125.837 139H123.407L120.797 129.64H123.173L124.721 136.498H124.757L126.809 129.64H129.149L131.219 136.498H131.255L132.839 129.64H135.125L132.515 139Z" fill="#FFA901"/>
</g>
<g opacity="0.25">
<rect x="20.5" y="182.5" width="301" height="82" rx="9.5" fill="white" stroke="#7FC6A6"/>
<path d="M61.9082 211.306C61.7061 211.378 57.9224 212.7 53.4959 214.237C49.073 215.777 45.3702 217.076 45.2673 217.122C44.9073 217.287 44.709 217.535 44.7494 217.76C44.7788 217.91 44.9882 218.121 45.2306 218.245C45.3335 218.294 46.2739 218.635 47.3245 219C48.3751 219.368 49.2457 219.676 49.2641 219.687C49.2824 219.698 49.1906 219.819 49.062 219.958C48.2355 220.84 47.7579 221.904 47.5816 223.26C47.5486 223.5 47.5118 224.022 47.5008 224.417L47.4788 225.13L47.273 225.243C46.6559 225.574 46.2702 226.366 46.3841 227.076C46.4098 227.223 46.4759 227.448 46.5347 227.58C46.6522 227.843 46.9755 228.211 47.1812 228.323L47.3135 228.395L47.2877 228.601C47.24 228.992 47.0453 229.879 46.8984 230.378C46.4171 231.979 45.5208 233.65 44.3343 235.164L44.0037 235.589L44.1579 235.716C44.4518 235.96 45.249 236.49 45.5869 236.663C45.7706 236.757 46.0718 236.892 46.2482 236.963L46.5751 237.091L46.8579 236.945C48.2428 236.227 49.0033 234.935 49.2163 232.94C49.3155 232.012 49.3045 231.043 49.1722 228.973L49.1282 228.275L49.3375 228.061C49.8775 227.501 49.9914 226.686 49.6351 225.961C49.58 225.852 49.4257 225.653 49.2788 225.51L49.0216 225.254L49.0473 224.834C49.1722 222.794 49.7453 221.415 50.873 220.446L51.042 220.3L51.3506 220.408C51.5196 220.469 53.8926 221.295 56.6184 222.245C59.3477 223.2 61.7686 224.045 62 224.127C62.2314 224.214 62.4812 224.281 62.551 224.281C62.6208 224.281 62.8449 224.221 63.0469 224.146C63.249 224.075 63.9102 223.838 64.5163 223.624C65.1224 223.41 66.0812 223.072 66.6469 222.873C71.0992 221.303 72.7375 220.724 74.1041 220.243C78.2882 218.774 79.3094 218.406 79.5114 218.309C79.8604 218.132 80.0404 217.88 79.9853 217.651C79.9449 217.493 79.6877 217.272 79.4012 217.152C79.2543 217.091 75.6726 215.818 71.4408 214.327C67.209 212.835 63.4657 211.513 63.1204 211.393C62.7788 211.269 62.4482 211.171 62.3857 211.171C62.3269 211.171 62.1102 211.231 61.9082 211.306Z" fill="black"/>
<path d="M61.9082 211.306C61.7061 211.378 57.9224 212.7 53.4959 214.237C49.073 215.777 45.3702 217.076 45.2673 217.122C44.9073 217.287 44.709 217.535 44.7494 217.76C44.7788 217.91 44.9882 218.121 45.2306 218.245C45.3335 218.294 46.2739 218.635 47.3245 219C48.3751 219.368 49.2457 219.676 49.2641 219.687C49.2824 219.698 49.1906 219.819 49.062 219.958C48.2355 220.84 47.7579 221.904 47.5816 223.26C47.5486 223.5 47.5118 224.022 47.5008 224.417L47.4788 225.13L47.273 225.243C46.6559 225.574 46.2702 226.366 46.3841 227.076C46.4098 227.223 46.4759 227.448 46.5347 227.58C46.6522 227.843 46.9755 228.211 47.1812 228.323L47.3135 228.395L47.2877 228.601C47.24 228.992 47.0453 229.879 46.8984 230.378C46.4171 231.979 45.5208 233.65 44.3343 235.164L44.0037 235.589L44.1579 235.716C44.4518 235.96 45.249 236.49 45.5869 236.663C45.7706 236.757 46.0718 236.892 46.2482 236.963L46.5751 237.091L46.8579 236.945C48.2428 236.227 49.0033 234.935 49.2163 232.94C49.3155 232.012 49.3045 231.043 49.1722 228.973L49.1282 228.275L49.3375 228.061C49.8775 227.501 49.9914 226.686 49.6351 225.961C49.58 225.852 49.4257 225.653 49.2788 225.51L49.0216 225.254L49.0473 224.834C49.1722 222.794 49.7453 221.415 50.873 220.446L51.042 220.3L51.3506 220.408C51.5196 220.469 53.8926 221.295 56.6184 222.245C59.3477 223.2 61.7686 224.045 62 224.127C62.2314 224.214 62.4812 224.281 62.551 224.281C62.6208 224.281 62.8449 224.221 63.0469 224.146C63.249 224.075 63.9102 223.838 64.5163 223.624C65.1224 223.41 66.0812 223.072 66.6469 222.873C71.0992 221.303 72.7375 220.724 74.1041 220.243C78.2882 218.774 79.3094 218.406 79.5114 218.309C79.8604 218.132 80.0404 217.88 79.9853 217.651C79.9449 217.493 79.6877 217.272 79.4012 217.152C79.2543 217.091 75.6726 215.818 71.4408 214.327C67.209 212.835 63.4657 211.513 63.1204 211.393C62.7788 211.269 62.4482 211.171 62.3857 211.171C62.3269 211.171 62.1102 211.231 61.9082 211.306Z" fill="url(#paint2_linear_6934_2928)"/>
<path d="M70.2282 224.243C67.8956 225.07 65.2433 226.005 64.3323 226.328C63.3698 226.666 62.6241 226.91 62.547 226.91C62.4735 226.91 62.1502 226.816 61.8307 226.7C61.1474 226.456 51.3466 223.041 51.3245 223.041C51.3172 223.041 51.3098 224.889 51.3098 227.147C51.3098 231.651 51.3025 231.482 51.5302 231.884C52.9739 234.446 60.3245 235.922 67.0323 235.002C69.7323 234.634 71.9805 233.898 73.3066 232.947C73.7988 232.598 74.258 232.057 74.4307 231.629C74.5078 231.437 74.5078 231.407 74.5188 227.087C74.5225 224.698 74.5151 222.741 74.5005 222.744C74.4821 222.744 72.5609 223.421 70.2282 224.243Z" fill="black"/>
<path d="M70.2282 224.243C67.8956 225.07 65.2433 226.005 64.3323 226.328C63.3698 226.666 62.6241 226.91 62.547 226.91C62.4735 226.91 62.1502 226.816 61.8307 226.7C61.1474 226.456 51.3466 223.041 51.3245 223.041C51.3172 223.041 51.3098 224.889 51.3098 227.147C51.3098 231.651 51.3025 231.482 51.5302 231.884C52.9739 234.446 60.3245 235.922 67.0323 235.002C69.7323 234.634 71.9805 233.898 73.3066 232.947C73.7988 232.598 74.258 232.057 74.4307 231.629C74.5078 231.437 74.5078 231.407 74.5188 227.087C74.5225 224.698 74.5151 222.741 74.5005 222.744C74.4821 222.744 72.5609 223.421 70.2282 224.243Z" fill="url(#paint3_linear_6934_2928)"/>
<path d="M110.486 219.146H104.798V222.548H109.658V224.366H104.798V228.074H110.792V230H102.44V217.256H110.486V219.146ZM121.084 230H118.996C118.912 229.532 118.864 229.142 118.852 228.83H118.816C118.468 229.31 118.042 229.67 117.538 229.91C117.034 230.138 116.41 230.252 115.666 230.252C114.346 230.252 113.356 229.802 112.696 228.902C112.036 228.002 111.706 226.826 111.706 225.374C111.706 224.45 111.88 223.61 112.228 222.854C112.576 222.098 113.074 221.498 113.722 221.054C114.382 220.61 115.156 220.388 116.044 220.388C117.112 220.388 117.994 220.7 118.69 221.324V217.256H120.94V227.858C120.94 228.422 120.988 229.136 121.084 230ZM118.69 225.914V223.178C118.078 222.53 117.31 222.206 116.386 222.206C115.642 222.206 115.066 222.494 114.658 223.07C114.25 223.634 114.046 224.402 114.046 225.374C114.046 226.37 114.244 227.138 114.64 227.678C115.048 228.206 115.594 228.47 116.278 228.47C116.986 228.47 117.562 228.236 118.006 227.768C118.462 227.288 118.69 226.67 118.69 225.914ZM123.636 226.4V220.64H125.904V226.058C125.904 226.802 126.054 227.39 126.354 227.822C126.654 228.254 127.134 228.47 127.794 228.47C128.502 228.47 129.06 228.212 129.468 227.696C129.888 227.168 130.098 226.508 130.098 225.716V220.64H132.348V227.858C132.348 228.506 132.402 229.22 132.51 230H130.35C130.266 229.568 130.218 229.202 130.206 228.902H130.17C129.51 229.802 128.514 230.252 127.182 230.252C126.018 230.252 125.136 229.898 124.536 229.19C123.936 228.47 123.636 227.54 123.636 226.4ZM139.328 220.388C140.504 220.388 141.548 220.724 142.46 221.396L141.614 222.962C140.894 222.494 140.138 222.26 139.346 222.26C138.494 222.26 137.858 222.53 137.438 223.07C137.018 223.61 136.808 224.354 136.808 225.302C136.808 226.226 137.018 226.97 137.438 227.534C137.858 228.086 138.482 228.362 139.31 228.362C140.042 228.362 140.816 228.122 141.632 227.642L142.442 229.244C141.974 229.568 141.458 229.82 140.894 230C140.33 230.168 139.742 230.252 139.13 230.252C137.99 230.252 137.078 230 136.394 229.496C135.71 228.992 135.23 228.368 134.954 227.624C134.678 226.88 134.54 226.106 134.54 225.302C134.54 224.306 134.732 223.442 135.116 222.71C135.5 221.966 136.052 221.396 136.772 221C137.492 220.592 138.344 220.388 139.328 220.388ZM143.625 227.372C143.625 226.148 144.057 225.296 144.921 224.816C145.797 224.336 147.051 224.096 148.683 224.096C149.079 224.096 149.379 224.102 149.583 224.114V223.646C149.583 222.638 148.941 222.134 147.657 222.134C146.733 222.134 145.827 222.374 144.939 222.854L144.183 221.36C144.687 221.06 145.257 220.826 145.893 220.658C146.529 220.478 147.159 220.388 147.783 220.388C149.211 220.388 150.243 220.712 150.879 221.36C151.515 221.996 151.833 222.974 151.833 224.294V227.858C151.833 228.314 151.887 229.028 151.995 230H149.925C149.841 229.508 149.787 229.154 149.763 228.938H149.709C149.373 229.382 148.971 229.712 148.503 229.928C148.035 230.144 147.417 230.252 146.649 230.252C145.785 230.252 145.065 230.006 144.489 229.514C143.913 229.01 143.625 228.296 143.625 227.372ZM149.601 226.382V225.626L148.917 225.608C147.861 225.608 147.105 225.734 146.649 225.986C146.193 226.226 145.965 226.634 145.965 227.21C145.965 227.618 146.085 227.936 146.325 228.164C146.565 228.38 146.889 228.488 147.297 228.488C147.741 228.488 148.137 228.392 148.485 228.2C148.833 227.996 149.103 227.738 149.295 227.426C149.499 227.102 149.601 226.754 149.601 226.382ZM157.17 220.73H159.492V222.44H157.17V227.102C157.17 227.99 157.572 228.434 158.376 228.434C158.7 228.434 158.976 228.398 159.204 228.326L159.528 229.982C159.072 230.162 158.526 230.252 157.89 230.252C156.954 230.252 156.222 230 155.694 229.496C155.178 228.98 154.92 228.254 154.92 227.318V222.44H153.372V221L154.902 220.73V218.516L157.17 217.724V220.73ZM163.681 230H161.431V220.64H163.681V230ZM161.179 217.724C161.179 216.86 161.641 216.428 162.565 216.428C163.057 216.428 163.411 216.548 163.627 216.788C163.843 217.028 163.951 217.34 163.951 217.724C163.951 218.096 163.837 218.402 163.609 218.642C163.393 218.882 163.045 219.002 162.565 219.002C162.073 219.002 161.719 218.882 161.503 218.642C161.287 218.402 161.179 218.096 161.179 217.724ZM175.637 225.284C175.637 226.256 175.439 227.12 175.043 227.876C174.659 228.62 174.095 229.202 173.351 229.622C172.619 230.042 171.755 230.252 170.759 230.252C169.763 230.252 168.899 230.042 168.167 229.622C167.435 229.19 166.871 228.602 166.475 227.858C166.091 227.102 165.899 226.244 165.899 225.284C165.899 224.3 166.091 223.442 166.475 222.71C166.859 221.978 167.411 221.408 168.131 221C168.863 220.592 169.739 220.388 170.759 220.388C171.779 220.388 172.655 220.592 173.387 221C174.119 221.408 174.677 221.978 175.061 222.71C175.445 223.442 175.637 224.3 175.637 225.284ZM168.239 225.284C168.239 226.244 168.437 227.018 168.833 227.606C169.241 228.182 169.889 228.47 170.777 228.47C171.665 228.47 172.313 228.182 172.721 227.606C173.129 227.018 173.333 226.244 173.333 225.284C173.333 224.336 173.129 223.586 172.721 223.034C172.313 222.47 171.659 222.188 170.759 222.188C169.871 222.188 169.229 222.47 168.833 223.034C168.437 223.586 168.239 224.336 168.239 225.284ZM177.849 222.782C177.849 222.326 177.795 221.612 177.687 220.64H179.847C179.919 221.012 179.967 221.372 179.991 221.72H180.027C180.327 221.324 180.741 221.006 181.269 220.766C181.797 220.514 182.415 220.388 183.123 220.388C183.903 220.388 184.545 220.55 185.049 220.874C185.565 221.198 185.943 221.618 186.183 222.134C186.423 222.65 186.543 223.208 186.543 223.808V230H184.293V224.294C184.293 223.694 184.143 223.208 183.843 222.836C183.555 222.452 183.069 222.26 182.385 222.26C181.677 222.26 181.119 222.5 180.711 222.98C180.303 223.448 180.099 224.054 180.099 224.798V230H177.849V222.782Z" fill="#5EC697"/>
</g>
<g filter="url(#filter1_d_6934_2928)">
</g>
</g>
<defs>
<filter id="filter0_d_6934_2928" x="0" y="-8" width="342" height="123" filterUnits="userSpaceOnUse" color-interpolation-filters="sRGB">
<feFlood flood-opacity="0" result="BackgroundImageFix"/>
<feColorMatrix in="SourceAlpha" type="matrix" values="0 0 0 0 0 0 0 0 0 0 0 0 0 0 0 0 0 0 127 0" result="hardAlpha"/>
<feOffset dy="12"/>
<feGaussianBlur stdDeviation="10"/>
<feComposite in2="hardAlpha" operator="out"/>
<feColorMatrix type="matrix" values="0 0 0 0 0.552361 0 0 0 0 0.653273 0 0 0 0 0.808333 0 0 0 0.15 0"/>
<feBlend mode="normal" in2="BackgroundImageFix" result="effect1_dropShadow_6934_2928"/>
<feBlend mode="normal" in="SourceGraphic" in2="effect1_dropShadow_6934_2928" result="shape"/>
</filter>
<filter id="filter1_d_6934_2928" x="0" y="-3479" width="10675" height="3867" filterUnits="userSpaceOnUse" color-interpolation-filters="sRGB">
<feFlood flood-opacity="0" result="BackgroundImageFix"/>
<feColorMatrix in="SourceAlpha" type="matrix" values="0 0 0 0 0 0 0 0 0 0 0 0 0 0 0 0 0 0 127 0" result="hardAlpha"/>
<feOffset dy="12"/>
<feGaussianBlur stdDeviation="10"/>
<feComposite in2="hardAlpha" operator="out"/>
<feColorMatrix type="matrix" values="0 0 0 0 0.552361 0 0 0 0 0.653273 0 0 0 0 0.808333 0 0 0 0.15 0"/>
<feBlend mode="normal" in2="BackgroundImageFix" result="effect1_dropShadow_6934_2928"/>
<feBlend mode="normal" in="SourceGraphic" in2="effect1_dropShadow_6934_2928" result="shape"/>
</filter>
<linearGradient id="paint0_linear_6934_2928" x1="62.0001" y1="25.6365" x2="62.0001" y2="58.3637" gradientUnits="userSpaceOnUse">
<stop stop-color="#FF71A4"/>
<stop offset="1" stop-color="#EE3175"/>
</linearGradient>
<linearGradient id="paint1_linear_6934_2928" x1="69.3497" y1="126.22" x2="53.8633" y2="145.71" gradientUnits="userSpaceOnUse">
<stop stop-color="#FFB800"/>
<stop offset="1" stop-color="#FF7A00"/>
</linearGradient>
<linearGradient id="paint2_linear_6934_2928" x1="69.3613" y1="217.946" x2="55.6727" y2="236.953" gradientUnits="userSpaceOnUse">
<stop stop-color="#75D8AB"/>
<stop offset="1" stop-color="#39AA77"/>
</linearGradient>
<linearGradient id="paint3_linear_6934_2928" x1="67.6623" y1="226.02" x2="61.8273" y2="236.826" gradientUnits="userSpaceOnUse">
<stop stop-color="#75D8AB"/>
<stop offset="1" stop-color="#39AA77"/>
</linearGradient>
<clipPath id="clip0_6934_2928">
<rect width="342" height="273" fill="white"/>
</clipPath>
</defs>
</svg>
