<svg width="44" height="44" viewBox="0 0 44 44" fill="none" xmlns="http://www.w3.org/2000/svg">
<rect width="44" height="44" fill="#F5F5F5"/>
<g id="CORP FONTS" clip-path="url(#clip0_686_2617)">
<rect width="1920" height="7397" transform="translate(-563 -2686)" fill="white"/>
<rect id="Rectangle 244" x="-559" y="-487" width="1920" height="1070" fill="url(#paint0_linear_686_2617)"/>
<g id="Frame 128" filter="url(#filter0_d_686_2617)">
<g id="Frame 113" filter="url(#filter1_d_686_2617)">
<g clip-path="url(#clip1_686_2617)">
<g id="Rectangle 187" filter="url(#filter2_d_686_2617)">
<rect x="-356" y="-486" width="1503" height="637" rx="40" fill="white"/>
<rect x="-355.5" y="-485.5" width="1502" height="636" rx="39.5" stroke="#D1D4FA"/>
</g>
</g>
</g>
<g id="akar-icons:youtube-fill" clip-path="url(#clip2_686_2617)">
<g id="Group">
<g id="Group_2">
<path id="Vector" d="M43.0835 11.9295C42.8344 11.0407 42.349 10.2361 41.6792 9.60114C40.9903 8.94665 40.1461 8.47848 39.2262 8.24081C35.7832 7.33331 21.9892 7.33331 21.9892 7.33331C16.2386 7.26788 10.4894 7.55565 4.77416 8.19498C3.85417 8.4502 3.01152 8.92884 2.32116 9.58831C1.64282 10.241 1.15149 11.0458 0.894822 11.9276C0.278259 15.2492 -0.0213097 18.6218 0.00015494 22C-0.0218451 25.3751 0.276988 28.7466 0.894822 32.0723C1.14599 32.9505 1.63549 33.7516 2.31565 34.3988C2.99582 35.046 3.84282 35.5135 4.77416 35.761C8.26299 36.6666 21.9892 36.6666 21.9892 36.6666C27.747 36.7322 33.5035 36.4444 39.2262 35.805C40.1461 35.5673 40.9903 35.0991 41.6792 34.4446C42.3488 33.8098 42.8335 33.0051 43.0817 32.1163C43.7143 28.7961 44.0219 25.4221 44.0002 22.0421C44.0477 18.6479 43.7405 15.258 43.0835 11.9276V11.9295ZM17.6038 28.2773V15.7245L29.0805 22.0018L17.6038 28.2773Z" fill="#FF1600"/>
</g>
</g>
</g>
</g>
</g>
<defs>
<filter id="filter0_d_686_2617" x="-386" y="-504" width="1563" height="697" filterUnits="userSpaceOnUse" color-interpolation-filters="sRGB">
<feFlood flood-opacity="0" result="BackgroundImageFix"/>
<feColorMatrix in="SourceAlpha" type="matrix" values="0 0 0 0 0 0 0 0 0 0 0 0 0 0 0 0 0 0 127 0" result="hardAlpha"/>
<feOffset dy="12"/>
<feGaussianBlur stdDeviation="15"/>
<feComposite in2="hardAlpha" operator="out"/>
<feColorMatrix type="matrix" values="0 0 0 0 0.25125 0 0 0 0 0.4154 0 0 0 0 0.8375 0 0 0 0.11 0"/>
<feBlend mode="normal" in2="BackgroundImageFix" result="effect1_dropShadow_686_2617"/>
<feBlend mode="normal" in="SourceGraphic" in2="effect1_dropShadow_686_2617" result="shape"/>
</filter>
<filter id="filter1_d_686_2617" x="-376" y="-490" width="1543" height="677" filterUnits="userSpaceOnUse" color-interpolation-filters="sRGB">
<feFlood flood-opacity="0" result="BackgroundImageFix"/>
<feColorMatrix in="SourceAlpha" type="matrix" values="0 0 0 0 0 0 0 0 0 0 0 0 0 0 0 0 0 0 127 0" result="hardAlpha"/>
<feOffset dy="16"/>
<feGaussianBlur stdDeviation="10"/>
<feComposite in2="hardAlpha" operator="out"/>
<feColorMatrix type="matrix" values="0 0 0 0 0.653385 0 0 0 0 0.716113 0 0 0 0 0.8125 0 0 0 0.09 0"/>
<feBlend mode="normal" in2="BackgroundImageFix" result="effect1_dropShadow_686_2617"/>
<feBlend mode="normal" in="SourceGraphic" in2="effect1_dropShadow_686_2617" result="shape"/>
</filter>
<filter id="filter2_d_686_2617" x="-386" y="-504" width="1563" height="697" filterUnits="userSpaceOnUse" color-interpolation-filters="sRGB">
<feFlood flood-opacity="0" result="BackgroundImageFix"/>
<feColorMatrix in="SourceAlpha" type="matrix" values="0 0 0 0 0 0 0 0 0 0 0 0 0 0 0 0 0 0 127 0" result="hardAlpha"/>
<feOffset dy="12"/>
<feGaussianBlur stdDeviation="15"/>
<feComposite in2="hardAlpha" operator="out"/>
<feColorMatrix type="matrix" values="0 0 0 0 0.0551148 0 0 0 0 0.268283 0 0 0 0 0.595833 0 0 0 0.15 0"/>
<feBlend mode="normal" in2="BackgroundImageFix" result="effect1_dropShadow_686_2617"/>
<feBlend mode="normal" in="SourceGraphic" in2="effect1_dropShadow_686_2617" result="shape"/>
</filter>
<linearGradient id="paint0_linear_686_2617" x1="401" y1="-487" x2="401" y2="583" gradientUnits="userSpaceOnUse">
<stop offset="0.439406" stop-color="white"/>
<stop offset="1" stop-color="#F7F8FE"/>
</linearGradient>
<clipPath id="clip0_686_2617">
<rect width="1920" height="7397" fill="white" transform="translate(-563 -2686)"/>
</clipPath>
<clipPath id="clip1_686_2617">
<rect x="-356" y="-486" width="1503" height="637" rx="40" fill="white"/>
</clipPath>
<clipPath id="clip2_686_2617">
<rect width="44" height="44" fill="white"/>
</clipPath>
</defs>
</svg>
