<svg width="20" height="20" viewBox="0 0 20 20" fill="none" xmlns="http://www.w3.org/2000/svg">
<path d="M18.0529 6.60939C17.6147 5.56354 16.9772 4.61294 16.176 3.81056C15.3771 3.00679 14.4281 2.36774 13.383 1.92971C12.3123 1.47879 11.1619 1.24765 10.0002 1.25002H9.96111C8.77947 1.25588 7.63689 1.49025 6.56072 1.95119C5.52453 2.39372 4.58449 3.0339 3.79314 3.83596C2.99965 4.63653 2.36945 5.58381 1.93767 6.62502C1.48946 7.70776 1.26235 8.86921 1.2697 10.041C1.27556 11.3965 1.59978 12.7422 2.20525 13.9453V16.9141C2.20525 17.4102 2.6076 17.8125 3.10174 17.8125H6.06658C7.27532 18.4224 8.60917 18.7434 9.96306 18.75H10.0041C11.172 18.75 12.3029 18.5235 13.3693 18.0801C14.4092 17.6473 15.3546 17.0157 16.1525 16.2207C16.9572 15.4219 17.59 14.4883 18.0334 13.4473C18.4924 12.3692 18.7267 11.2227 18.7326 10.0391C18.7365 8.84963 18.506 7.69533 18.0529 6.60939ZM6.10174 10.9375C5.58611 10.9375 5.16619 10.5176 5.16619 10C5.16619 9.48244 5.58611 9.06252 6.10174 9.06252C6.61736 9.06252 7.03728 9.48244 7.03728 10C7.03728 10.5176 6.61931 10.9375 6.10174 10.9375ZM10.0002 10.9375C9.48455 10.9375 9.06463 10.5176 9.06463 10C9.06463 9.48244 9.48455 9.06252 10.0002 9.06252C10.5158 9.06252 10.9357 9.48244 10.9357 10C10.9357 10.5176 10.5158 10.9375 10.0002 10.9375ZM13.8986 10.9375C13.383 10.9375 12.9631 10.5176 12.9631 10C12.9631 9.48244 13.383 9.06252 13.8986 9.06252C14.4142 9.06252 14.8342 9.48244 14.8342 10C14.8342 10.5176 14.4142 10.9375 13.8986 10.9375Z" fill="#079DD9"/>
</svg>
